<svg width="53" height="33" viewBox="0 0 53 33" fill="none" xmlns="http://www.w3.org/2000/svg">
<path fill-rule="evenodd" clip-rule="evenodd" d="M1.7985e-06 1.64997C1.7985e-06 0.738696 0.727984 -3.43323e-05 1.62599 -3.43323e-05H51.2188C51.9939 -3.43323e-05 52.6612 0.555124 52.8132 1.32637C53.4608 4.61234 52.4839 9.48201 48.9483 13.2988C45.3473 17.1862 39.2559 19.8282 29.9337 18.9682C29.8088 18.9567 29.6856 18.9305 29.5667 18.8903C27.0375 18.0348 25.2353 16.5779 23.8054 15.422C23.6749 15.3165 23.5476 15.2136 23.423 15.1138C21.8639 13.8647 20.8423 13.2 19.5119 13.2H1.62599C0.727984 13.2 1.7985e-06 12.4612 1.7985e-06 11.55C1.7985e-06 10.6387 0.727984 9.89997 1.62599 9.89997H19.5119C22.0839 9.89997 23.9078 11.2977 25.4381 12.5237C25.5568 12.6188 25.6746 12.7136 25.7919 12.808C27.2116 13.951 28.5518 15.03 30.4209 15.699C38.8672 16.4349 43.8322 14.0037 46.5788 11.0386C48.9049 8.52745 49.7586 5.52097 49.748 3.29997H1.62599C0.727984 3.29997 1.7985e-06 2.56124 1.7985e-06 1.64997ZM1.7985e-06 22.275C1.7985e-06 21.3637 0.727984 20.625 1.62599 20.625H20.3249C21.2229 20.625 21.9509 21.3637 21.9509 22.275C21.9509 23.1862 21.2229 23.925 20.3249 23.925H1.62599C0.727984 23.925 1.7985e-06 23.1862 1.7985e-06 22.275ZM32.201 23.957C32.306 23.9357 32.4128 23.925 32.5199 23.925H50.4058C51.3038 23.925 52.0318 24.6637 52.0318 25.575C52.0318 26.4862 51.3038 27.225 50.4058 27.225H32.7003C32.2083 27.3509 31.4104 27.6676 30.4452 28.11C29.4289 28.5757 28.373 29.1112 27.556 29.5258C26.91 29.8536 26.121 30.2954 25.2857 30.7632C24.8269 31.0202 24.354 31.285 23.8832 31.5431C23.2441 31.8934 22.6118 32.2288 22.0755 32.4796C21.8084 32.6045 21.538 32.7213 21.286 32.81C21.0791 32.8827 20.7156 33 20.3249 33H1.62599C0.727984 33 1.7985e-06 32.2612 1.7985e-06 31.35C1.7985e-06 30.4387 0.727984 29.7 1.62599 29.7H20.1977C20.2048 29.6976 20.2125 29.6949 20.2209 29.692C20.3313 29.6531 20.4943 29.5855 20.7143 29.4826C21.1523 29.2777 21.7096 28.9838 22.3378 28.6395C22.7425 28.4177 23.1804 28.1726 23.6236 27.9245C24.5016 27.4331 25.4001 26.9302 26.1017 26.5742L26.1118 26.569C26.92 26.159 28.0273 25.5971 29.1068 25.1025C30.1451 24.6266 31.3182 24.1362 32.201 23.957Z" fill="#FF9B82"/>
</svg>
