<svg xmlns="http://www.w3.org/2000/svg" width="34" height="34" fill="none" viewBox="0 0 34 34"><g clip-path="url(#clip0)"><path fill="#00525A" d="M33.3193 24.5122H25.8925C26.1958 24.0504 26.3729 23.4986 26.3729 22.906C26.3729 21.9641 25.9263 21.125 25.2343 20.5877V18.4118L25.567 18.7445C25.6967 18.8741 25.8666 18.939 26.0366 18.939C26.2065 18.939 26.3764 18.8741 26.5061 18.7445L29.1164 16.1343C29.2409 16.0097 29.3109 15.8408 29.3109 15.6647C29.3109 15.4886 29.2409 15.3197 29.1164 15.1951L26.5061 12.5848C26.3815 12.4603 26.2127 12.3903 26.0366 12.3903C25.8605 12.3903 25.6915 12.4603 25.567 12.5848L25.2343 12.9175V3.58594C25.2343 3.21924 24.9369 2.92188 24.5702 2.92188H22.4502V2.39554C22.4502 1.07465 21.3756 0 20.0547 0C18.7337 0 17.6591 1.07465 17.6591 2.39554V2.92188H15.0127V2.39554C15.0127 1.07465 13.9381 0 12.6172 0C11.2962 0 10.2216 1.07465 10.2216 2.39554V2.92188H7.57523V2.39554C7.57523 1.07465 6.50064 0 5.17969 0C3.85873 0 2.78415 1.07465 2.78415 2.39554V2.92188H0.664062C0.297367 2.92188 0 3.21924 0 3.58594V33.3359C0 33.7026 0.297367 34 0.664062 34H9.62911C9.9958 34 10.2932 33.7026 10.2932 33.3359C10.2932 32.9692 9.9958 32.6719 9.62911 32.6719H1.32812V4.25H6.2471V4.77634C6.2471 5.36489 5.76825 5.84375 5.17969 5.84375C4.81299 5.84375 4.51562 6.14112 4.51562 6.50781C4.51562 6.87451 4.81299 7.17188 5.17969 7.17188C6.50064 7.17188 7.57523 6.09722 7.57523 4.77634V4.25H13.6846V4.77634C13.6846 5.36489 13.2057 5.84375 12.6172 5.84375C12.2505 5.84375 11.9531 6.14112 11.9531 6.50781C11.9531 6.87451 12.2505 7.17188 12.6172 7.17188C13.9381 7.17188 15.0127 6.09722 15.0127 4.77634V4.25H21.1221V4.77634C21.1221 5.36489 20.6432 5.84375 20.0547 5.84375C19.688 5.84375 19.3906 6.14112 19.3906 6.50781C19.3906 6.87451 19.688 7.17188 20.0547 7.17188C21.3756 7.17188 22.4502 6.09722 22.4502 4.77634V4.25H23.9062V14.2457L22.9568 15.1951C22.6975 15.4545 22.6975 15.8749 22.9568 16.1343L23.9062 17.0837V20.0094C23.7539 19.9849 23.5978 19.9717 23.4386 19.9717C21.8206 19.9717 20.5043 21.288 20.5043 22.906C20.5043 23.4986 20.6814 24.0504 20.9847 24.5123H17C16.6333 24.5123 16.3359 24.8096 16.3359 25.1763C16.3359 28.3363 18.006 31.1132 20.5095 32.6719H15.6055C15.2388 32.6719 14.9414 32.9693 14.9414 33.336C14.9414 33.7027 15.2388 34.0001 15.6055 34.0001H25.1597C30.0251 34.0001 33.9834 30.0418 33.9834 25.1763C33.9834 24.8096 33.686 24.5122 33.3193 24.5122ZM4.11227 2.92188V2.39554C4.11227 1.80698 4.59113 1.32812 5.17969 1.32812C5.76825 1.32812 6.2471 1.80698 6.2471 2.39554V2.92188H4.11227ZM11.5498 2.92188V2.39554C11.5498 1.80698 12.0286 1.32812 12.6172 1.32812C13.2057 1.32812 13.6846 1.80698 13.6846 2.39554V2.92188H11.5498ZM18.9873 2.92188V2.39554C18.9873 1.80698 19.4661 1.32812 20.0547 1.32812C20.6432 1.32812 21.1221 1.80698 21.1221 2.39554V2.92188H18.9873ZM26.0366 13.9937L27.7077 15.6648L26.0366 17.3359L24.3655 15.6648L26.0366 13.9937ZM21.8324 22.906C21.8324 22.0204 22.553 21.2998 23.4387 21.2998C24.3243 21.2998 25.0449 22.0204 25.0449 22.906C25.0449 23.7917 24.3243 24.5123 23.4387 24.5123C22.553 24.5123 21.8324 23.7916 21.8324 22.906ZM25.1597 32.6719C21.2503 32.6719 18.0304 29.6635 17.6932 25.8403H32.6261C32.2889 29.6635 29.069 32.6719 25.1597 32.6719V32.6719Z"/><path fill="#00525A" d="M27.825 22.1246C28.5082 22.8078 29.4167 23.1841 30.3829 23.1841C31.3491 23.1841 32.2574 22.8078 32.9407 22.1246C33.6239 21.4415 34.0001 20.533 34.0001 19.5668C34.0001 18.6006 33.6238 17.6922 32.9406 17.009C32.6812 16.7497 32.2609 16.7497 32.0014 17.009L27.825 21.1855C27.5657 21.4448 27.5657 21.8653 27.825 22.1246V22.1246ZM32.4016 18.4872C32.8643 19.3532 32.7309 20.4562 32.0015 21.1855C31.2723 21.9149 30.1692 22.0483 29.3032 21.5856L32.4016 18.4872Z"/><path fill="#00525A" d="M18.3163 12.7584C17.9496 12.7584 17.6523 13.0558 17.6523 13.4225V13.6847C17.2121 13.8145 16.8157 14.072 16.5149 14.434C16.0687 14.9714 15.8863 15.6733 16.0145 16.36L16.6745 19.8947C16.8221 20.6849 17.5125 21.2584 18.3163 21.2584C19.1202 21.2584 19.8106 20.6849 19.9582 19.8948L20.6182 16.36C20.7464 15.6733 20.564 14.9714 20.1177 14.434C19.817 14.0719 19.4206 13.8144 18.9804 13.6847V13.4225C18.9804 13.0557 18.6831 12.7584 18.3163 12.7584V12.7584ZM19.096 15.2826C19.2891 15.5152 19.3681 15.819 19.3126 16.1162L18.6526 19.6511C18.6224 19.8129 18.481 19.9303 18.3164 19.9303C18.1518 19.9303 18.0104 19.8128 17.9802 19.651L17.3202 16.1162C17.2647 15.819 17.3437 15.5152 17.5368 15.2826C17.73 15.0501 18.0141 14.9166 18.3165 14.9166C18.6188 14.9166 18.9028 15.0501 19.096 15.2826V15.2826Z"/><path fill="#00525A" d="M5.38349 10.7977C5.26004 10.6735 5.08871 10.6031 4.91406 10.6031C4.73941 10.6031 4.56809 10.6735 4.44457 10.7977C4.32105 10.9212 4.25 11.0925 4.25 11.2672C4.25 11.4418 4.32099 11.6125 4.44457 11.7366C4.56809 11.8601 4.73941 11.9312 4.91406 11.9312C5.08871 11.9312 5.26004 11.8602 5.38349 11.7366C5.507 11.6125 5.57812 11.4418 5.57812 11.2672C5.57812 11.0925 5.50707 10.9212 5.38349 10.7977Z"/><path fill="#00525A" d="M14.083 10.6029H8.21228C7.84558 10.6029 7.54822 10.9003 7.54822 11.267C7.54822 11.6336 7.84558 11.931 8.21228 11.931H14.083C14.4497 11.931 14.7471 11.6336 14.7471 11.267C14.7471 10.9003 14.4498 10.6029 14.083 10.6029Z"/><path fill="#00525A" d="M5.38349 15.5417C5.26004 15.4182 5.08871 15.3471 4.91406 15.3471C4.73941 15.3471 4.56809 15.4181 4.44457 15.5417C4.32105 15.6652 4.25 15.8365 4.25 16.0111C4.25 16.1859 4.32099 16.3571 4.44457 16.4806C4.56815 16.6041 4.73941 16.6752 4.91406 16.6752C5.08871 16.6752 5.26004 16.6042 5.38349 16.4806C5.507 16.3571 5.57812 16.1859 5.57812 16.0111C5.57812 15.8365 5.50707 15.6652 5.38349 15.5417Z"/><path fill="#00525A" d="M14.083 15.3472H8.21228C7.84558 15.3472 7.54822 15.6446 7.54822 16.0113C7.54822 16.378 7.84558 16.6753 8.21228 16.6753H14.083C14.4497 16.6753 14.7471 16.378 14.7471 16.0113C14.7471 15.6446 14.4498 15.3472 14.083 15.3472Z"/><path fill="#00525A" d="M5.38349 20.2857C5.26004 20.1623 5.08871 20.0918 4.91406 20.0918C4.73941 20.0918 4.56809 20.1623 4.44457 20.2857C4.32105 20.4099 4.25 20.5812 4.25 20.7559C4.25 20.9305 4.32099 21.1012 4.44457 21.2248C4.56809 21.3489 4.73941 21.4199 4.91406 21.4199C5.08871 21.4199 5.26004 21.3489 5.38349 21.2248C5.507 21.1013 5.57812 20.9305 5.57812 20.7559C5.57812 20.5812 5.50707 20.41 5.38349 20.2857Z"/><path fill="#00525A" d="M14.083 20.0916H8.21228C7.84558 20.0916 7.54822 20.389 7.54822 20.7557C7.54822 21.1224 7.84558 21.4197 8.21228 21.4197H14.083C14.4497 21.4197 14.7471 21.1224 14.7471 20.7557C14.7471 20.389 14.4498 20.0916 14.083 20.0916Z"/><path fill="#00525A" d="M4.91406 24.8359C4.73941 24.8359 4.56809 24.9069 4.44457 25.0305C4.32105 25.1541 4.25 25.3254 4.25 25.5C4.25 25.6746 4.32099 25.846 4.44457 25.9694C4.56809 26.093 4.73941 26.1641 4.91406 26.1641C5.08871 26.1641 5.26004 26.093 5.38349 25.9694C5.50707 25.846 5.57812 25.6746 5.57812 25.5C5.57812 25.3254 5.50707 25.154 5.38349 25.0305C5.26004 24.9069 5.08871 24.8359 4.91406 24.8359Z"/><path fill="#00525A" d="M14.083 24.8359H8.21228C7.84558 24.8359 7.54822 25.1333 7.54822 25.5C7.54822 25.8667 7.84558 26.1641 8.21228 26.1641H14.083C14.4497 26.1641 14.7471 25.8667 14.7471 25.5C14.7471 25.1333 14.4498 24.8359 14.083 24.8359Z"/><path fill="#00525A" d="M12.6172 32.6719C12.4425 32.6719 12.2712 32.7429 12.1477 32.8664C12.0242 32.99 11.9531 33.1613 11.9531 33.3359C11.9531 33.5106 12.0241 33.6819 12.1477 33.8054C12.2712 33.9289 12.4425 34 12.6172 34C12.7918 34 12.9632 33.9289 13.0866 33.8054C13.2102 33.6819 13.2812 33.5106 13.2812 33.3359C13.2812 33.1613 13.2102 32.99 13.0866 32.8664C12.9632 32.7429 12.7918 32.6719 12.6172 32.6719Z"/></g><defs><clipPath id="clip0"><rect width="34" height="34" fill="#fff"/></clipPath></defs></svg>