<svg width="47" height="47" viewBox="0 0 47 47" fill="none" xmlns="http://www.w3.org/2000/svg">
<path d="M26.3457 7.46207V7.4627L26.3489 7.46226L26.3457 7.46207Z" fill="#8A4240"/>
<path d="M18.0737 24.6444C20.2713 24.6444 22.3465 23.7547 23.9194 22.1393C25.4759 20.5527 26.3472 18.4184 26.3457 16.1957V7.46309C26.014 7.51404 20.1963 8.40245 16.2245 8.65424C14.9044 10.0382 12.8962 11.5137 10.3111 11.5137C10.1466 11.5137 10.0059 11.5069 9.82229 11.4946V16.1957C9.81726 18.4172 10.6852 20.5517 12.2391 22.1393C13.8121 23.7547 15.8761 24.6444 18.0737 24.6444V24.6444ZM10.9984 14.4023C10.9984 13.5944 11.2932 12.8143 11.8275 12.2083C12.3619 11.6023 13.0989 11.2122 13.9004 11.111C14.702 11.0098 15.5129 11.2046 16.181 11.6588C16.8491 12.1129 17.3286 12.7953 17.5294 13.5779C17.8869 13.4813 18.2635 13.4813 18.621 13.5779C18.827 12.7733 19.327 12.0752 20.0225 11.6214C20.718 11.1675 21.5584 10.9909 22.3778 11.1264C23.1971 11.2619 23.9359 11.6997 24.4483 12.3533C24.9606 13.0068 25.2094 13.8288 25.1453 14.6568C25.0813 15.4848 24.7091 16.2587 24.1024 16.8257C23.4956 17.3928 22.6983 17.7117 21.8679 17.7196C21.0374 17.7275 20.2342 17.4238 19.6167 16.8684C18.9993 16.313 18.6125 15.5464 18.5327 14.7197C18.3915 14.6459 18.2345 14.6074 18.0752 14.6074C17.9159 14.6074 17.7589 14.6459 17.6177 14.7197C17.5361 15.568 17.1311 16.3524 16.4868 16.9102C15.8424 17.468 15.0081 17.7564 14.1568 17.7156C13.3056 17.6748 12.5027 17.3079 11.9146 16.6911C11.3266 16.0742 10.9985 15.2547 10.9984 14.4025V14.4023Z" fill="#8A4240"/>
<path d="M16.5316 14.4023C16.5316 13.964 16.4017 13.5356 16.1582 13.1712C15.9147 12.8068 15.5687 12.5227 15.1638 12.355C14.7589 12.1873 14.3133 12.1434 13.8835 12.2289C13.4537 12.3144 13.0588 12.5254 12.7489 12.8353C12.439 13.1452 12.2279 13.54 12.1424 13.9699C12.0569 14.3997 12.1008 14.8452 12.2685 15.2502C12.4362 15.6551 12.7202 16.0011 13.0846 16.2446C13.4491 16.4881 13.8775 16.6181 14.3157 16.6181C14.9032 16.6174 15.4664 16.3838 15.8818 15.9684C16.2973 15.553 16.5309 14.9898 16.5316 14.4023V14.4023Z" fill="#8A4240"/>
<path d="M21.8345 16.6181C22.2728 16.6181 22.7012 16.4881 23.0656 16.2447C23.43 16.0012 23.7141 15.6551 23.8818 15.2502C24.0495 14.8453 24.0934 14.3998 24.0079 13.9699C23.9224 13.5401 23.7114 13.1452 23.4015 12.8353C23.0916 12.5254 22.6967 12.3144 22.2669 12.2289C21.837 12.1434 21.3915 12.1873 20.9866 12.355C20.5817 12.5227 20.2356 12.8068 19.9921 13.1712C19.7486 13.5356 19.6187 13.964 19.6187 14.4023C19.6194 14.9897 19.853 15.553 20.2684 15.9684C20.6838 16.3838 21.247 16.6174 21.8345 16.6181V16.6181Z" fill="#8A4240"/>
<path d="M14.5671 8.7196C14.5278 8.7196 14.4861 8.72015 14.4477 8.72015C14.2488 8.71959 14.0519 8.67968 13.8684 8.60272C13.685 8.52577 13.5185 8.41329 13.3787 8.27175C13.2389 8.13021 13.1284 7.96241 13.0537 7.77802C12.979 7.59363 12.9415 7.39628 12.9434 7.19733V3.79322C12.9434 3.76486 12.9379 3.73668 12.9387 3.7084C11.9681 4.48289 11.184 5.46572 10.6446 6.58417C10.1051 7.70262 9.8241 8.92806 9.82227 10.1698V10.3901C11.4746 10.5359 13.0719 9.9751 14.5671 8.7196Z" fill="#8A4240"/>
<path d="M14.4476 7.61859C17.919 7.61859 25.4982 6.47747 26.1404 6.37998C27.3812 5.9713 28.7987 4.57259 28.9986 1.92425L23.3049 2.81936C22.0323 3.02124 20.7314 2.95097 19.4879 2.61318L16.5801 1.82676C16.4068 1.7793 16.2281 1.75519 16.0485 1.75507C15.7827 1.75604 15.5198 1.80967 15.2749 1.91287C15.03 2.01607 14.8079 2.16679 14.6216 2.35631C14.4353 2.54584 14.2884 2.77041 14.1894 3.01705C14.0904 3.26368 14.0413 3.5275 14.0449 3.79323V7.19734C14.0429 7.25164 14.0518 7.3058 14.0711 7.3566C14.0904 7.4074 14.1197 7.45382 14.1572 7.4931C14.1948 7.53238 14.2398 7.56372 14.2897 7.58528C14.3396 7.60684 14.3933 7.61816 14.4476 7.61859V7.61859Z" fill="#8A4240"/>
<path d="M33.8798 26.929C32.3779 26.9288 30.899 27.2981 29.5734 28.0043C28.2479 28.7104 27.1164 29.7318 26.2786 30.9784C25.4409 32.225 24.9227 33.6585 24.7696 35.1526C24.6165 36.6467 24.8333 38.1555 25.4009 39.5461C25.4737 39.631 25.5187 39.7362 25.53 39.8475C26.2061 41.3488 27.2746 42.64 28.6228 43.5852C29.971 44.5305 31.5491 45.0947 33.1909 45.2186C34.8328 45.3425 36.4777 45.0214 37.9525 44.2892C39.4273 43.557 40.6774 42.4407 41.5712 41.0579C42.4649 39.675 42.9694 38.0768 43.0313 36.4314C43.0933 34.786 42.7105 33.1544 41.9233 31.7082C41.1361 30.2621 39.9735 29.0549 38.558 28.2138C37.1425 27.3728 35.5264 26.9289 33.8798 26.9289V26.929ZM31.8938 38.8718C31.9512 38.9163 31.9992 38.9717 32.0351 39.0349C32.071 39.098 32.0941 39.1676 32.103 39.2397C32.1118 39.3118 32.1064 39.385 32.0868 39.455C32.0673 39.5249 32.0342 39.5904 31.9893 39.6475C31.9444 39.7046 31.8886 39.7522 31.8252 39.7877C31.7618 39.8232 31.692 39.8457 31.6199 39.8541C31.5477 39.8625 31.4746 39.8565 31.4048 39.8366C31.3349 39.8166 31.2697 39.783 31.2129 39.7377L27.0745 36.4835C27.0089 36.4319 26.956 36.3662 26.9195 36.2912C26.8831 36.2162 26.8642 36.1339 26.8642 36.0506C26.8642 35.9672 26.8831 35.8849 26.9195 35.8099C26.956 35.7349 27.0089 35.6692 27.0745 35.6177L31.2129 32.3635C31.3279 32.2743 31.4734 32.2343 31.6177 32.2521C31.762 32.2698 31.8935 32.344 31.9834 32.4583C32.0733 32.5726 32.1143 32.7178 32.0975 32.8623C32.0807 33.0068 32.0075 33.1387 31.8938 33.2294L28.306 36.0506L31.8938 38.8718ZM35.096 31.3062L33.6273 41.0123C33.6054 41.1567 33.527 41.2865 33.4094 41.3732C33.2917 41.4598 33.1445 41.4962 33.0001 41.4743C32.8556 41.4523 32.7258 41.374 32.6392 41.2563C32.5526 41.1387 32.5162 40.9915 32.5381 40.847L34.0069 31.141C34.0177 31.0695 34.0425 31.0008 34.0799 30.9389C34.1173 30.877 34.1665 30.823 34.2248 30.7801C34.283 30.7372 34.3491 30.7062 34.4194 30.6889C34.4896 30.6715 34.5625 30.6682 34.6341 30.679C34.7056 30.6899 34.7743 30.7147 34.8362 30.7521C34.8981 30.7895 34.952 30.8387 34.9949 30.897C35.0378 30.9552 35.0689 31.0213 35.0862 31.0915C35.1035 31.1618 35.1069 31.2347 35.096 31.3062V31.3062ZM40.7698 36.0506C40.7698 36.1339 40.7509 36.2162 40.7144 36.2912C40.678 36.3662 40.625 36.4319 40.5595 36.4835L36.421 39.7377C36.3642 39.7824 36.2991 39.8155 36.2294 39.835C36.1598 39.8546 36.087 39.8602 36.0152 39.8516C35.9433 39.843 35.8739 39.8204 35.8108 39.785C35.7478 39.7495 35.6923 39.7021 35.6476 39.6452C35.6029 39.5883 35.5698 39.5232 35.5503 39.4536C35.5307 39.384 35.5251 39.3111 35.5337 39.2393C35.5422 39.1675 35.5649 39.0981 35.6003 39.035C35.6357 38.9719 35.6832 38.9165 35.7401 38.8718L39.328 36.0506L35.7401 33.2294C35.6832 33.1847 35.6357 33.1292 35.6003 33.0661C35.5649 33.0031 35.5422 32.9336 35.5337 32.8618C35.5251 32.79 35.5307 32.7172 35.5503 32.6475C35.5698 32.5779 35.6029 32.5128 35.6476 32.4559C35.6923 32.3991 35.7478 32.3516 35.8108 32.3162C35.8739 32.2808 35.9433 32.2581 36.0152 32.2495C36.087 32.2409 36.1598 32.2466 36.2294 32.2661C36.2991 32.2857 36.3642 32.3187 36.421 32.3635L40.5595 35.6177C40.6251 35.6692 40.6781 35.735 40.7145 35.8101C40.751 35.8851 40.7699 35.9675 40.7698 36.0509V36.0506Z" fill="#8A4240"/>
<path d="M13.0352 26.56C15.9727 28.9524 20.1035 28.9603 23.1328 26.5582V24.2391C21.5723 25.2203 19.899 25.746 18.0958 25.746C16.2953 25.7516 14.5337 25.2216 13.0352 24.2234V26.56Z" fill="#8A4240"/>
<path d="M28.3645 27.4322C28.1003 27.3836 27.8324 27.358 27.5638 27.3555H23.851C22.1998 28.7246 20.1157 29.4623 17.9708 29.437C15.89 29.4161 13.8747 28.7324 12.2732 27.3555H8.58659C7.3575 27.3595 6.1799 27.8495 5.31075 28.7186C4.4416 29.5876 3.95145 30.7652 3.94727 31.9942V39.3809H24.1531C23.4248 37.2046 23.4435 34.8475 24.2064 32.6831C24.9692 30.5188 26.4326 28.6708 28.3645 27.4322V27.4322Z" fill="#8A4240"/>
</svg>
