<svg width="38" height="38" viewBox="0 0 38 38" fill="none" xmlns="http://www.w3.org/2000/svg">
<g clip-path="url(#clip0)">
<path d="M36.8867 27.4262C31.4376 27.4262 26.702 25.1276 23.4247 21.8503C23.4247 21.8503 19.2358 17.6614 19.2357 17.6612C18.8009 17.2265 18.0961 17.2265 17.6613 17.6612C17.2265 18.096 17.2265 18.8008 17.6613 19.2356L21.8503 23.4247C25.5107 27.0851 30.7999 29.6527 36.8867 29.6527C37.5015 29.6527 38 29.1543 38 28.5395C38 27.9246 37.5015 27.4262 36.8867 27.4262V27.4262Z" fill="#75FFC5"/>
<path d="M33.8709 9.54423C34.2438 6.21656 32.1354 3.01647 28.8047 2.12421C25.134 1.14081 21.3475 3.32715 20.3641 6.99793L17.54 17.54L6.99793 20.3641C3.32715 21.3475 1.14081 25.134 2.12421 28.8047C3.01647 32.1353 6.21656 34.2437 9.54423 33.8709C10.8848 36.9393 14.3106 38.6568 17.6412 37.7645C21.312 36.7811 23.4983 32.9947 22.5149 29.324L20.0233 20.0233L29.324 22.5149C32.9948 23.4983 36.7812 21.312 37.7645 17.6412C38.6568 14.3106 36.9393 10.8848 33.8709 9.54423V9.54423Z" fill="#FAFF00"/>
<path d="M33.8709 9.54423C34.2438 6.21656 32.1354 3.01647 28.8048 2.12421C25.134 1.14081 21.3476 3.32715 20.3642 6.99793L17.54 17.54L20.0233 20.0232L29.3239 22.5148C32.9947 23.4982 36.7811 21.3119 37.7645 17.6411C38.6568 14.3106 36.9393 10.8848 33.8709 9.54423V9.54423Z" fill="#05FF00" fill-opacity="0.27"/>
<path d="M27.9052 12.9885C27.5978 12.4561 26.917 12.2736 26.3845 12.581C26.3845 12.581 17.8912 17.4853 17.8908 17.4859C17.7274 17.5803 17.5855 17.7167 17.4844 17.8918L12.581 26.3844C12.2736 26.9168 12.4561 27.5977 12.9885 27.9051C13.5211 28.2127 14.2018 28.0302 14.5092 27.4977L19.2635 19.2635L27.4977 14.5092C28.0302 14.2019 28.2126 13.521 27.9052 12.9885Z" fill="#05FF00" fill-opacity="0.27"/>
<path d="M19.2635 19.2635L27.4977 14.5092C28.0301 14.2018 28.2126 13.5209 27.9052 12.9885C27.5977 12.4561 26.9169 12.2736 26.3844 12.581C26.3844 12.581 17.8911 17.4853 17.8907 17.4859C17.808 17.5337 17.7308 17.5926 17.6616 17.6616L19.2635 19.2635Z" fill="#75FFC5"/>
<path d="M18.4485 19.5618H6.89188C3.09173 19.5618 0 16.4701 0 12.6699C0 9.22183 2.54548 6.35713 5.8563 5.85623C6.35721 2.54548 9.22183 0 12.6699 0C16.4701 0 19.5618 3.09166 19.5618 6.89188V18.4485C19.5618 19.0634 19.0634 19.5618 18.4485 19.5618V19.5618Z" fill="#FFE600"/>
<path d="M19.2357 19.2356C19.4372 19.0342 19.5618 18.7559 19.5618 18.4485V6.89188C19.5618 3.09166 16.4701 0 12.6699 0C9.22185 0 6.35723 2.54548 5.85632 5.85623L19.2357 19.2356Z" fill="#FAFF00"/>
<path d="M19.2357 17.6613L12.3016 10.7273C11.8669 10.2925 11.162 10.2925 10.7272 10.7273C10.2924 11.162 10.2924 11.8669 10.7272 12.3017L17.6613 19.2357C18.096 19.6705 18.8009 19.6705 19.2357 19.2357C19.6705 18.8009 19.6705 18.0961 19.2357 17.6613Z" fill="#75FFC5"/>
<path d="M19.2357 17.6613L12.3016 10.7273C11.8669 10.2925 11.162 10.2925 10.7272 10.7273L19.2357 19.2357C19.6705 18.8009 19.6705 18.0961 19.2357 17.6613Z" fill="#75FFC5"/>
</g>
<defs>
<clipPath id="clip0">
<rect width="38" height="38" fill="white"/>
</clipPath>
</defs>
</svg>
