<svg xmlns="http://www.w3.org/2000/svg" width="33" height="33" fill="none" viewBox="0 0 33 33"><path fill="#9FB9FF" d="M27.8123 1.57833L20.1094 9.28125L23.7188 12.8906L31.4217 5.1877C31.7718 4.83759 31.9688 4.36219 31.9688 3.86719C31.9688 3.37219 31.7718 2.89678 31.4217 2.54667L30.4528 1.57781C30.1032 1.22822 29.6278 1.03125 29.1328 1.03125C28.6378 1.03125 28.1624 1.22822 27.8123 1.57833Z"/><path fill="#9FB9FF" d="M28.875 5.15522C28.3058 5.15522 27.8438 4.69322 27.8438 4.12448C27.8438 3.55523 28.3058 3.09323 28.875 3.09323C29.4437 3.09323 29.9057 3.55523 29.9057 4.12448C29.9057 4.69322 29.4437 5.15522 28.875 5.15522Z"/><path fill="#4B70D4" d="M30.8179 1.21326C30.3672 0.763122 29.7691 0.515106 29.1318 0.515106C28.496 0.515106 27.8974 0.762606 27.4467 1.21326L18.1969 10.4625C18.1964 10.4631 18.1964 10.4636 18.1959 10.4641L16.8641 11.7959C16.6377 12.0223 16.4964 12.3023 16.4397 12.5952L7.84784 16.7532C3.39336 18.9085 0.515137 23.4986 0.515137 28.4475C0.515137 29.5257 0.934855 30.5394 1.69746 31.302C2.46007 32.0641 3.47328 32.4833 4.55145 32.4833C9.50042 32.4833 14.0905 29.6056 16.2458 25.1506L20.4028 16.5588C20.7039 16.501 20.9813 16.3561 21.203 16.1344L22.5344 14.8026C22.5349 14.802 22.5354 14.802 22.5359 14.8015L31.7857 5.55225C32.2354 5.10211 32.4834 4.50347 32.4834 3.86667C32.4834 3.22987 32.2359 2.63123 31.7857 2.18109L30.8179 1.21326ZM20.1089 10.0103L22.9886 12.8901L22.1714 13.7074L19.2911 10.8276L20.1089 10.0103ZM2.13007 30.1393C1.94754 29.7376 1.95167 29.2679 2.16875 28.858C4.71129 24.056 8.57951 20.1506 13.3552 17.5642L16.2994 15.9689L2.13007 30.1393ZM4.1405 30.8302C3.7316 31.0468 3.26187 31.0509 2.8602 30.8689L17.0296 16.6985L15.4347 19.6432C12.8479 24.4195 8.94303 28.2877 4.1405 30.8302ZM8.29746 17.6813L16.6202 13.6537C16.6872 13.7713 16.764 13.8842 16.8646 13.9843L17.193 14.3127L12.8649 16.6578C8.09792 19.239 4.2065 23.0892 1.56959 27.8123C1.80265 23.5027 4.38748 19.5731 8.29746 17.6813ZM15.3177 24.7015C13.4259 28.6105 9.49732 31.1953 5.18773 31.4289C9.91034 28.7915 13.76 24.9006 16.3412 20.1341L18.6858 15.8054L19.0147 16.1344C19.1137 16.2334 19.2266 16.3108 19.3447 16.3783L15.3177 24.7015ZM20.4734 15.4053C20.2729 15.6069 19.9449 15.6069 19.7443 15.4053L17.5937 13.2547C17.4962 13.1577 17.4426 13.0283 17.4426 12.8901C17.4426 12.7519 17.4962 12.6225 17.5937 12.525L18.5615 11.5567L21.4418 14.437L20.4734 15.4053ZM31.0561 4.82264L23.7183 12.1605L20.8385 9.28073L28.1769 1.94287C28.6873 1.43189 29.5778 1.43137 30.0883 1.94287L31.0566 2.91122C31.3119 3.16593 31.4526 3.50573 31.4526 3.86718C31.4521 4.22761 31.3119 4.5674 31.0561 4.82264V4.82264Z"/><path fill="#4B70D4" d="M28.875 3.09323C28.3058 3.09323 27.8438 3.55523 27.8438 4.12448C27.8438 4.69322 28.3058 5.15522 28.875 5.15522C29.4437 5.15522 29.9057 4.69322 29.9057 4.12448C29.9057 3.55575 29.4437 3.09323 28.875 3.09323V3.09323Z"/><path fill="#4B70D4" d="M0.515137 16.499H1.54639C1.54639 13.0876 4.322 10.312 7.73337 10.312V9.28073C3.75326 9.28073 0.515137 12.5189 0.515137 16.499V16.499Z"/><path fill="#4B70D4" d="M2.57812 16.499H3.60937C3.60937 14.2245 5.45944 12.3745 7.73386 12.3745V11.3432C4.8907 11.3432 2.57812 13.6558 2.57812 16.499V16.499Z"/><path fill="#4B70D4" d="M16.5 32.4833C20.4801 32.4833 23.7182 29.2457 23.7182 25.2656H22.687C22.687 28.677 19.9114 31.4521 16.5 31.4521V32.4833Z"/><path fill="#4B70D4" d="M20.6245 25.2651C20.6245 27.5395 18.7744 29.3896 16.5 29.3896V30.4208C19.3432 30.4208 21.6557 28.1083 21.6557 25.2651H20.6245Z"/></svg>