<svg width="56" height="56" viewBox="0 0 56 56" fill="none" xmlns="http://www.w3.org/2000/svg">
<g clip-path="url(#clip0)">
<path d="M1.01154 27.8727C1.00362 29.2196 2.08931 30.3101 3.43635 30.3084L43.6793 30.2553L43.6581 33.9137C43.6524 34.9003 44.2418 35.7887 45.1506 36.165C46.0598 36.5415 47.11 36.3314 47.8116 35.6329L53.9444 29.5276C54.9023 28.5739 54.9113 27.0296 53.9644 26.0784L47.9024 19.9892C47.9016 19.9886 47.9009 19.9879 47.9002 19.987C46.9532 19.0357 45.409 19.0378 44.451 19.9915C43.9449 20.4954 43.7036 21.1643 43.7282 21.8233L43.7076 25.3778L3.46463 25.4305C2.11749 25.4322 1.01924 26.5255 1.01154 27.8727Z" fill="#F7AF9D"/>
</g>
<defs>
<clipPath id="clip0">
<rect x="27.6775" y="55.677" width="39.23" height="39.5101" transform="rotate(-134.872 27.6775 55.677)" fill="white"/>
</clipPath>
</defs>
</svg>
