<svg width="1321" height="416" viewBox="0 0 1321 416" fill="none" xmlns="http://www.w3.org/2000/svg">
<rect width="1315" height="333" rx="53" fill="#65CCB7"/>
<path d="M721 0H1262C1291.27 0 1315 23.7289 1315 53V280C1315 309.271 1291.27 333 1262 333H721V0Z" fill="#D2FFF6"/>
<path d="M137.367 90.875L145.848 80.0078C147.828 77.4688 149.859 76.5293 151.992 76.2246V75.1836C150.951 75.2852 149.326 75.3359 147.549 75.3359C145.746 75.3359 143.562 75.2852 141.582 75.1836V76.2246C143.791 76.2754 144.807 76.9102 144.807 78.1035C144.807 79.2461 143.842 80.9219 142.141 83.0801L137.164 89.4277C135.895 91.0527 134.041 92.2461 131.223 92.3477V80.6934C131.223 76.9102 131.908 76.377 135.438 76.2246V75.1836C133.838 75.2852 131.223 75.3359 128.836 75.3359C126.145 75.3359 123.631 75.2852 122.184 75.1836V76.2246C125.713 76.377 126.398 76.9102 126.398 80.6934V106.49C126.398 110.273 125.713 110.807 122.184 110.959V112C123.631 111.898 126.145 111.848 128.836 111.848C131.223 111.848 133.838 111.898 135.438 112V110.959C131.908 110.807 131.223 110.273 131.223 106.49V93.3887C133.635 93.5156 134.6 94.0234 136.682 97.1719L144.273 108.623C144.629 109.131 144.807 109.537 144.807 109.867C144.807 110.578 144.02 110.883 142.42 110.959V112C144.959 111.848 146.584 111.848 147.777 111.848C149.479 111.848 152.348 111.898 153.998 112V110.959C151.865 110.451 150.57 109.512 149.428 107.785L137.367 90.875ZM177.104 105.348C175.301 109.232 172.584 110.553 169.461 110.553C165.475 110.553 161.514 106.389 161.514 99.2539C161.514 98.1113 161.564 96.918 161.691 95.9277H177.941C177.941 88.082 174.311 84.502 168.217 84.502C161.082 84.502 156.461 90.1133 156.461 99.2539C156.461 107.227 160.879 112.736 168.42 112.736C173.574 112.736 177.002 109.232 178.145 105.754L177.104 105.348ZM168.014 85.4922C171.492 85.4922 173.117 89.8594 172.939 94.9375H161.615C162.174 88.3867 164.916 85.4922 168.014 85.4922ZM203.408 105.348C201.605 109.232 198.889 110.553 195.766 110.553C191.779 110.553 187.818 106.389 187.818 99.2539C187.818 98.1113 187.869 96.918 187.996 95.9277H204.246C204.246 88.082 200.615 84.502 194.521 84.502C187.387 84.502 182.766 90.1133 182.766 99.2539C182.766 107.227 187.184 112.736 194.725 112.736C199.879 112.736 203.307 109.232 204.449 105.754L203.408 105.348ZM194.318 85.4922C197.797 85.4922 199.422 89.8594 199.244 94.9375H187.92C188.479 88.3867 191.221 85.4922 194.318 85.4922ZM224.787 84.502C221.105 84.502 218.033 86.5332 216.459 90.1387V84.6543C214.961 85.1621 213.082 85.3652 211.051 85.3652C210.01 85.3652 208.918 85.3145 207.826 85.2129V86.3047C210.848 86.3047 211.787 87.7773 211.787 90.9004V117.104C211.787 119.592 210.848 120.328 208.359 120.328V121.42C209.451 121.369 211.787 121.191 213.971 121.191C216.992 121.191 219.938 121.369 221.461 121.42V120.328C218.338 120.328 216.459 119.541 216.459 116.57V109.918C217.627 111.543 219.836 112.736 222.553 112.736C231.008 112.736 234.461 104.916 234.461 97.4004C234.461 89.0215 230.246 84.502 224.787 84.502ZM221.969 111.543C219.227 111.543 217.424 110.121 216.459 108.191V92.627C217.576 88.2344 220.344 86.0508 223.365 86.0508C227.326 86.0508 229.408 89.8594 229.408 98.1113C229.408 105.5 227.732 111.543 221.969 111.543ZM259.014 85.2637V76.5801C257.719 77.0625 256.043 77.2656 254.342 77.3164V85.2637H249.34V86.3047H254.342V103.723C254.342 107.43 254.85 109.461 256.373 111.01C257.516 112.152 258.912 112.736 261.299 112.736C265.514 112.736 267.342 109.613 268.053 105.551L267.037 105.297C265.945 109.359 264.422 110.857 262.34 110.857C260.258 110.857 259.014 109.715 259.014 106.439V86.3047H266.707V85.2637H259.014ZM285.242 84.502C281.611 84.502 278.793 88.1328 277.701 91.1543V84.6543C276.203 85.1621 274.324 85.3652 272.293 85.3652C271.252 85.3652 270.16 85.3145 269.068 85.2129V86.3047C272.09 86.3047 273.029 87.7773 273.029 90.9004V107.176C273.029 110.07 271.938 110.908 269.068 110.908V112C270.262 111.949 272.826 111.797 275.213 111.797C278.438 111.797 281.611 111.949 283.211 112V110.908C279.783 110.908 277.701 110.02 277.701 106.643V95.623C277.701 91.7637 280.57 85.8477 284.938 85.8477C285.395 85.8477 285.775 86 286.029 86.3555C285.09 86.9395 284.252 87.8789 284.252 89.1738C284.252 90.9004 285.572 91.8652 287.02 91.8652C288.848 91.8652 289.99 90.3672 289.99 88.5898C289.99 86.3555 288.061 84.502 285.242 84.502ZM303.676 84.502C300.35 84.502 297.861 85.4922 296.389 86.457C294.941 87.4473 293.951 88.6406 293.951 90.1641C293.951 92.043 294.992 93.3887 296.77 93.3887C298.623 93.3887 299.816 92.3477 299.816 90.5703C299.816 88.8691 298.674 87.7266 297.379 87.3965C298.572 85.8984 300.756 85.543 302.533 85.543C305.225 85.543 307.357 86.4062 307.357 90.7734V93.998C307.357 96.0801 304.615 96.9688 301.137 98.416C295.932 100.6 292.758 102.428 292.758 106.541C292.758 110.604 295.881 112.355 299.359 112.355C301.848 112.355 305.123 111.416 307.357 107.734C307.357 110.172 308.195 112.355 311.826 112.355C314.035 112.355 315.127 111.543 316.574 110.451L315.99 109.562C315.279 110.172 314.594 110.654 313.654 110.654C312.461 110.654 312.055 109.867 312.055 108.191V93.7441C312.055 90.0625 311.623 88.1328 309.973 86.457C308.779 85.2637 306.596 84.502 303.676 84.502ZM307.357 106.338C305.605 109.182 303.574 110.273 301.492 110.273C299.105 110.273 297.328 108.826 297.328 105.703C297.328 101.691 300.096 100.193 302.381 99.1016C305.656 97.502 306.799 96.9688 307.357 96.1309V106.338ZM331.123 84.502C324.014 84.502 319.012 90.418 319.012 98.9492C319.012 107.531 324.064 112.736 330.514 112.736C336.074 112.736 339.045 108.877 340.086 105.5L339.096 105.145C337.268 109.08 334.246 110.502 331.555 110.502C327.543 110.502 324.064 107.379 324.064 98.1621C324.064 88.3359 328.076 85.416 331.504 85.416C333.484 85.416 335.49 86.3555 336.176 87.5996C334.982 87.9297 333.992 88.9199 333.992 90.4688C333.992 92.1445 335.287 93.084 336.861 93.084C338.41 93.084 339.604 92.043 339.604 90.1641C339.604 88.5898 338.715 87.1934 337.166 86.1523C335.49 85.0605 333.307 84.502 331.123 84.502ZM357.123 95.3438L363.445 88.6914C364.893 87.1934 366.416 86.4062 368.117 86.2539V85.2129C367.076 85.3145 365.324 85.416 363.598 85.416C362.1 85.416 359.535 85.3145 357.732 85.2129V86.2539C359.916 86.2539 361.566 86.7617 361.566 88.0312C361.566 88.7422 361.084 89.6816 359.916 90.9004L356.057 94.8867C354.863 96.1309 353.645 96.7656 351.588 97.0449V71.2227C350.09 71.7559 348.211 71.959 346.18 71.959C345.139 71.959 344.047 71.9082 342.955 71.8066V72.8984C345.977 72.8984 346.916 74.3457 346.916 77.4688V107.176C346.916 110.07 345.824 110.908 342.955 110.908V112C344.148 111.949 346.865 111.797 349.252 111.797C351.436 111.797 353.924 111.949 355.016 112V110.908C352.527 110.908 351.588 110.07 351.588 107.176V98.1113C353.416 98.1875 354.229 98.6191 355.498 100.396L361.465 109.131C361.668 109.41 361.77 109.689 361.77 109.918C361.77 110.502 361.16 110.908 360.17 110.908V112C361.262 111.949 363.75 111.797 365.934 111.797C367.508 111.797 369.361 111.949 370.148 112V110.908C368.6 110.705 367.711 109.816 366.518 108.191L357.123 95.3438ZM134.244 153.502C127.643 153.502 122.438 157.641 122.438 167.645C122.438 177.623 127.643 181.736 134.244 181.736C140.846 181.736 146.051 177.623 146.051 167.645C146.051 157.641 140.846 153.502 134.244 153.502ZM134.244 154.543C138.205 154.543 140.998 158.326 140.998 167.645C140.998 176.938 138.205 180.695 134.244 180.695C130.309 180.695 127.49 176.938 127.49 167.645C127.49 158.326 130.309 154.543 134.244 154.543ZM162.834 140.324C160.295 140.324 158.01 141.314 156.664 142.939C154.684 145.275 153.998 148.145 153.998 154.264H149.834V155.305H153.998V176.176C153.998 179.07 152.906 179.908 150.037 179.908V181C151.256 180.949 153.795 180.797 156.182 180.797C159.406 180.797 162.58 180.949 164.18 181V179.908C160.752 179.908 158.67 179.02 158.67 175.643V155.305H164.256V154.264H158.67V152.918C158.67 147.002 158.797 144.488 159.609 143.041C160.244 141.898 161.387 141.111 162.986 141.111C164.459 141.111 165.348 141.645 165.551 142.254C164.256 142.508 163.367 143.447 163.367 144.92C163.367 146.672 164.662 147.713 166.211 147.713C167.836 147.713 168.979 146.57 168.979 144.971C168.979 143.727 168.395 142.584 167.354 141.746C166.262 140.908 164.764 140.324 162.834 140.324ZM201.732 174.348C199.93 178.232 197.213 179.553 194.09 179.553C190.104 179.553 186.143 175.389 186.143 168.254C186.143 167.111 186.193 165.918 186.32 164.928H202.57C202.57 157.082 198.939 153.502 192.846 153.502C185.711 153.502 181.09 159.113 181.09 168.254C181.09 176.227 185.508 181.736 193.049 181.736C198.203 181.736 201.631 178.232 202.773 174.754L201.732 174.348ZM192.643 154.492C196.121 154.492 197.746 158.859 197.568 163.938H186.244C186.803 157.387 189.545 154.492 192.643 154.492ZM226.133 154.365C224.508 154.365 223.568 154.314 221.766 154.213V155.254C224.406 155.432 225.6 156.117 225.6 157.742C225.6 158.377 225.422 159.189 225.041 160.154L219.303 175.186L212.904 159.367C212.523 158.402 212.346 157.666 212.346 157.082C212.346 155.305 214.047 155.305 216.027 155.305V154.213C213.945 154.365 211.406 154.416 209.273 154.416C207.496 154.416 206.049 154.314 204.703 154.213V155.305C205.439 155.305 206.582 155.508 207.725 158.225L217.297 181.254H218.16L226.691 158.91C227.682 156.244 228.773 155.406 230.068 155.254V154.213C228.977 154.314 227.732 154.365 226.133 154.365ZM252.818 174.348C251.016 178.232 248.299 179.553 245.176 179.553C241.189 179.553 237.229 175.389 237.229 168.254C237.229 167.111 237.279 165.918 237.406 164.928H253.656C253.656 157.082 250.025 153.502 243.932 153.502C236.797 153.502 232.176 159.113 232.176 168.254C232.176 176.227 236.594 181.736 244.135 181.736C249.289 181.736 252.717 178.232 253.859 174.754L252.818 174.348ZM243.729 154.492C247.207 154.492 248.832 158.859 248.654 163.938H237.33C237.889 157.387 240.631 154.492 243.729 154.492ZM273.766 153.502C270.135 153.502 267.316 157.133 266.225 160.154V153.654C264.727 154.162 262.848 154.365 260.816 154.365C259.775 154.365 258.684 154.314 257.592 154.213V155.305C260.613 155.305 261.553 156.777 261.553 159.9V176.176C261.553 179.07 260.461 179.908 257.592 179.908V181C258.785 180.949 261.35 180.797 263.736 180.797C266.961 180.797 270.135 180.949 271.734 181V179.908C268.307 179.908 266.225 179.02 266.225 175.643V164.623C266.225 160.764 269.094 154.848 273.461 154.848C273.918 154.848 274.299 155 274.553 155.355C273.613 155.939 272.775 156.879 272.775 158.174C272.775 159.9 274.096 160.865 275.543 160.865C277.371 160.865 278.514 159.367 278.514 157.59C278.514 155.355 276.584 153.502 273.766 153.502ZM300.984 154.365C299.385 154.365 298.445 154.314 296.617 154.213V155.254C299.258 155.432 300.502 156.117 300.502 157.768C300.502 158.402 300.299 159.189 299.943 160.154L294.205 175.211L287.934 159.672C287.477 158.555 287.273 157.717 287.273 157.107C287.273 155.305 288.949 155.305 290.904 155.305V154.213C288.822 154.365 286.258 154.543 284.15 154.543C282.17 154.543 280.545 154.416 279.047 154.213V155.305C279.885 155.305 281.23 155.508 282.576 158.225L292.021 180.924L290.168 185.672C289.076 188.541 287.629 189.734 285.75 189.734C285.648 189.734 285.547 189.734 285.445 189.684C286.156 189.277 286.842 188.541 286.842 187.348C286.842 185.723 285.648 184.91 284.201 184.91C282.475 184.91 281.434 186.002 281.434 187.652C281.434 189.684 282.982 190.775 284.963 190.775C286.207 190.775 287.883 190.471 289.025 189.43C289.863 188.693 290.574 187.551 291.26 185.773L293.037 181.254L301.568 158.91C302.559 156.244 303.65 155.406 304.945 155.254V154.213C303.854 154.314 302.609 154.365 300.984 154.365ZM315.33 154.264V145.58C314.035 146.062 312.359 146.266 310.658 146.316V154.264H305.656V155.305H310.658V172.723C310.658 176.43 311.166 178.461 312.689 180.01C313.832 181.152 315.229 181.736 317.615 181.736C321.83 181.736 323.658 178.613 324.369 174.551L323.354 174.297C322.262 178.359 320.738 179.857 318.656 179.857C316.574 179.857 315.33 178.715 315.33 175.439V155.305H323.023V154.264H315.33ZM333.561 140.273C332.062 140.807 330.184 141.01 328.152 141.01C327.111 141.01 326.02 140.959 324.928 140.857V141.949C327.949 141.949 328.889 143.396 328.889 146.52V176.176C328.889 179.07 327.797 179.908 324.928 179.908V181C326.121 180.949 328.889 180.797 331.174 180.797C333.459 180.797 335.896 180.949 336.988 181V179.908C334.5 179.908 333.561 179.07 333.561 176.176V164.572C333.561 159.062 336.582 155.152 340.848 155.152C344.58 155.152 345.062 157.92 345.062 161.145V176.176C345.062 179.07 344.123 179.908 341.609 179.908V181C342.701 180.949 345.164 180.797 347.449 180.797C349.734 180.797 352.477 180.949 353.695 181V179.908C350.826 179.908 349.734 179.07 349.734 176.176V162.287C349.734 158.732 349.201 156.879 347.906 155.457C346.713 154.213 345.062 153.502 342.396 153.502C338.867 153.502 335.389 155.051 333.561 159.723V140.273ZM361.896 141.213C360.068 141.213 358.57 142.736 358.57 144.539C358.57 146.367 360.068 147.865 361.896 147.865C363.699 147.865 365.223 146.367 365.223 144.539C365.223 142.736 363.699 141.213 361.896 141.213ZM364.588 153.654C363.09 154.162 361.211 154.365 359.18 154.365C358.139 154.365 357.047 154.314 355.955 154.213V155.305C358.977 155.305 359.916 156.777 359.916 159.9V176.176C359.916 179.07 358.824 179.908 355.955 179.908V181C357.148 180.949 359.865 180.797 362.252 180.797C364.639 180.797 367.355 180.949 368.549 181V179.908C365.68 179.908 364.588 179.07 364.588 176.176V153.654ZM388.684 153.502C385.129 153.502 381.65 155.102 379.822 159.773V153.654C378.324 154.162 376.445 154.365 374.414 154.365C373.373 154.365 372.281 154.314 371.189 154.213V155.305C374.211 155.305 375.15 156.777 375.15 159.9V176.176C375.15 179.07 374.059 179.908 371.189 179.908V181C372.383 180.949 375.15 180.797 377.436 180.797C379.721 180.797 382.184 180.949 383.275 181V179.908C380.762 179.908 379.822 179.07 379.822 176.176V164.623C379.822 159.316 382.742 155.152 387.109 155.152C390.867 155.152 391.324 157.92 391.324 161.145V176.176C391.324 179.07 390.385 179.908 387.896 179.908V181C388.988 180.949 391.426 180.797 393.711 180.797C395.996 180.797 398.764 180.949 399.957 181V179.908C397.088 179.908 395.996 179.07 395.996 176.176V162.287C395.996 158.732 395.488 156.879 394.193 155.457C393 154.213 391.324 153.502 388.684 153.502ZM408.463 175.287C406.686 175.287 405.975 174.703 405.975 173.561C405.975 171.961 408.006 170.691 410.342 169.447C411.484 169.777 412.779 169.93 414.176 169.93C419.635 169.93 423.799 167.416 423.799 161.703C423.799 157.768 421.818 155.355 418.797 154.238C418.924 153.375 419.152 152.664 419.33 152.08C419.762 150.836 420.219 149.998 420.727 149.541C421.057 151.572 421.615 152.816 423.494 152.816C424.941 152.816 425.982 151.725 425.982 150.328C425.982 148.805 425.043 147.611 423.24 147.611C421.717 147.611 420.523 148.297 419.686 149.338C418.898 150.379 418.213 152.004 417.857 153.959C416.74 153.654 415.496 153.502 414.176 153.502C408.717 153.502 404.578 155.99 404.578 161.703C404.578 165.588 406.482 167.975 409.402 169.117C404.451 171.352 402.902 173.459 402.902 175.693C402.902 179.172 406.279 179.654 408.107 179.654H408.285C404.984 181.152 401.76 183.463 401.76 186.002C401.76 189.176 406.965 190.775 412.221 190.775C422.301 190.775 426.77 184.732 426.77 180.111C426.77 176.48 423.951 175.287 420.676 175.287H408.463ZM414.176 154.416C417.096 154.416 418.924 156.143 418.924 161.703C418.924 167.264 417.096 168.99 414.176 168.99C411.281 168.99 409.453 167.264 409.453 161.703C409.453 156.143 411.281 154.416 414.176 154.416ZM413.617 189.887C410.139 189.887 406.025 188.439 406.025 184.91C406.025 182.98 407.27 180.822 409.555 179.654H419.229C422.402 179.654 423.189 180.645 423.189 182.549C423.189 187.551 417.984 189.887 413.617 189.887ZM141.734 223.365C140.135 223.365 139.195 223.314 137.367 223.213V224.254C140.008 224.432 141.252 225.117 141.252 226.768C141.252 227.402 141.049 228.189 140.693 229.154L134.955 244.211L128.684 228.672C128.227 227.555 128.023 226.717 128.023 226.107C128.023 224.305 129.699 224.305 131.654 224.305V223.213C129.572 223.365 127.008 223.543 124.9 223.543C122.92 223.543 121.295 223.416 119.797 223.213V224.305C120.635 224.305 121.98 224.508 123.326 227.225L132.771 249.924L130.918 254.672C129.826 257.541 128.379 258.734 126.5 258.734C126.398 258.734 126.297 258.734 126.195 258.684C126.906 258.277 127.592 257.541 127.592 256.348C127.592 254.723 126.398 253.91 124.951 253.91C123.225 253.91 122.184 255.002 122.184 256.652C122.184 258.684 123.732 259.775 125.713 259.775C126.957 259.775 128.633 259.471 129.775 258.43C130.613 257.693 131.324 256.551 132.01 254.773L133.787 250.254L142.318 227.91C143.309 225.244 144.4 224.406 145.695 224.254V223.213C144.604 223.314 143.359 223.365 141.734 223.365ZM159.99 222.502C153.389 222.502 148.184 226.641 148.184 236.645C148.184 246.623 153.389 250.736 159.99 250.736C166.592 250.736 171.797 246.623 171.797 236.645C171.797 226.641 166.592 222.502 159.99 222.502ZM159.99 223.543C163.951 223.543 166.744 227.326 166.744 236.645C166.744 245.938 163.951 249.695 159.99 249.695C156.055 249.695 153.236 245.938 153.236 236.645C153.236 227.326 156.055 223.543 159.99 223.543ZM199.346 222.654C197.848 223.162 195.969 223.365 193.938 223.365C192.896 223.365 191.805 223.314 190.713 223.213V224.305C193.734 224.305 194.674 225.777 194.674 228.9V239.641C194.674 244.947 191.703 249.061 187.641 249.061C183.908 249.061 183.705 246.318 183.705 243.094V222.654C182.182 223.162 180.328 223.365 178.297 223.365C177.256 223.365 176.164 223.314 175.072 223.213V224.305C178.094 224.305 179.008 225.777 179.008 228.9V241.951C179.008 245.227 179.439 247.359 180.734 248.756C181.928 250 183.705 250.736 186.143 250.736C189.469 250.736 192.896 249.01 194.674 244.49V250.635C196.172 250.102 198.051 249.898 200.082 249.898C201.123 249.898 202.215 249.949 203.307 250.051V248.959C200.285 248.959 199.346 247.512 199.346 244.389V222.654ZM222.121 222.502C218.49 222.502 215.672 226.133 214.58 229.154V222.654C213.082 223.162 211.203 223.365 209.172 223.365C208.131 223.365 207.039 223.314 205.947 223.213V224.305C208.969 224.305 209.908 225.777 209.908 228.9V245.176C209.908 248.07 208.816 248.908 205.947 248.908V250C207.141 249.949 209.705 249.797 212.092 249.797C215.316 249.797 218.49 249.949 220.09 250V248.908C216.662 248.908 214.58 248.02 214.58 244.643V233.623C214.58 229.764 217.449 223.848 221.816 223.848C222.273 223.848 222.654 224 222.908 224.355C221.969 224.939 221.131 225.879 221.131 227.174C221.131 228.9 222.451 229.865 223.898 229.865C225.727 229.865 226.869 228.367 226.869 226.59C226.869 224.355 224.939 222.502 222.121 222.502ZM257.541 222.502C253.859 222.502 250.787 224.533 249.213 228.139V222.654C247.715 223.162 245.836 223.365 243.805 223.365C242.764 223.365 241.672 223.314 240.58 223.213V224.305C243.602 224.305 244.541 225.777 244.541 228.9V255.104C244.541 257.592 243.602 258.328 241.113 258.328V259.42C242.205 259.369 244.541 259.191 246.725 259.191C249.746 259.191 252.691 259.369 254.215 259.42V258.328C251.092 258.328 249.213 257.541 249.213 254.57V247.918C250.381 249.543 252.59 250.736 255.307 250.736C263.762 250.736 267.215 242.916 267.215 235.4C267.215 227.021 263 222.502 257.541 222.502ZM254.723 249.543C251.98 249.543 250.178 248.121 249.213 246.191V230.627C250.33 226.234 253.098 224.051 256.119 224.051C260.08 224.051 262.162 227.859 262.162 236.111C262.162 243.5 260.486 249.543 254.723 249.543ZM279.428 209.223C277.93 209.756 276.051 209.959 274.02 209.959C272.979 209.959 271.887 209.908 270.795 209.807V210.898C273.816 210.898 274.756 212.346 274.756 215.469V245.176C274.756 248.07 273.664 248.908 270.795 248.908V250C271.988 249.949 274.705 249.797 277.092 249.797C279.479 249.797 282.195 249.949 283.389 250V248.908C280.52 248.908 279.428 248.07 279.428 245.176V209.223ZM297.48 222.502C294.154 222.502 291.666 223.492 290.193 224.457C288.746 225.447 287.756 226.641 287.756 228.164C287.756 230.043 288.797 231.389 290.574 231.389C292.428 231.389 293.621 230.348 293.621 228.57C293.621 226.869 292.479 225.727 291.184 225.396C292.377 223.898 294.561 223.543 296.338 223.543C299.029 223.543 301.162 224.406 301.162 228.773V231.998C301.162 234.08 298.42 234.969 294.941 236.416C289.736 238.6 286.562 240.428 286.562 244.541C286.562 248.604 289.686 250.355 293.164 250.355C295.652 250.355 298.928 249.416 301.162 245.734C301.162 248.172 302 250.355 305.631 250.355C307.84 250.355 308.932 249.543 310.379 248.451L309.795 247.562C309.084 248.172 308.398 248.654 307.459 248.654C306.266 248.654 305.859 247.867 305.859 246.191V231.744C305.859 228.062 305.428 226.133 303.777 224.457C302.584 223.264 300.4 222.502 297.48 222.502ZM301.162 244.338C299.41 247.182 297.379 248.273 295.297 248.273C292.91 248.273 291.133 246.826 291.133 243.703C291.133 239.691 293.9 238.193 296.186 237.102C299.461 235.502 300.604 234.969 301.162 234.131V244.338ZM329.422 222.502C325.867 222.502 322.389 224.102 320.561 228.773V222.654C319.062 223.162 317.184 223.365 315.152 223.365C314.111 223.365 313.02 223.314 311.928 223.213V224.305C314.949 224.305 315.889 225.777 315.889 228.9V245.176C315.889 248.07 314.797 248.908 311.928 248.908V250C313.121 249.949 315.889 249.797 318.174 249.797C320.459 249.797 322.922 249.949 324.014 250V248.908C321.5 248.908 320.561 248.07 320.561 245.176V233.623C320.561 228.316 323.48 224.152 327.848 224.152C331.605 224.152 332.062 226.92 332.062 230.145V245.176C332.062 248.07 331.123 248.908 328.635 248.908V250C329.727 249.949 332.164 249.797 334.449 249.797C336.734 249.797 339.502 249.949 340.695 250V248.908C337.826 248.908 336.734 248.07 336.734 245.176V231.287C336.734 227.732 336.227 225.879 334.932 224.457C333.738 223.213 332.062 222.502 329.422 222.502ZM351.385 223.264V214.58C350.09 215.062 348.414 215.266 346.713 215.316V223.264H341.711V224.305H346.713V241.723C346.713 245.43 347.221 247.461 348.744 249.01C349.887 250.152 351.283 250.736 353.67 250.736C357.885 250.736 359.713 247.613 360.424 243.551L359.408 243.297C358.316 247.359 356.793 248.857 354.711 248.857C352.629 248.857 351.385 247.715 351.385 244.439V224.305H359.078V223.264H351.385ZM390.969 222.502C387.414 222.502 383.936 224.102 382.107 228.773V222.654C380.609 223.162 378.73 223.365 376.699 223.365C375.658 223.365 374.566 223.314 373.475 223.213V224.305C376.496 224.305 377.436 225.777 377.436 228.9V245.176C377.436 248.07 376.344 248.908 373.475 248.908V250C374.668 249.949 377.436 249.797 379.721 249.797C382.006 249.797 384.469 249.949 385.561 250V248.908C383.047 248.908 382.107 248.07 382.107 245.176V233.623C382.107 228.316 385.027 224.152 389.395 224.152C393.152 224.152 393.609 226.92 393.609 230.145V245.176C393.609 248.07 392.67 248.908 390.182 248.908V250C391.273 249.949 393.711 249.797 395.996 249.797C398.281 249.797 401.049 249.949 402.242 250V248.908C399.373 248.908 398.281 248.07 398.281 245.176V231.287C398.281 227.732 397.773 225.879 396.479 224.457C395.285 223.213 393.609 222.502 390.969 222.502ZM426.084 243.348C424.281 247.232 421.564 248.553 418.441 248.553C414.455 248.553 410.494 244.389 410.494 237.254C410.494 236.111 410.545 234.918 410.672 233.928H426.922C426.922 226.082 423.291 222.502 417.197 222.502C410.062 222.502 405.441 228.113 405.441 237.254C405.441 245.227 409.859 250.736 417.4 250.736C422.555 250.736 425.982 247.232 427.125 243.754L426.084 243.348ZM416.994 223.492C420.473 223.492 422.098 227.859 421.92 232.938H410.596C411.154 226.387 413.896 223.492 416.994 223.492ZM452.389 243.348C450.586 247.232 447.869 248.553 444.746 248.553C440.76 248.553 436.799 244.389 436.799 237.254C436.799 236.111 436.85 234.918 436.977 233.928H453.227C453.227 226.082 449.596 222.502 443.502 222.502C436.367 222.502 431.746 228.113 431.746 237.254C431.746 245.227 436.164 250.736 443.705 250.736C448.859 250.736 452.287 247.232 453.43 243.754L452.389 243.348ZM443.299 223.492C446.777 223.492 448.402 227.859 448.225 232.938H436.9C437.459 226.387 440.201 223.492 443.299 223.492ZM480.826 209.223C479.328 209.756 477.449 209.959 475.418 209.959C474.377 209.959 473.285 209.908 472.193 209.807V210.898C475.215 210.898 476.154 212.346 476.154 215.469V225.574C474.809 223.365 472.371 222.502 469.908 222.502C463.662 222.502 458.102 227.174 458.152 236.645C458.102 246.09 462.266 250.736 468.766 250.736C472.371 250.736 474.885 249.061 476.154 245.963V250.584C477.652 250.051 479.531 249.848 481.562 249.848C482.604 249.848 483.695 249.898 484.787 250V248.908C481.766 248.908 480.826 247.461 480.826 244.338V209.223ZM470.264 249.162C465.643 249.162 463.154 245.049 463.205 236.645C463.154 227.859 466.227 223.695 470.34 223.695C473.031 223.695 475.139 224.889 476.154 227.707V243.17C475.342 247.105 472.879 249.162 470.264 249.162ZM496.645 222.502C492.531 222.502 488.951 224.584 488.951 229.205C488.951 233.521 492.328 235.553 496.111 237.939C499.514 240.072 502.002 241.723 502.002 244.744C502.002 248.451 499.463 249.695 497.381 249.695C492.176 249.695 490.83 245.785 490.145 239.971H488.951C488.951 245.227 488.9 248.121 488.748 250.355H489.941C490.145 249.061 490.551 248.4 491.008 248.4C491.16 248.4 491.338 248.451 491.49 248.604C492.176 249.162 492.887 249.645 493.623 250C494.867 250.508 496.238 250.736 497.736 250.736C502.459 250.736 506.623 248.223 506.623 243.449C506.623 239.184 503.449 236.898 499.514 234.359C495.959 232.049 492.836 230.602 492.836 227.479C492.836 224.889 494.664 223.492 497.102 223.492C501.799 223.492 503.551 227.529 504.186 231.389H505.379C505.379 226.92 505.43 224.457 505.582 222.553H504.389C504.211 224.102 503.83 224.838 503.221 224.838C502.967 224.838 502.662 224.686 502.307 224.406C501.367 223.645 499.387 222.502 496.645 222.502Z" fill="white"/>
<path d="M667.824 103.119C655.785 48.3906 593.583 10.7311 568 0H722L721 333C649.969 285.112 626 247.5 645.756 208.251C650.772 193.831 679.863 157.848 667.824 103.119Z" fill="#D2FFF6"/>
<g clip-path="url(#clip0)">
<path d="M1185.48 351.562H1106.36V352.509H1185.48V351.562Z" fill="black"/>
<path d="M987.728 167.326L845.172 96.7198L786.279 215.655L928.835 286.261L987.728 167.326Z" fill="#CFCCE0"/>
<path d="M981.448 147.229L838.893 76.6234L780 195.559L922.555 266.164L981.448 147.229Z" fill="#65CCB7"/>
<path d="M920.357 174.525L920.018 173.934L881.052 196.337V173.57L916.868 154.18L916.544 153.582L881.052 172.796V150.626L901.455 131.645L900.992 131.147L881.052 149.696V123.516H880.371V149.724L858.611 130.563L858.161 131.074L880.371 150.632V172.792L842.909 152.212L842.582 152.808L880.371 173.569V196.329L839.107 177.396L838.823 178.016L880.371 197.078V223.219H881.052V197.122L920.357 174.525Z" fill="#CFCCE0"/>
<path d="M887.303 225.712H887.296L887.273 225.624L886.915 224.238C887.191 224.18 887.467 224.112 887.735 224.041C883.628 222.805 879.564 223.129 876.219 223.901H876.212C875.362 224.095 874.562 224.323 873.816 224.562C874.249 224.637 874.681 224.708 875.12 224.766L874.913 225.624H874.885L873.183 231.992L878.428 231.971L888.913 231.927L887.303 225.712Z" fill="black"/>
<path d="M966.994 232.23H806.889V98.6531H966.994V232.23ZM807.726 231.392H966.157V99.4904H807.726V231.392Z" fill="black"/>
<path d="M974.743 102.816C974.743 103.051 974.736 103.282 974.716 103.51C974.613 104.924 974.196 106.296 973.495 107.528C972.795 108.76 971.828 109.82 970.666 110.631C969.504 111.442 968.176 111.984 966.778 112.217C965.38 112.449 963.948 112.367 962.586 111.977C961.224 111.586 959.966 110.896 958.904 109.958C957.843 109.02 957.003 107.856 956.448 106.552C955.892 105.249 955.635 103.837 955.694 102.421C955.752 101.005 956.126 99.6205 956.788 98.3673C956.993 97.9746 957.227 97.598 957.489 97.2407C958.629 95.66 960.225 94.4669 962.064 93.8222C963.903 93.1775 965.895 93.1123 967.772 93.6354C969.649 94.1585 971.32 95.2447 972.561 96.7475C973.801 98.2503 974.551 100.097 974.709 102.04C974.733 102.295 974.743 102.554 974.743 102.816Z" fill="#CFCCE0"/>
<path d="M977.779 98.2345C977.779 98.4694 977.772 98.7008 977.752 98.9288C977.649 100.342 977.232 101.715 976.531 102.947C975.83 104.179 974.864 105.239 973.702 106.05C972.54 106.861 971.212 107.403 969.814 107.635C968.416 107.868 966.984 107.786 965.622 107.395C964.26 107.005 963.002 106.315 961.94 105.377C960.878 104.438 960.039 103.275 959.484 101.971C958.928 100.667 958.67 99.2561 958.729 97.8402C958.788 96.4242 959.162 95.0392 959.824 93.786C960.029 93.3933 960.263 93.0167 960.525 92.6595C961.664 91.0788 963.261 89.8856 965.1 89.2409C966.939 88.5963 968.931 88.5311 970.808 89.0541C972.685 89.5772 974.356 90.6634 975.597 92.1662C976.837 93.6691 977.587 95.5162 977.745 97.4585C977.769 97.7137 977.779 97.9724 977.779 98.2345Z" fill="#65CCB7"/>
<path d="M977.779 98.2345C977.779 98.4694 977.772 98.7008 977.752 98.9288L963.486 97.2134L977.745 97.4585C977.769 97.7138 977.779 97.9724 977.779 98.2345Z" fill="black"/>
<path d="M974.376 103.037L961.178 104.626C960.804 104.209 960.467 103.759 960.171 103.282L974.376 103.037Z" fill="black"/>
<path d="M970.632 92.4858L959.824 93.786C960.029 93.3933 960.263 93.0167 960.525 92.6594L970.632 92.4858Z" fill="black"/>
<path d="M939.899 237.938C943.283 237.938 946.025 235.195 946.025 231.811C946.025 228.428 943.283 225.685 939.899 225.685C936.516 225.685 933.774 228.428 933.774 231.811C933.774 235.195 936.516 237.938 939.899 237.938Z" fill="black"/>
<path d="M887.039 105.879C890.422 105.879 893.165 103.136 893.165 99.7526C893.165 96.3691 890.422 93.6262 887.039 93.6262C883.656 93.6262 880.913 96.3691 880.913 99.7526C880.913 103.136 883.656 105.879 887.039 105.879Z" fill="black"/>
<path d="M807.405 147.384C810.788 147.384 813.531 144.641 813.531 141.258C813.531 137.874 810.788 135.131 807.405 135.131C804.022 135.131 801.279 137.874 801.279 141.258C801.279 144.641 804.022 147.384 807.405 147.384Z" fill="#FF6584"/>
<path d="M1160.59 335.761H1141.52V354.835H1160.59V335.761Z" fill="#CFCCE0"/>
<path d="M1158.08 352.325H1138.01V332.247H1158.08V352.325ZM1139.01 351.321H1157.08V333.251H1139.01L1139.01 351.321Z" fill="black"/>
<path d="M1084.09 81.1223C1076.13 67.6773 1060.39 67.0507 1060.39 67.0507C1060.39 67.0507 1045.05 65.089 1035.21 85.5659C1026.04 104.652 1013.39 123.08 1033.18 127.548L1036.75 116.42L1038.96 128.376C1041.78 128.579 1044.61 128.627 1047.43 128.521C1068.63 127.837 1088.81 128.721 1088.16 121.115C1087.3 111.004 1091.74 94.059 1084.09 81.1223Z" fill="black"/>
<path d="M1042.83 208.933L1036.55 202.956L1023.68 186.404L1014.34 190.793L1029.5 210.312L1036.07 218.999L1036.09 219.048C1036.09 219.048 1046.82 231.921 1054.17 226.404C1061.53 220.887 1042.83 208.933 1042.83 208.933Z" fill="#FFB9B9"/>
<path d="M1097.08 188.396L1090.8 182.419L1083.75 189.776L1090.32 198.463L1090.34 198.511C1090.34 198.511 1101.06 211.385 1108.42 205.868C1115.77 200.35 1097.08 188.396 1097.08 188.396Z" fill="#FFB9B9"/>
<path d="M1084.05 174.143L1095.09 184.259L1088.04 188.243L1077.92 175.983L1084.05 174.143Z" fill="#CFCCE0"/>
<path d="M1084.67 126.634C1084.67 126.634 1088.96 122.955 1090.8 134.91C1092.63 146.864 1087.73 151.155 1087.73 151.155L1084.67 126.634Z" fill="#CFCCE0"/>
<path d="M1059.23 113.454C1068.2 113.454 1075.47 106.18 1075.47 97.2082C1075.47 88.2362 1068.2 80.963 1059.23 80.963C1050.26 80.963 1042.98 88.2362 1042.98 97.2082C1042.98 106.18 1050.26 113.454 1059.23 113.454Z" fill="#FFB9B9"/>
<path d="M1049.42 106.404C1049.42 106.404 1047.28 116.825 1038.69 118.051C1030.11 119.277 1016.63 123.569 1018.47 131.844C1020.31 140.12 1071.79 139.201 1071.79 139.201L1080.99 125.101C1080.99 125.101 1061.99 120.197 1063.83 109.162L1049.42 106.404Z" fill="#FFB9B9"/>
<path d="M1074.71 122.802C1074.71 122.802 1062.6 131.844 1034.1 131.231C1034.1 131.231 1017.99 133.827 1020.37 125.479C1020.37 125.479 1018.47 122.649 1016.63 131.538C1014.79 140.427 1001 170.772 1002.22 171.998L1006.82 176.596L1016.93 196.212L1027.66 190.082L1023.98 182.113C1023.98 182.113 1031.03 187.937 1034.4 179.354C1034.4 179.354 1037.16 187.63 1042.98 187.937C1048.81 188.243 1086.5 177.515 1086.5 177.515C1086.5 177.515 1084.36 168.933 1086.5 165.254C1088.65 161.576 1092.02 154.22 1090.49 148.703L1087.73 126.634C1087.73 126.634 1076.24 121.883 1074.71 122.802Z" fill="#65CCB7"/>
<path d="M1043.44 187.477L1044.52 196.212C1044.52 196.212 1034.71 203.569 1036.24 229.929L1005.59 357.746C1005.59 357.746 1011.42 365.409 1026.74 364.796C1042.07 364.182 1071.79 242.19 1071.79 242.19C1071.79 242.19 1063.52 361.73 1073.63 364.796C1083.75 367.861 1098.15 366.328 1098.15 366.328L1107.65 206.327C1107.65 206.327 1098.15 190.389 1092.63 187.324C1087.12 184.258 1084.97 176.596 1084.97 176.596L1043.44 187.477Z" fill="black"/>
<path d="M1007.13 356.213L1005.59 367.554C1005.59 367.554 991.496 397.899 1004.37 396.979C1017.24 396.06 1017.55 377.362 1017.55 377.362L1020 361.424L1007.13 356.213Z" fill="#2F2E41"/>
<path d="M1087.42 356.213L1088.96 367.554C1088.96 367.554 1103.05 397.899 1090.18 396.979C1077.31 396.06 1077 377.362 1077 377.362L1074.55 361.424L1087.42 356.213Z" fill="#2F2E41"/>
<path d="M1080.57 80.4391L1065.02 72.2925L1043.54 75.6252L1039.1 95.2515L1050.16 94.8261L1053.25 87.6157V94.7072L1058.36 94.5108L1061.32 83.0311L1063.17 95.2515L1081.31 94.881L1080.57 80.4391Z" fill="black"/>
<path d="M1164.73 226.726C1155.62 226.922 1148.37 233.526 1148.37 233.526C1148.37 233.526 1155.9 239.813 1165.01 239.617C1174.12 239.422 1181.37 232.818 1181.37 232.818C1181.37 232.818 1173.85 226.531 1164.73 226.726Z" fill="#65CCB7"/>
<path d="M1210.54 195.62C1202.31 199.531 1192.87 196.879 1192.87 196.879C1192.87 196.879 1196.78 187.885 1205.01 183.973C1213.24 180.062 1222.68 182.714 1222.68 182.714C1222.68 182.714 1218.77 191.708 1210.54 195.62Z" fill="#65CCB7"/>
<path d="M1209.71 191.733C1200.63 190.903 1192.69 196.651 1192.69 196.651C1192.69 196.651 1199.46 203.743 1208.53 204.573C1217.61 205.403 1225.55 199.655 1225.55 199.655C1225.55 199.655 1218.78 192.562 1209.71 191.733Z" fill="black"/>
<path d="M1176.44 193.304C1177.31 202.378 1171.59 210.348 1171.59 210.348C1171.59 210.348 1164.47 203.608 1163.6 194.535C1162.73 185.462 1168.44 177.491 1168.44 177.491C1168.44 177.491 1175.57 184.231 1176.44 193.304Z" fill="black"/>
<path d="M1133.69 248.951C1138.45 256.723 1136.81 266.392 1136.81 266.392C1136.81 266.392 1127.46 263.458 1122.7 255.685C1117.94 247.913 1119.58 238.244 1119.58 238.244C1119.58 238.244 1128.93 241.178 1133.69 248.951Z" fill="black"/>
<path d="M1147.5 333.46L1146.81 332.991C1149.25 329.442 1150.59 325.246 1150.65 320.936C1150.63 314.632 1147.53 308.801 1144.54 303.162C1143.98 302.115 1143.43 301.072 1142.89 300.029C1140.66 295.778 1138.87 291.302 1137.57 286.677C1132.93 269.415 1137.5 249.049 1149.81 232.197C1159.57 218.83 1174.12 207.14 1194.29 196.461L1194.68 197.201C1174.62 207.819 1160.17 219.428 1150.48 232.691C1138.33 249.339 1133.8 269.44 1138.38 286.459C1139.67 291.028 1141.43 295.449 1143.64 299.648C1144.17 300.687 1144.72 301.726 1145.27 302.769C1148.32 308.498 1151.46 314.422 1151.48 320.934C1151.43 325.412 1150.04 329.772 1147.5 333.46V333.46Z" fill="black"/>
<path d="M1234.05 197.561C1238.44 197.561 1242 194 1242 189.606C1242 185.213 1238.44 181.652 1234.05 181.652C1229.65 181.652 1226.09 185.213 1226.09 189.606C1226.09 194 1229.65 197.561 1234.05 197.561Z" fill="black"/>
</g>
<rect x="701" y="333" width="620" height="83" fill="white"/>
<defs>
<clipPath id="clip0">
<rect x="780" y="67" width="462" height="330" fill="white"/>
</clipPath>
</defs>
</svg>
