<svg width="1321" height="371" viewBox="0 0 1321 371" fill="none" xmlns="http://www.w3.org/2000/svg">
<rect width="1315" height="333" rx="53" fill="#7F95D1"/>
<path d="M721 0H1262C1291.27 0 1315 23.7289 1315 53V280C1315 309.271 1291.27 333 1262 333H721V0Z" fill="#FFC0BE"/>
<path d="M135.438 75.1836C133.838 75.2852 131.223 75.3359 128.836 75.3359C126.145 75.3359 123.631 75.2852 122.184 75.1836V76.2246C125.713 76.377 126.398 76.9102 126.398 80.6934V106.49C126.398 110.273 125.713 110.807 122.184 110.959V112C127.287 111.848 134.143 111.848 137.266 111.848C140.744 111.848 145.645 111.848 149.174 112C148.92 109.359 148.818 106.643 148.818 105.348C148.818 103.672 148.869 102.174 148.971 101.082H147.777C147.041 108.318 145.746 110.807 139.246 110.807H135.438C131.908 110.807 131.223 110.273 131.223 106.49V80.6934C131.223 76.9102 131.908 76.377 135.438 76.2246V75.1836ZM173.6 105.348C171.797 109.232 169.08 110.553 165.957 110.553C161.971 110.553 158.01 106.389 158.01 99.2539C158.01 98.1113 158.061 96.918 158.188 95.9277H174.438C174.438 88.082 170.807 84.502 164.713 84.502C157.578 84.502 152.957 90.1133 152.957 99.2539C152.957 107.227 157.375 112.736 164.916 112.736C170.07 112.736 173.498 109.232 174.641 105.754L173.6 105.348ZM164.51 85.4922C167.988 85.4922 169.613 89.8594 169.436 94.9375H158.111C158.67 88.3867 161.412 85.4922 164.51 85.4922ZM186.752 85.2637V76.5801C185.457 77.0625 183.781 77.2656 182.08 77.3164V85.2637H177.078V86.3047H182.08V103.723C182.08 107.43 182.588 109.461 184.111 111.01C185.254 112.152 186.65 112.736 189.037 112.736C193.252 112.736 195.08 109.613 195.791 105.551L194.775 105.297C193.684 109.359 192.16 110.857 190.078 110.857C187.996 110.857 186.752 109.715 186.752 106.439V86.3047H194.445V85.2637H186.752ZM201.453 74.4727C199.625 74.4727 198.127 75.8691 198.127 77.7988C198.127 79.8809 199.625 81.125 201.453 81.125C202.189 81.125 202.85 80.8457 203.383 80.4395C203.484 80.7441 203.535 81.0742 203.535 81.5312C203.535 83.5625 201.707 85.7461 199.574 86.6348L200.057 87.5742C203.738 85.8477 205.414 82.9277 205.414 79.5508C205.414 78.7129 205.262 77.2656 204.525 76.123C203.891 75.1328 202.951 74.4727 201.453 74.4727ZM218.109 84.502C213.996 84.502 210.416 86.584 210.416 91.2051C210.416 95.5215 213.793 97.5527 217.576 99.9395C220.979 102.072 223.467 103.723 223.467 106.744C223.467 110.451 220.928 111.695 218.846 111.695C213.641 111.695 212.295 107.785 211.609 101.971H210.416C210.416 107.227 210.365 110.121 210.213 112.355H211.406C211.609 111.061 212.016 110.4 212.473 110.4C212.625 110.4 212.803 110.451 212.955 110.604C213.641 111.162 214.352 111.645 215.088 112C216.332 112.508 217.703 112.736 219.201 112.736C223.924 112.736 228.088 110.223 228.088 105.449C228.088 101.184 224.914 98.8984 220.979 96.3594C217.424 94.0488 214.301 92.6016 214.301 89.4785C214.301 86.8887 216.129 85.4922 218.566 85.4922C223.264 85.4922 225.016 89.5293 225.65 93.3887H226.844C226.844 88.9199 226.895 86.457 227.047 84.5527H225.854C225.676 86.1016 225.295 86.8379 224.686 86.8379C224.432 86.8379 224.127 86.6855 223.771 86.4062C222.832 85.6445 220.852 84.502 218.109 84.502ZM251.193 106.287C249.416 106.287 248.705 105.703 248.705 104.561C248.705 102.961 250.736 101.691 253.072 100.447C254.215 100.777 255.51 100.93 256.906 100.93C262.365 100.93 266.529 98.416 266.529 92.7031C266.529 88.7676 264.549 86.3555 261.527 85.2383C261.654 84.375 261.883 83.6641 262.061 83.0801C262.492 81.8359 262.949 80.998 263.457 80.541C263.787 82.5723 264.346 83.8164 266.225 83.8164C267.672 83.8164 268.713 82.7246 268.713 81.3281C268.713 79.8047 267.773 78.6113 265.971 78.6113C264.447 78.6113 263.254 79.2969 262.416 80.3379C261.629 81.3789 260.943 83.0039 260.588 84.959C259.471 84.6543 258.227 84.502 256.906 84.502C251.447 84.502 247.309 86.9902 247.309 92.7031C247.309 96.5879 249.213 98.9746 252.133 100.117C247.182 102.352 245.633 104.459 245.633 106.693C245.633 110.172 249.01 110.654 250.838 110.654H251.016C247.715 112.152 244.49 114.463 244.49 117.002C244.49 120.176 249.695 121.775 254.951 121.775C265.031 121.775 269.5 115.732 269.5 111.111C269.5 107.48 266.682 106.287 263.406 106.287H251.193ZM256.906 85.416C259.826 85.416 261.654 87.1426 261.654 92.7031C261.654 98.2637 259.826 99.9902 256.906 99.9902C254.012 99.9902 252.184 98.2637 252.184 92.7031C252.184 87.1426 254.012 85.416 256.906 85.416ZM256.348 120.887C252.869 120.887 248.756 119.439 248.756 115.91C248.756 113.98 250 111.822 252.285 110.654H261.959C265.133 110.654 265.92 111.645 265.92 113.549C265.92 118.551 260.715 120.887 256.348 120.887ZM293.494 105.348C291.691 109.232 288.975 110.553 285.852 110.553C281.865 110.553 277.904 106.389 277.904 99.2539C277.904 98.1113 277.955 96.918 278.082 95.9277H294.332C294.332 88.082 290.701 84.502 284.607 84.502C277.473 84.502 272.852 90.1133 272.852 99.2539C272.852 107.227 277.27 112.736 284.811 112.736C289.965 112.736 293.393 109.232 294.535 105.754L293.494 105.348ZM284.404 85.4922C287.883 85.4922 289.508 89.8594 289.33 94.9375H278.006C278.564 88.3867 281.307 85.4922 284.404 85.4922ZM306.646 85.2637V76.5801C305.352 77.0625 303.676 77.2656 301.975 77.3164V85.2637H296.973V86.3047H301.975V103.723C301.975 107.43 302.482 109.461 304.006 111.01C305.148 112.152 306.545 112.736 308.932 112.736C313.146 112.736 314.975 109.613 315.686 105.551L314.67 105.297C313.578 109.359 312.055 110.857 309.973 110.857C307.891 110.857 306.646 109.715 306.646 106.439V86.3047H314.34V85.2637H306.646ZM347.602 85.3652C346.002 85.3652 345.062 85.3145 343.234 85.2129V86.2539C345.875 86.4316 347.119 87.1172 347.119 88.7676C347.119 89.4023 346.916 90.1895 346.561 91.1543L340.822 106.211L334.551 90.6719C334.094 89.5547 333.891 88.7168 333.891 88.1074C333.891 86.3047 335.566 86.3047 337.521 86.3047V85.2129C335.439 85.3652 332.875 85.543 330.768 85.543C328.787 85.543 327.162 85.416 325.664 85.2129V86.3047C326.502 86.3047 327.848 86.5078 329.193 89.2246L338.639 111.924L336.785 116.672C335.693 119.541 334.246 120.734 332.367 120.734C332.266 120.734 332.164 120.734 332.062 120.684C332.773 120.277 333.459 119.541 333.459 118.348C333.459 116.723 332.266 115.91 330.818 115.91C329.092 115.91 328.051 117.002 328.051 118.652C328.051 120.684 329.6 121.775 331.58 121.775C332.824 121.775 334.5 121.471 335.643 120.43C336.48 119.693 337.191 118.551 337.877 116.773L339.654 112.254L348.186 89.9102C349.176 87.2441 350.268 86.4062 351.562 86.2539V85.2129C350.471 85.3145 349.227 85.3652 347.602 85.3652ZM365.857 84.502C359.256 84.502 354.051 88.6406 354.051 98.6445C354.051 108.623 359.256 112.736 365.857 112.736C372.459 112.736 377.664 108.623 377.664 98.6445C377.664 88.6406 372.459 84.502 365.857 84.502ZM365.857 85.543C369.818 85.543 372.611 89.3262 372.611 98.6445C372.611 107.938 369.818 111.695 365.857 111.695C361.922 111.695 359.104 107.938 359.104 98.6445C359.104 89.3262 361.922 85.543 365.857 85.543ZM405.213 84.6543C403.715 85.1621 401.836 85.3652 399.805 85.3652C398.764 85.3652 397.672 85.3145 396.58 85.2129V86.3047C399.602 86.3047 400.541 87.7773 400.541 90.9004V101.641C400.541 106.947 397.57 111.061 393.508 111.061C389.775 111.061 389.572 108.318 389.572 105.094V84.6543C388.049 85.1621 386.195 85.3652 384.164 85.3652C383.123 85.3652 382.031 85.3145 380.939 85.2129V86.3047C383.961 86.3047 384.875 87.7773 384.875 90.9004V103.951C384.875 107.227 385.307 109.359 386.602 110.756C387.795 112 389.572 112.736 392.01 112.736C395.336 112.736 398.764 111.01 400.541 106.49V112.635C402.039 112.102 403.918 111.898 405.949 111.898C406.99 111.898 408.082 111.949 409.174 112.051V110.959C406.152 110.959 405.213 109.512 405.213 106.389V84.6543ZM134.498 153.502C127.389 153.502 122.387 159.418 122.387 167.949C122.387 176.531 127.439 181.736 133.889 181.736C139.449 181.736 142.42 177.877 143.461 174.5L142.471 174.145C140.643 178.08 137.621 179.502 134.93 179.502C130.918 179.502 127.439 176.379 127.439 167.162C127.439 157.336 131.451 154.416 134.879 154.416C136.859 154.416 138.865 155.355 139.551 156.6C138.357 156.93 137.367 157.92 137.367 159.469C137.367 161.145 138.662 162.084 140.236 162.084C141.785 162.084 142.979 161.043 142.979 159.164C142.979 157.59 142.09 156.193 140.541 155.152C138.865 154.061 136.682 153.502 134.498 153.502ZM159.533 153.502C152.932 153.502 147.727 157.641 147.727 167.645C147.727 177.623 152.932 181.736 159.533 181.736C166.135 181.736 171.34 177.623 171.34 167.645C171.34 157.641 166.135 153.502 159.533 153.502ZM159.533 154.543C163.494 154.543 166.287 158.326 166.287 167.645C166.287 176.938 163.494 180.695 159.533 180.695C155.598 180.695 152.779 176.938 152.779 167.645C152.779 158.326 155.598 154.543 159.533 154.543ZM188.021 153.502C181.42 153.502 176.215 157.641 176.215 167.645C176.215 177.623 181.42 181.736 188.021 181.736C194.623 181.736 199.828 177.623 199.828 167.645C199.828 157.641 194.623 153.502 188.021 153.502ZM188.021 154.543C191.982 154.543 194.775 158.326 194.775 167.645C194.775 176.938 191.982 180.695 188.021 180.695C184.086 180.695 181.268 176.938 181.268 167.645C181.268 158.326 184.086 154.543 188.021 154.543ZM216.967 164.344L223.289 157.691C224.736 156.193 226.26 155.406 227.961 155.254V154.213C226.92 154.314 225.168 154.416 223.441 154.416C221.943 154.416 219.379 154.314 217.576 154.213V155.254C219.76 155.254 221.41 155.762 221.41 157.031C221.41 157.742 220.928 158.682 219.76 159.9L215.9 163.887C214.707 165.131 213.488 165.766 211.432 166.045V140.223C209.934 140.756 208.055 140.959 206.023 140.959C204.982 140.959 203.891 140.908 202.799 140.807V141.898C205.82 141.898 206.76 143.346 206.76 146.469V176.176C206.76 179.07 205.668 179.908 202.799 179.908V181C203.992 180.949 206.709 180.797 209.096 180.797C211.279 180.797 213.768 180.949 214.859 181V179.908C212.371 179.908 211.432 179.07 211.432 176.176V167.111C213.26 167.188 214.072 167.619 215.342 169.396L221.309 178.131C221.512 178.41 221.613 178.689 221.613 178.918C221.613 179.502 221.004 179.908 220.014 179.908V181C221.105 180.949 223.594 180.797 225.777 180.797C227.352 180.797 229.205 180.949 229.992 181V179.908C228.443 179.705 227.555 178.816 226.361 177.191L216.967 164.344ZM237.787 141.213C235.959 141.213 234.461 142.736 234.461 144.539C234.461 146.367 235.959 147.865 237.787 147.865C239.59 147.865 241.113 146.367 241.113 144.539C241.113 142.736 239.59 141.213 237.787 141.213ZM240.479 153.654C238.98 154.162 237.102 154.365 235.07 154.365C234.029 154.365 232.938 154.314 231.846 154.213V155.305C234.867 155.305 235.807 156.777 235.807 159.9V176.176C235.807 179.07 234.715 179.908 231.846 179.908V181C233.039 180.949 235.756 180.797 238.143 180.797C240.529 180.797 243.246 180.949 244.439 181V179.908C241.57 179.908 240.479 179.07 240.479 176.176V153.654ZM264.574 153.502C261.02 153.502 257.541 155.102 255.713 159.773V153.654C254.215 154.162 252.336 154.365 250.305 154.365C249.264 154.365 248.172 154.314 247.08 154.213V155.305C250.102 155.305 251.041 156.777 251.041 159.9V176.176C251.041 179.07 249.949 179.908 247.08 179.908V181C248.273 180.949 251.041 180.797 253.326 180.797C255.611 180.797 258.074 180.949 259.166 181V179.908C256.652 179.908 255.713 179.07 255.713 176.176V164.623C255.713 159.316 258.633 155.152 263 155.152C266.758 155.152 267.215 157.92 267.215 161.145V176.176C267.215 179.07 266.275 179.908 263.787 179.908V181C264.879 180.949 267.316 180.797 269.602 180.797C271.887 180.797 274.654 180.949 275.848 181V179.908C272.979 179.908 271.887 179.07 271.887 176.176V162.287C271.887 158.732 271.379 156.879 270.084 155.457C268.891 154.213 267.215 153.502 264.574 153.502ZM284.354 175.287C282.576 175.287 281.865 174.703 281.865 173.561C281.865 171.961 283.896 170.691 286.232 169.447C287.375 169.777 288.67 169.93 290.066 169.93C295.525 169.93 299.689 167.416 299.689 161.703C299.689 157.768 297.709 155.355 294.688 154.238C294.814 153.375 295.043 152.664 295.221 152.08C295.652 150.836 296.109 149.998 296.617 149.541C296.947 151.572 297.506 152.816 299.385 152.816C300.832 152.816 301.873 151.725 301.873 150.328C301.873 148.805 300.934 147.611 299.131 147.611C297.607 147.611 296.414 148.297 295.576 149.338C294.789 150.379 294.104 152.004 293.748 153.959C292.631 153.654 291.387 153.502 290.066 153.502C284.607 153.502 280.469 155.99 280.469 161.703C280.469 165.588 282.373 167.975 285.293 169.117C280.342 171.352 278.793 173.459 278.793 175.693C278.793 179.172 282.17 179.654 283.998 179.654H284.176C280.875 181.152 277.65 183.463 277.65 186.002C277.65 189.176 282.855 190.775 288.111 190.775C298.191 190.775 302.66 184.732 302.66 180.111C302.66 176.48 299.842 175.287 296.566 175.287H284.354ZM290.066 154.416C292.986 154.416 294.814 156.143 294.814 161.703C294.814 167.264 292.986 168.99 290.066 168.99C287.172 168.99 285.344 167.264 285.344 161.703C285.344 156.143 287.172 154.416 290.066 154.416ZM289.508 189.887C286.029 189.887 281.916 188.439 281.916 184.91C281.916 182.98 283.16 180.822 285.445 179.654H295.119C298.293 179.654 299.08 180.645 299.08 182.549C299.08 187.551 293.875 189.887 289.508 189.887ZM327.34 153.502C323.227 153.502 319.646 155.584 319.646 160.205C319.646 164.521 323.023 166.553 326.807 168.939C330.209 171.072 332.697 172.723 332.697 175.744C332.697 179.451 330.158 180.695 328.076 180.695C322.871 180.695 321.525 176.785 320.84 170.971H319.646C319.646 176.227 319.596 179.121 319.443 181.355H320.637C320.84 180.061 321.246 179.4 321.703 179.4C321.855 179.4 322.033 179.451 322.186 179.604C322.871 180.162 323.582 180.645 324.318 181C325.562 181.508 326.934 181.736 328.432 181.736C333.154 181.736 337.318 179.223 337.318 174.449C337.318 170.184 334.145 167.898 330.209 165.359C326.654 163.049 323.531 161.602 323.531 158.479C323.531 155.889 325.359 154.492 327.797 154.492C332.494 154.492 334.246 158.529 334.881 162.389H336.074C336.074 157.92 336.125 155.457 336.277 153.553H335.084C334.906 155.102 334.525 155.838 333.916 155.838C333.662 155.838 333.357 155.686 333.002 155.406C332.062 154.645 330.082 153.502 327.34 153.502ZM354.025 153.502C347.424 153.502 342.219 157.641 342.219 167.645C342.219 177.623 347.424 181.736 354.025 181.736C360.627 181.736 365.832 177.623 365.832 167.645C365.832 157.641 360.627 153.502 354.025 153.502ZM354.025 154.543C357.986 154.543 360.779 158.326 360.779 167.645C360.779 176.938 357.986 180.695 354.025 180.695C350.09 180.695 347.271 176.938 347.271 167.645C347.271 158.326 350.09 154.543 354.025 154.543ZM409.707 162.287C409.707 159.012 409.301 156.879 408.006 155.457C406.812 154.213 405.035 153.502 402.598 153.502C399.297 153.502 395.793 154.924 393.939 159.646C393.736 157.793 393.254 156.447 392.34 155.457C391.146 154.213 389.369 153.502 386.932 153.502C383.605 153.502 380.178 155.254 378.4 159.773V153.654C376.902 154.162 375.023 154.365 372.992 154.365C371.951 154.365 370.859 154.314 369.768 154.213V155.305C372.789 155.305 373.729 156.777 373.729 159.9V176.176C373.729 179.07 372.637 179.908 369.768 179.908V181C370.961 180.949 373.729 180.797 376.014 180.797C378.299 180.797 380.762 180.949 381.854 181V179.908C379.34 179.908 378.4 179.07 378.4 176.176V164.623C378.4 159.316 381.371 155.152 385.434 155.152C389.166 155.152 389.369 157.92 389.369 161.145V176.176C389.369 179.07 388.455 179.908 385.941 179.908V181C387.033 180.949 389.496 180.797 391.781 180.797C394.066 180.797 396.809 180.949 398.002 181V179.908C395.158 179.908 394.066 179.07 394.066 176.176V164.572C394.066 159.266 397.037 155.152 401.074 155.152C404.832 155.152 405.035 157.92 405.035 161.145V176.176C405.035 179.07 404.096 179.908 401.607 179.908V181C402.699 180.949 405.137 180.797 407.422 180.797C409.707 180.797 412.475 180.949 413.668 181V179.908C410.799 179.908 409.707 179.07 409.707 176.176V162.287ZM437.51 174.348C435.707 178.232 432.99 179.553 429.867 179.553C425.881 179.553 421.92 175.389 421.92 168.254C421.92 167.111 421.971 165.918 422.098 164.928H438.348C438.348 157.082 434.717 153.502 428.623 153.502C421.488 153.502 416.867 159.113 416.867 168.254C416.867 176.227 421.285 181.736 428.826 181.736C433.98 181.736 437.408 178.232 438.551 174.754L437.51 174.348ZM428.42 154.492C431.898 154.492 433.523 158.859 433.346 163.938H422.021C422.58 157.387 425.322 154.492 428.42 154.492ZM450.662 154.264V145.58C449.367 146.062 447.691 146.266 445.99 146.316V154.264H440.988V155.305H445.99V172.723C445.99 176.43 446.498 178.461 448.021 180.01C449.164 181.152 450.561 181.736 452.947 181.736C457.162 181.736 458.99 178.613 459.701 174.551L458.686 174.297C457.594 178.359 456.07 179.857 453.988 179.857C451.906 179.857 450.662 178.715 450.662 175.439V155.305H458.355V154.264H450.662ZM468.893 140.273C467.395 140.807 465.516 141.01 463.484 141.01C462.443 141.01 461.352 140.959 460.26 140.857V141.949C463.281 141.949 464.221 143.396 464.221 146.52V176.176C464.221 179.07 463.129 179.908 460.26 179.908V181C461.453 180.949 464.221 180.797 466.506 180.797C468.791 180.797 471.229 180.949 472.32 181V179.908C469.832 179.908 468.893 179.07 468.893 176.176V164.572C468.893 159.062 471.914 155.152 476.18 155.152C479.912 155.152 480.395 157.92 480.395 161.145V176.176C480.395 179.07 479.455 179.908 476.941 179.908V181C478.033 180.949 480.496 180.797 482.781 180.797C485.066 180.797 487.809 180.949 489.027 181V179.908C486.158 179.908 485.066 179.07 485.066 176.176V162.287C485.066 158.732 484.533 156.879 483.238 155.457C482.045 154.213 480.395 153.502 477.729 153.502C474.199 153.502 470.721 155.051 468.893 159.723V140.273ZM497.229 141.213C495.4 141.213 493.902 142.736 493.902 144.539C493.902 146.367 495.4 147.865 497.229 147.865C499.031 147.865 500.555 146.367 500.555 144.539C500.555 142.736 499.031 141.213 497.229 141.213ZM499.92 153.654C498.422 154.162 496.543 154.365 494.512 154.365C493.471 154.365 492.379 154.314 491.287 154.213V155.305C494.309 155.305 495.248 156.777 495.248 159.9V176.176C495.248 179.07 494.156 179.908 491.287 179.908V181C492.48 180.949 495.197 180.797 497.584 180.797C499.971 180.797 502.688 180.949 503.881 181V179.908C501.012 179.908 499.92 179.07 499.92 176.176V153.654ZM524.016 153.502C520.461 153.502 516.982 155.102 515.154 159.773V153.654C513.656 154.162 511.777 154.365 509.746 154.365C508.705 154.365 507.613 154.314 506.521 154.213V155.305C509.543 155.305 510.482 156.777 510.482 159.9V176.176C510.482 179.07 509.391 179.908 506.521 179.908V181C507.715 180.949 510.482 180.797 512.768 180.797C515.053 180.797 517.516 180.949 518.607 181V179.908C516.094 179.908 515.154 179.07 515.154 176.176V164.623C515.154 159.316 518.074 155.152 522.441 155.152C526.199 155.152 526.656 157.92 526.656 161.145V176.176C526.656 179.07 525.717 179.908 523.229 179.908V181C524.32 180.949 526.758 180.797 529.043 180.797C531.328 180.797 534.096 180.949 535.289 181V179.908C532.42 179.908 531.328 179.07 531.328 176.176V162.287C531.328 158.732 530.82 156.879 529.525 155.457C528.332 154.213 526.656 153.502 524.016 153.502ZM543.795 175.287C542.018 175.287 541.307 174.703 541.307 173.561C541.307 171.961 543.338 170.691 545.674 169.447C546.816 169.777 548.111 169.93 549.508 169.93C554.967 169.93 559.131 167.416 559.131 161.703C559.131 157.768 557.15 155.355 554.129 154.238C554.256 153.375 554.484 152.664 554.662 152.08C555.094 150.836 555.551 149.998 556.059 149.541C556.389 151.572 556.947 152.816 558.826 152.816C560.273 152.816 561.314 151.725 561.314 150.328C561.314 148.805 560.375 147.611 558.572 147.611C557.049 147.611 555.855 148.297 555.018 149.338C554.23 150.379 553.545 152.004 553.189 153.959C552.072 153.654 550.828 153.502 549.508 153.502C544.049 153.502 539.91 155.99 539.91 161.703C539.91 165.588 541.814 167.975 544.734 169.117C539.783 171.352 538.234 173.459 538.234 175.693C538.234 179.172 541.611 179.654 543.439 179.654H543.617C540.316 181.152 537.092 183.463 537.092 186.002C537.092 189.176 542.297 190.775 547.553 190.775C557.633 190.775 562.102 184.732 562.102 180.111C562.102 176.48 559.283 175.287 556.008 175.287H543.795ZM549.508 154.416C552.428 154.416 554.256 156.143 554.256 161.703C554.256 167.264 552.428 168.99 549.508 168.99C546.613 168.99 544.785 167.264 544.785 161.703C544.785 156.143 546.613 154.416 549.508 154.416ZM548.949 189.887C545.471 189.887 541.357 188.439 541.357 184.91C541.357 182.98 542.602 180.822 544.887 179.654H554.561C557.734 179.654 558.521 180.645 558.521 182.549C558.521 187.551 553.316 189.887 548.949 189.887ZM145.162 209.223C143.664 209.756 141.785 209.959 139.754 209.959C138.713 209.959 137.621 209.908 136.529 209.807V210.898C139.551 210.898 140.49 212.346 140.49 215.469V225.574C139.145 223.365 136.707 222.502 134.244 222.502C127.998 222.502 122.438 227.174 122.488 236.645C122.438 246.09 126.602 250.736 133.102 250.736C136.707 250.736 139.221 249.061 140.49 245.963V250.584C141.988 250.051 143.867 249.848 145.898 249.848C146.939 249.848 148.031 249.898 149.123 250V248.908C146.102 248.908 145.162 247.461 145.162 244.338V209.223ZM134.6 249.162C129.979 249.162 127.49 245.049 127.541 236.645C127.49 227.859 130.562 223.695 134.676 223.695C137.367 223.695 139.475 224.889 140.49 227.707V243.17C139.678 247.105 137.215 249.162 134.6 249.162ZM173.244 243.348C171.441 247.232 168.725 248.553 165.602 248.553C161.615 248.553 157.654 244.389 157.654 237.254C157.654 236.111 157.705 234.918 157.832 233.928H174.082C174.082 226.082 170.451 222.502 164.357 222.502C157.223 222.502 152.602 228.113 152.602 237.254C152.602 245.227 157.02 250.736 164.561 250.736C169.715 250.736 173.143 247.232 174.285 243.754L173.244 243.348ZM164.154 223.492C167.633 223.492 169.258 227.859 169.08 232.938H157.756C158.314 226.387 161.057 223.492 164.154 223.492ZM186.295 209.223C184.797 209.756 182.918 209.959 180.887 209.959C179.846 209.959 178.754 209.908 177.662 209.807V210.898C180.684 210.898 181.623 212.346 181.623 215.469V245.176C181.623 248.07 180.531 248.908 177.662 248.908V250C178.855 249.949 181.572 249.797 183.959 249.797C186.346 249.797 189.062 249.949 190.256 250V248.908C187.387 248.908 186.295 248.07 186.295 245.176V209.223ZM198.838 210.213C197.01 210.213 195.512 211.736 195.512 213.539C195.512 215.367 197.01 216.865 198.838 216.865C200.641 216.865 202.164 215.367 202.164 213.539C202.164 211.736 200.641 210.213 198.838 210.213ZM201.529 222.654C200.031 223.162 198.152 223.365 196.121 223.365C195.08 223.365 193.988 223.314 192.896 223.213V224.305C195.918 224.305 196.857 225.777 196.857 228.9V245.176C196.857 248.07 195.766 248.908 192.896 248.908V250C194.09 249.949 196.807 249.797 199.193 249.797C201.58 249.797 204.297 249.949 205.49 250V248.908C202.621 248.908 201.529 248.07 201.529 245.176V222.654ZM221.131 222.502C214.021 222.502 209.02 228.418 209.02 236.949C209.02 245.531 214.072 250.736 220.521 250.736C226.082 250.736 229.053 246.877 230.094 243.5L229.104 243.145C227.275 247.08 224.254 248.502 221.562 248.502C217.551 248.502 214.072 245.379 214.072 236.162C214.072 226.336 218.084 223.416 221.512 223.416C223.492 223.416 225.498 224.355 226.184 225.6C224.99 225.93 224 226.92 224 228.469C224 230.145 225.295 231.084 226.869 231.084C228.418 231.084 229.611 230.043 229.611 228.164C229.611 226.59 228.723 225.193 227.174 224.152C225.498 223.061 223.314 222.502 221.131 222.502ZM239.361 210.213C237.533 210.213 236.035 211.736 236.035 213.539C236.035 215.367 237.533 216.865 239.361 216.865C241.164 216.865 242.688 215.367 242.688 213.539C242.688 211.736 241.164 210.213 239.361 210.213ZM242.053 222.654C240.555 223.162 238.676 223.365 236.645 223.365C235.604 223.365 234.512 223.314 233.42 223.213V224.305C236.441 224.305 237.381 225.777 237.381 228.9V245.176C237.381 248.07 236.289 248.908 233.42 248.908V250C234.613 249.949 237.33 249.797 239.717 249.797C242.104 249.797 244.82 249.949 246.014 250V248.908C243.145 248.908 242.053 248.07 242.053 245.176V222.654ZM261.4 222.502C254.799 222.502 249.594 226.641 249.594 236.645C249.594 246.623 254.799 250.736 261.4 250.736C268.002 250.736 273.207 246.623 273.207 236.645C273.207 226.641 268.002 222.502 261.4 222.502ZM261.4 223.543C265.361 223.543 268.154 227.326 268.154 236.645C268.154 245.938 265.361 249.695 261.4 249.695C257.465 249.695 254.646 245.938 254.646 236.645C254.646 227.326 257.465 223.543 261.4 223.543ZM300.756 222.654C299.258 223.162 297.379 223.365 295.348 223.365C294.307 223.365 293.215 223.314 292.123 223.213V224.305C295.145 224.305 296.084 225.777 296.084 228.9V239.641C296.084 244.947 293.113 249.061 289.051 249.061C285.318 249.061 285.115 246.318 285.115 243.094V222.654C283.592 223.162 281.738 223.365 279.707 223.365C278.666 223.365 277.574 223.314 276.482 223.213V224.305C279.504 224.305 280.418 225.777 280.418 228.9V241.951C280.418 245.227 280.85 247.359 282.145 248.756C283.338 250 285.115 250.736 287.553 250.736C290.879 250.736 294.307 249.01 296.084 244.49V250.635C297.582 250.102 299.461 249.898 301.492 249.898C302.533 249.898 303.625 249.949 304.717 250.051V248.959C301.695 248.959 300.756 247.512 300.756 244.389V222.654ZM316.625 222.502C312.512 222.502 308.932 224.584 308.932 229.205C308.932 233.521 312.309 235.553 316.092 237.939C319.494 240.072 321.982 241.723 321.982 244.744C321.982 248.451 319.443 249.695 317.361 249.695C312.156 249.695 310.811 245.785 310.125 239.971H308.932C308.932 245.227 308.881 248.121 308.729 250.355H309.922C310.125 249.061 310.531 248.4 310.988 248.4C311.141 248.4 311.318 248.451 311.471 248.604C312.156 249.162 312.867 249.645 313.604 250C314.848 250.508 316.219 250.736 317.717 250.736C322.439 250.736 326.604 248.223 326.604 243.449C326.604 239.184 323.43 236.898 319.494 234.359C315.939 232.049 312.816 230.602 312.816 227.479C312.816 224.889 314.645 223.492 317.082 223.492C321.779 223.492 323.531 227.529 324.166 231.389H325.359C325.359 226.92 325.41 224.457 325.562 222.553H324.369C324.191 224.102 323.811 224.838 323.201 224.838C322.947 224.838 322.643 224.686 322.287 224.406C321.348 223.645 319.367 222.502 316.625 222.502Z" fill="white"/>
<path d="M667.824 103.119C655.785 48.3906 593.583 10.7311 568 0H722L721 333C649.969 285.112 626 247.5 645.756 208.251C650.772 193.831 679.863 157.848 667.824 103.119Z" fill="#FFC0BE"/>
<path d="M930.055 145.327L917.357 153.646L1049.6 355.059L1062.3 346.739L930.055 145.327Z" fill="#E6E6E6"/>
<path d="M899.824 69.53L929.203 114.276C929.772 115.142 929.973 116.199 929.762 117.214C929.551 118.228 928.945 119.117 928.078 119.686C927.21 120.254 926.152 120.455 925.137 120.244C924.121 120.033 923.231 119.428 922.662 118.561L888.887 67.1208C884.303 66.7384 879.695 67.4943 875.474 69.3214L912.273 125.368C912.841 126.235 913.042 127.291 912.831 128.306C912.62 129.32 912.014 130.209 911.146 130.777C910.279 131.345 909.221 131.546 908.206 131.336C907.191 131.125 906.3 130.52 905.731 129.654L868.932 73.6071C865.573 76.7466 863.043 80.6673 861.567 85.02L895.342 136.461C895.911 137.327 896.111 138.384 895.9 139.398C895.689 140.412 895.083 141.301 894.216 141.87C893.349 142.438 892.291 142.639 891.275 142.428C890.26 142.217 889.37 141.613 888.801 140.746L859.422 96.0006C858.667 108.477 862.739 123.264 871.664 136.857C888.25 162.119 915.305 173.681 932.094 162.681C948.882 151.682 949.046 122.287 932.46 97.0248C923.536 83.4325 911.58 73.8096 899.824 69.53Z" fill="#E6E6E6"/>
<path d="M986.988 117.773H971.802V358.642H986.988V117.773Z" fill="#E6E6E6"/>
<path d="M979.165 133.402C999.242 133.402 1015.52 108.912 1015.52 78.701C1015.52 48.4905 999.242 24 979.165 24C959.088 24 942.812 48.4905 942.812 78.701C942.812 108.912 959.088 133.402 979.165 133.402Z" fill="#E6E6E6"/>
<path d="M979.165 123.708C995.684 123.708 1009.08 103.558 1009.08 78.701C1009.08 53.8442 995.684 33.6938 979.165 33.6938C962.646 33.6938 949.254 53.8442 949.254 78.701C949.254 103.558 962.646 123.708 979.165 123.708Z" fill="#CCCCCC"/>
<path d="M1021.5 371C1114.01 371 1189 366.702 1189 361.4C1189 356.097 1114.01 351.799 1021.5 351.799C928.992 351.799 854 356.097 854 361.4C854 366.702 928.992 371 1021.5 371Z" fill="#E6E6E6"/>
<path d="M1120.56 361.259C1057.79 349.956 993.497 349.956 930.724 361.259C929.727 361.439 928.702 361.399 927.723 361.14C926.743 360.882 925.832 360.412 925.053 359.764C924.275 359.115 923.649 358.304 923.219 357.388C922.789 356.471 922.566 355.471 922.564 354.459V268.546H1128.72V354.459C1128.72 355.471 1128.49 356.471 1128.06 357.388C1127.63 358.304 1127.01 359.115 1126.23 359.764C1125.45 360.412 1124.54 360.882 1123.56 361.14C1122.58 361.399 1121.56 361.439 1120.56 361.259Z" fill="#7F95D1"/>
<path d="M1109.85 205.111C1105.09 205.107 1100.36 205.897 1095.86 207.449C1089.3 193.23 1078.82 181.176 1065.64 172.702C1052.46 164.227 1037.13 159.684 1021.46 159.604C1005.78 159.525 990.411 163.914 977.146 172.255C963.881 180.596 953.273 192.544 946.567 206.695C939.964 204.845 933.012 204.607 926.297 206.001C919.582 207.396 913.301 210.382 907.983 214.708C902.665 219.034 898.466 224.573 895.739 230.859C893.012 237.145 891.837 243.994 892.313 250.828C892.79 257.663 894.904 264.283 898.477 270.131C902.05 275.978 906.977 280.883 912.844 284.431C918.711 287.979 925.346 290.066 932.189 290.517C939.033 290.968 945.884 289.77 952.167 287.023C959.719 298.518 970.033 307.94 982.168 314.428C994.303 320.916 1007.87 324.263 1021.64 324.164C1035.4 324.065 1048.92 320.523 1060.96 313.861C1073 307.2 1083.18 297.631 1090.56 286.029C1096.33 288.938 1102.69 290.505 1109.15 290.61C1115.61 290.716 1122.01 289.358 1127.87 286.639C1133.74 283.92 1138.91 279.91 1142.99 274.909C1147.08 269.909 1149.99 264.049 1151.48 257.768C1152.98 251.487 1153.03 244.949 1151.64 238.645C1150.25 232.34 1147.44 226.433 1143.44 221.366C1139.43 216.299 1134.33 212.205 1128.51 209.389C1122.69 206.574 1116.31 205.111 1109.85 205.111Z" fill="#7F95D1"/>
<path d="M939.131 241.885H938.21C938.179 229.645 940.891 217.553 946.147 206.497L946.979 206.89C941.781 217.824 939.099 229.781 939.131 241.885Z" fill="#3F3D56"/>
<path d="M1103.87 241.885H1102.95C1102.98 230.06 1100.42 218.372 1095.45 207.639L1096.29 207.254C1101.31 218.107 1103.9 229.927 1103.87 241.885Z" fill="#3F3D56"/>
<path d="M922.676 308.524L922.454 307.631C922.713 307.567 948.869 301.15 987.199 297.966C1022.58 295.028 1075.87 294.319 1128.83 307.632L1128.61 308.523C1075.77 295.244 1022.6 295.949 987.295 298.881C949.033 302.058 922.935 308.46 922.676 308.524Z" fill="#3F3D56"/>
<path d="M922.676 320.935L922.454 320.043C922.713 319.978 948.869 313.561 987.199 310.377C1022.58 307.439 1075.87 306.73 1128.83 320.043L1128.61 320.934C1075.77 307.655 1022.6 308.361 987.295 311.292C949.033 314.469 922.935 320.871 922.676 320.935Z" fill="#3F3D56"/>
<path d="M922.676 333.346L922.454 332.454C922.713 332.39 948.869 325.973 987.199 322.788C1022.58 319.85 1075.87 319.141 1128.83 332.454L1128.61 333.346C1075.77 320.066 1022.6 320.773 987.295 323.703C949.033 326.88 922.935 333.282 922.676 333.346Z" fill="#3F3D56"/>
<path d="M1092.03 265.859L1080.88 262.072L1091.58 207.496L1084.22 206.828C1077.05 212.328 1067.49 214.484 1055.23 212.842L1074.86 242.47L1064.85 249.525L1032.93 211.278C1031.49 209.554 1030.7 207.381 1030.7 205.136C1030.7 203.055 1031.38 201.031 1032.63 199.368C1033.89 197.706 1035.65 196.495 1037.65 195.919L1071.74 186.111L1111.65 190.566C1117.69 199.757 1117.92 206.149 1108.74 207.993L1092.03 265.859Z" fill="#2F2E41"/>
<path d="M1080.62 287.091C1079.46 287.018 1078.34 286.674 1077.35 286.088C1076.35 285.502 1075.51 284.69 1074.89 283.718C1074.27 282.746 1073.89 281.641 1073.77 280.493C1073.66 279.345 1073.82 278.186 1074.24 277.111L1079.78 262.872C1082.59 257.544 1086.46 258.211 1091.02 262.872L1093.25 269.406C1093.44 269.945 1093.51 270.514 1093.47 271.081C1093.42 271.648 1093.27 272.2 1093.01 272.705L1087.6 283.14C1086.95 284.405 1085.94 285.452 1084.7 286.153C1083.46 286.855 1082.04 287.181 1080.62 287.091Z" fill="#2F2E41"/>
<path d="M1066.21 268.445C1065.05 268.372 1063.93 268.029 1062.94 267.443C1061.94 266.857 1061.1 266.045 1060.48 265.072C1059.86 264.1 1059.48 262.995 1059.36 261.847C1059.25 260.699 1059.41 259.54 1059.83 258.465L1065.37 244.227C1068.18 238.898 1072.05 239.565 1076.61 244.227L1078.84 250.761C1079.03 251.299 1079.1 251.868 1079.06 252.435C1079.01 253.002 1078.86 253.555 1078.6 254.059L1073.19 264.494C1072.54 265.759 1071.53 266.806 1070.29 267.508C1069.05 268.209 1067.63 268.535 1066.21 268.445Z" fill="#2F2E41"/>
<path d="M1073.3 133.985C1080.19 133.985 1085.78 128.4 1085.78 121.511C1085.78 114.621 1080.19 109.036 1073.3 109.036C1066.4 109.036 1060.81 114.621 1060.81 121.511C1060.81 128.4 1066.4 133.985 1073.3 133.985Z" fill="#FFB9B9"/>
<path d="M1092.7 139.109L1075.53 148.019L1071.96 131.98L1083.78 124.629L1092.7 139.109Z" fill="#FFB9B9"/>
<path d="M1113.44 192.794C1096.3 187.624 1080.76 184.946 1069.51 189.007C1073.38 178.109 1066.23 161.467 1058.36 144.455C1061.75 140.021 1067.17 138.303 1073.3 137.549C1080 142.415 1084.68 139.292 1088.24 131.758C1095.99 131.447 1103.47 134.19 1110.76 138.886C1105.06 157.129 1106.08 175.092 1113.44 192.794Z" fill="#3F3D56"/>
<path d="M1069.28 191.68C1066.58 193.273 1064.08 195.957 1061.7 199.254C1057.68 196.795 1054.14 193.996 1051.35 190.666C1049.4 188.305 1048.07 185.495 1047.48 182.491C1046.89 179.486 1047.06 176.383 1047.98 173.461L1055.6 148.721C1056.23 146.666 1057.46 144.845 1059.13 143.489L1060.14 142.673L1070.17 161.608L1060.14 180.319C1061.41 183.728 1065.16 187.664 1069.28 191.68Z" fill="#3F3D56"/>
<path d="M1072.74 210.543C1071.83 210.957 1070.83 211.155 1069.83 211.119C1068.83 211.083 1067.86 210.816 1066.98 210.338C1066.1 209.86 1065.35 209.185 1064.77 208.365C1064.2 207.545 1063.83 206.604 1063.69 205.616L1062.03 194.274L1067.83 191.155L1075.18 200.778C1075.77 201.546 1076.18 202.437 1076.37 203.385C1076.57 204.332 1076.55 205.311 1076.31 206.249C1076.08 207.188 1075.64 208.061 1075.02 208.804C1074.4 209.548 1073.62 210.142 1072.74 210.543Z" fill="#FFB9B9"/>
<path d="M1085.9 120.965L1083.76 121.028L1077.85 112.659C1070.27 113.441 1064.06 116.73 1058.8 121.769L1058.27 118.22C1057.76 114.836 1058.57 111.386 1060.53 108.58C1062.49 105.774 1065.46 103.825 1068.81 103.134H1068.81C1070.57 102.771 1072.39 102.767 1074.15 103.121C1075.92 103.475 1077.59 104.181 1079.08 105.196C1080.56 106.211 1081.83 107.514 1082.8 109.028C1083.77 110.543 1084.42 112.236 1084.72 114.009L1085.9 120.965Z" fill="#2F2E41"/>
<path d="M1061.92 199.259C1061.5 198.35 1061.3 197.357 1061.34 196.359C1061.37 195.361 1061.64 194.384 1062.12 193.507C1062.6 192.63 1063.28 191.877 1064.1 191.306C1064.92 190.735 1065.86 190.363 1066.85 190.218L1078.2 188.562L1081.32 194.353L1071.69 201.704C1070.92 202.291 1070.03 202.697 1069.08 202.893C1068.13 203.088 1067.15 203.068 1066.21 202.833C1065.27 202.598 1064.4 202.155 1063.66 201.536C1062.91 200.917 1062.32 200.139 1061.92 199.259Z" fill="#FFB9B9"/>
<path d="M1115.6 188.941C1104.8 189.779 1093 193.144 1080.65 197.917C1080.5 194.256 1079.17 190.741 1076.86 187.893C1088.08 184.943 1098.25 181.48 1104.52 176.087L1100.72 147.574L1108.98 138.218L1110.4 138.959C1111.58 139.573 1112.62 140.428 1113.45 141.469C1114.28 142.509 1114.88 143.713 1115.22 145.001C1118.7 158.538 1120.25 171.508 1119.18 183.714C1119.32 184.871 1119.03 186.039 1118.37 187C1117.72 187.961 1116.73 188.651 1115.6 188.941Z" fill="#3F3D56"/>
<path d="M898.123 358.693C888.077 364.97 878.03 364.967 867.984 358.685C867.666 358.489 867.407 358.211 867.237 357.879C867.067 357.547 866.99 357.174 867.017 356.802L870.152 316.093H895.507L899.088 356.788C899.119 357.163 899.046 357.54 898.875 357.877C898.705 358.213 898.445 358.495 898.123 358.693Z" fill="#3F3D56"/>
<path d="M882.713 321.159C889.779 321.159 895.507 319.097 895.507 316.553C895.507 314.01 889.779 311.948 882.713 311.948C875.646 311.948 869.918 314.01 869.918 316.553C869.918 319.097 875.646 321.159 882.713 321.159Z" fill="#3F3D56"/>
<path d="M892.741 314.999C886.074 319.684 879.62 319.684 873.379 314.999V307.631H892.741V314.999Z" fill="#7F95D1"/>
<path d="M883.06 311.315C888.407 311.315 892.741 309.665 892.741 307.631C892.741 305.596 888.407 303.947 883.06 303.947C877.713 303.947 873.379 305.596 873.379 307.631C873.379 309.665 877.713 311.315 883.06 311.315Z" fill="#7F95D1"/>
<path d="M883.521 307.631C884.03 307.631 884.443 307.425 884.443 307.17C884.443 306.916 884.03 306.71 883.521 306.71C883.012 306.71 882.599 306.916 882.599 307.17C882.599 307.425 883.012 307.631 883.521 307.631Z" fill="#E6E6E6"/>
<path d="M887.875 307.631C888.384 307.631 888.797 307.425 888.797 307.17C888.797 306.916 888.384 306.71 887.875 306.71C887.365 306.71 886.953 306.916 886.953 307.17C886.953 307.425 887.365 307.631 887.875 307.631Z" fill="#E6E6E6"/>
<path d="M885.698 308.718C886.207 308.718 886.62 308.512 886.62 308.257C886.62 308.003 886.207 307.797 885.698 307.797C885.188 307.797 884.776 308.003 884.776 308.257C884.776 308.512 885.188 308.718 885.698 308.718Z" fill="#E6E6E6"/>
<path d="M876.99 308.718C877.5 308.718 877.912 308.512 877.912 308.257C877.912 308.003 877.5 307.797 876.99 307.797C876.481 307.797 876.068 308.003 876.068 308.257C876.068 308.512 876.481 308.718 876.99 308.718Z" fill="#E6E6E6"/>
<path d="M879.167 307.631C879.677 307.631 880.089 307.425 880.089 307.17C880.089 306.916 879.677 306.71 879.167 306.71C878.658 306.71 878.245 306.916 878.245 307.17C878.245 307.425 878.658 307.631 879.167 307.631Z" fill="#E6E6E6"/>
<path d="M881.344 309.262C881.853 309.262 882.266 309.055 882.266 308.801C882.266 308.547 881.853 308.341 881.344 308.341C880.835 308.341 880.422 308.547 880.422 308.801C880.422 309.055 880.835 309.262 881.344 309.262Z" fill="#E6E6E6"/>
<path d="M1176.52 358.693C1166.48 364.97 1156.43 364.967 1146.38 358.685C1146.07 358.489 1145.81 358.211 1145.64 357.879C1145.47 357.547 1145.39 357.174 1145.42 356.802L1148.55 316.093H1173.91L1177.49 356.788C1177.52 357.163 1177.45 357.54 1177.27 357.877C1177.1 358.213 1176.84 358.495 1176.52 358.693Z" fill="#3F3D56"/>
<path d="M1161.11 321.159C1168.18 321.159 1173.91 319.097 1173.91 316.553C1173.91 314.01 1168.18 311.948 1161.11 311.948C1154.05 311.948 1148.32 314.01 1148.32 316.553C1148.32 319.097 1154.05 321.159 1161.11 321.159Z" fill="#3F3D56"/>
<path d="M1171.14 314.999C1164.47 319.684 1158.02 319.684 1151.78 314.999V307.631H1171.14V314.999Z" fill="#7F95D1"/>
<path d="M1161.46 311.315C1166.81 311.315 1171.14 309.665 1171.14 307.631C1171.14 305.596 1166.81 303.947 1161.46 303.947C1156.11 303.947 1151.78 305.596 1151.78 307.631C1151.78 309.665 1156.11 311.315 1161.46 311.315Z" fill="#7F95D1"/>
<path d="M1161.92 307.631C1162.43 307.631 1162.84 307.425 1162.84 307.17C1162.84 306.916 1162.43 306.71 1161.92 306.71C1161.41 306.71 1161 306.916 1161 307.17C1161 307.425 1161.41 307.631 1161.92 307.631Z" fill="#E6E6E6"/>
<path d="M1166.27 307.631C1166.78 307.631 1167.2 307.425 1167.2 307.17C1167.2 306.916 1166.78 306.71 1166.27 306.71C1165.77 306.71 1165.35 306.916 1165.35 307.17C1165.35 307.425 1165.77 307.631 1166.27 307.631Z" fill="#E6E6E6"/>
<path d="M1164.1 308.718C1164.61 308.718 1165.02 308.512 1165.02 308.257C1165.02 308.003 1164.61 307.797 1164.1 307.797C1163.59 307.797 1163.18 308.003 1163.18 308.257C1163.18 308.512 1163.59 308.718 1164.1 308.718Z" fill="#E6E6E6"/>
<path d="M1155.39 308.718C1155.9 308.718 1156.31 308.512 1156.31 308.257C1156.31 308.003 1155.9 307.797 1155.39 307.797C1154.88 307.797 1154.47 308.003 1154.47 308.257C1154.47 308.512 1154.88 308.718 1155.39 308.718Z" fill="#E6E6E6"/>
<path d="M1157.57 307.631C1158.08 307.631 1158.49 307.425 1158.49 307.17C1158.49 306.916 1158.08 306.71 1157.57 306.71C1157.06 306.71 1156.65 306.916 1156.65 307.17C1156.65 307.425 1157.06 307.631 1157.57 307.631Z" fill="#E6E6E6"/>
<path d="M1159.74 309.262C1160.25 309.262 1160.67 309.055 1160.67 308.801C1160.67 308.547 1160.25 308.341 1159.74 308.341C1159.23 308.341 1158.82 308.547 1158.82 308.801C1158.82 309.055 1159.23 309.262 1159.74 309.262Z" fill="#E6E6E6"/>
<rect x="701" y="333" width="620" height="38" fill="#FFF5F5"/>
</svg>
