<svg width="51" height="51" viewBox="0 0 51 51" fill="none" xmlns="http://www.w3.org/2000/svg">
<path d="M27.8512 36.8842C26.3298 38.2586 24.7307 39.7108 23.0624 41.2581C22.7323 41.5695 22.2168 41.5695 21.8868 41.2581C8.87746 29.2169 0 22.7685 0 13.0958C0 5.99034 4.58136 0 11.2373 0C19.0256 0 22.4746 7.52898 22.4746 7.52898C22.4746 7.52898 25.9236 0 33.7119 0C40.3678 0 44.9492 5.99034 44.9492 13.0958C44.9492 17.1844 43.3587 20.6939 40.5407 24.2985L27.8512 36.8842Z" fill="#FF5364"/>
<path d="M50.1357 27.6351V34.3947C50.1357 41.0939 45.9001 47.1707 39.2528 50.0664C39.0261 50.1615 38.7707 50.1615 38.544 50.0664C32.9642 47.7844 28.9332 42.8148 27.8513 36.8842C27.7269 36.0602 27.6633 35.2281 27.6611 34.3947V27.6351C27.6603 27.1772 28.0166 26.7981 28.4737 26.7707C30.4359 26.6669 35.4754 25.889 38.3711 23.5291C38.678 23.2784 39.1189 23.2784 39.4257 23.5291C39.7785 23.812 40.1511 24.0691 40.5408 24.2985C43.2586 25.7391 46.253 26.582 49.3232 26.7707C49.7802 26.7981 50.1365 27.1772 50.1357 27.6351Z" fill="#4FB96F"/>
<path d="M36.3051 42.356C36.0754 42.3565 35.8549 42.265 35.6931 42.1018L33.0999 39.5086C32.8755 39.2912 32.7859 38.9697 32.8654 38.6676C32.945 38.3655 33.1813 38.1299 33.4836 38.0512C33.7859 37.9725 34.1072 38.0631 34.3239 38.2881L36.2109 40.1776L43.3933 30.6C43.6797 30.2181 44.2215 30.1407 44.6034 30.4271C44.9854 30.7136 45.0628 31.2554 44.7763 31.6373L36.9967 42.0102C36.8466 42.2117 36.6162 42.3379 36.3656 42.356C36.3458 42.356 36.325 42.356 36.3051 42.356Z" fill="white"/>
<path d="M38.8981 51C38.6605 51.0004 38.4253 50.9528 38.2066 50.8599C32.3515 48.4649 28.1243 43.2464 26.9969 37.0217C26.8656 36.1521 26.7985 35.2741 26.7964 34.3947V27.6351C26.7948 26.7184 27.509 25.9599 28.4241 25.9063C30.1097 25.8198 35.08 25.0954 37.8245 22.8566C38.4508 22.3436 39.3526 22.3454 39.9769 22.861C40.2934 23.1154 40.6279 23.3465 40.9779 23.5525C43.5773 24.9221 46.4378 25.7247 49.3704 25.9071C50.2862 25.9599 51.0013 26.7186 50.9998 27.6359V34.3956C50.9998 41.38 46.5239 47.8432 39.5983 50.8599C39.3765 50.9528 39.1385 51.0004 38.8981 51V51ZM38.886 24.2034C35.9254 26.6384 30.8081 27.5123 28.52 27.6342L28.5252 34.3947C28.5272 35.1853 28.5876 35.9746 28.7059 36.7563C29.7422 42.3922 33.5812 47.1104 38.8886 49.2712C45.2031 46.531 49.271 40.6911 49.271 34.3947V27.6333C46.0613 27.4417 42.9312 26.557 40.0962 25.0401C39.6728 24.7904 39.2678 24.5108 38.8843 24.2034H38.886Z" fill="#EBEFF0"/>
<path d="M22.4281 24.353C21.7201 24.3566 21.0827 23.9246 20.8238 23.2655L17.2019 14.2083L15.7091 17.1957C15.4182 17.7842 14.8174 18.1555 14.1609 18.1526H5.18667C4.70927 18.1526 4.32227 17.7656 4.32227 17.2882C4.32227 16.8108 4.70927 16.4237 5.18667 16.4237H14.1609L15.6538 13.4364C15.958 12.8268 16.5919 12.4528 17.2726 12.4812C17.9532 12.5096 18.5538 12.935 18.8063 13.5677L22.429 22.6259L25.215 14.8246C25.4534 14.1452 26.0907 13.687 26.8107 13.6775C27.5275 13.6699 28.1765 14.1005 28.4479 14.7641L30.4101 19.6696L31.8554 17.2614C32.169 16.7426 32.7307 16.425 33.3369 16.4237H39.7629C40.2403 16.4237 40.6274 16.8108 40.6274 17.2882C40.6274 17.7656 40.2403 18.1526 39.7629 18.1526H33.3369L31.8968 20.5591C31.5591 21.1228 30.9309 21.4463 30.2759 21.3939C29.6208 21.3415 29.0521 20.9221 28.8083 20.3119L26.847 15.4055L24.0567 23.2059C23.8185 23.8855 23.181 24.3437 22.461 24.353H22.4281Z" fill="#F2D45B"/>
<path d="M3.60022 12.1017C3.55622 12.1017 3.51229 12.0982 3.46883 12.0913C2.9973 12.019 2.6735 11.5784 2.74532 11.1068C3.39536 6.86859 6.27297 2.59323 11.2373 2.59323C11.7147 2.59323 12.1017 2.98024 12.1017 3.45764C12.1017 3.93504 11.7147 4.32204 11.2373 4.32204C7.0276 4.32204 4.95215 8.11852 4.45339 11.3678C4.38899 11.7894 4.02672 12.1011 3.60022 12.1017Z" fill="white"/>
</svg>
