<svg width="167" height="69" viewBox="0 0 167 69" fill="none" xmlns="http://www.w3.org/2000/svg">
<path d="M58.6045 26.9419C60.4242 27.4497 61.9688 28.0316 63.2383 28.6875C64.529 29.3434 65.6081 30.0311 66.4756 30.7505C67.3643 31.4487 68.0625 32.1681 68.5703 32.9087C69.0781 33.6493 69.4696 34.3581 69.7446 35.0352C70.0197 35.7122 70.189 36.347 70.2524 36.9395C70.3371 37.5107 70.3794 37.9974 70.3794 38.3994C70.3794 39.8805 70.0938 41.203 69.5225 42.3667C68.9723 43.5304 68.2212 44.5566 67.269 45.4453C66.3169 46.334 65.2061 47.0851 63.9365 47.6987C62.6882 48.3123 61.3763 48.8096 60.001 49.1904C58.6257 49.5924 57.2186 49.8781 55.7798 50.0474C54.341 50.2378 52.9762 50.333 51.6855 50.333C49.5908 50.333 47.422 50.1214 45.1792 49.6982C42.9575 49.2751 40.7041 48.5874 38.4189 47.6353C37.9111 47.4237 37.6572 47.0534 37.6572 46.5244C37.6572 46.1647 37.7842 45.8791 38.0381 45.6675C38.292 45.4347 38.5671 45.3184 38.8633 45.3184C39.0114 45.3184 39.1701 45.3501 39.3394 45.4136C41.3071 46.2388 43.3278 46.863 45.4014 47.2861C47.4749 47.7093 49.5591 47.9209 51.6538 47.9209C54.5103 47.9209 56.9647 47.6458 59.0171 47.0957C61.0695 46.5456 62.7516 45.8262 64.0635 44.9375C65.3965 44.0277 66.3804 43.012 67.0151 41.8906C67.6499 40.748 67.9673 39.5949 67.9673 38.4312C67.9673 37.1405 67.6076 35.945 66.8882 34.8447C66.1899 33.7445 65.1849 32.7606 63.873 31.8931C62.5824 31.0256 61.0272 30.285 59.2075 29.6714C57.3879 29.0578 55.3672 28.6029 53.1455 28.3066C51.6855 28.5605 50.2679 28.7404 48.8926 28.8462C47.5173 28.952 46.2477 29.0049 45.084 29.0049H44.354C44.2059 29.0049 44.0684 28.9943 43.9414 28.9731C42.418 32.6336 40.5983 35.7969 38.4824 38.4629C36.3877 41.1289 34.1449 43.34 31.7539 45.0962C29.3841 46.8312 26.9403 48.1219 24.4224 48.9683C21.9256 49.7935 19.5241 50.2061 17.2178 50.2061C14.8268 50.2061 12.6263 49.8675 10.6162 49.1904C8.62728 48.5345 6.91341 47.5929 5.47461 46.3657C4.03581 45.1385 2.91439 43.6574 2.11035 41.9224C1.30632 40.1662 0.904297 38.209 0.904297 36.0508C0.904297 33.8079 1.33805 31.491 2.20557 29.1001C3.09424 26.688 4.40609 24.2441 6.14111 21.7686C7.7915 19.4411 9.62174 17.3569 11.6318 15.5161C13.6419 13.6541 15.7472 12.0249 17.9478 10.6284C20.1694 9.23193 22.4546 8.03646 24.8032 7.04199C27.1519 6.04753 29.4793 5.23291 31.7856 4.59814C34.1131 3.96338 36.3771 3.50846 38.5776 3.2334C40.7993 2.93717 42.8835 2.78906 44.8301 2.78906C46.417 2.78906 47.9299 2.84196 49.3687 2.94775C50.8075 3.05355 52.1828 3.21224 53.4946 3.42383C54.2563 2.57747 54.87 1.97445 55.3354 1.61475C55.8009 1.23389 56.0654 1.0223 56.1289 0.97998C56.3828 0.853027 56.605 0.789551 56.7954 0.789551C57.0916 0.789551 57.3561 0.874186 57.5889 1.04346C57.8216 1.21273 57.938 1.45605 57.938 1.77344C57.938 2.19661 57.7899 2.55632 57.4937 2.85254C57.1974 3.1276 56.7954 3.50846 56.2876 3.99512C60.1597 4.94727 63.1219 6.38607 65.1743 8.31152C67.2267 10.2158 68.2529 12.575 68.2529 15.3892C68.2529 16.9338 67.999 18.3197 67.4912 19.5469C66.9834 20.7741 66.2852 21.8532 65.3965 22.7842C64.529 23.7152 63.5028 24.5298 62.3179 25.228C61.1541 25.9051 59.9163 26.4764 58.6045 26.9419ZM53.1772 25.8945C54.1082 25.7253 55.0604 25.5031 56.0337 25.228C57.0282 24.953 57.9909 24.625 58.9219 24.2441C59.874 23.8421 60.7733 23.3766 61.6196 22.8477C62.466 22.2975 63.196 21.6628 63.8096 20.9434C64.4443 20.2028 64.9416 19.3776 65.3013 18.4678C65.6821 17.5579 65.8726 16.5212 65.8726 15.3574C65.8726 12.9876 64.8887 11.0304 62.9209 9.48584C60.9531 7.94124 58.1284 6.79867 54.4468 6.05811C53.3888 7.36995 52.3944 8.81934 51.4634 10.4062C50.5324 11.9932 49.6755 13.6436 48.8926 15.3574C48.1097 17.0501 47.4009 18.7746 46.7661 20.5308C46.1525 22.2658 45.6447 23.9479 45.2427 25.5771C45.6659 25.556 46.0573 25.5454 46.417 25.5454C46.7767 25.5454 47.0835 25.5454 47.3374 25.5454C48.1626 25.5454 49.0618 25.5771 50.0352 25.6406C51.0085 25.6829 52.0558 25.7676 53.1772 25.8945ZM51.749 5.61377C50.6699 5.46566 49.5591 5.35986 48.4165 5.29639C47.2739 5.23291 46.0785 5.20117 44.8301 5.20117C42.9681 5.20117 40.9897 5.3387 38.895 5.61377C36.8003 5.88883 34.6527 6.32259 32.4521 6.91504C30.2516 7.50749 28.0299 8.27979 25.7871 9.23193C23.5654 10.1629 21.3966 11.2949 19.2808 12.6279C17.186 13.9398 15.1865 15.4738 13.2822 17.23C11.3779 18.9862 9.6429 20.9645 8.07715 23.165C6.49023 25.4079 5.29476 27.619 4.49072 29.7983C3.68669 31.9777 3.28467 34.0513 3.28467 36.019C3.28467 37.8599 3.61263 39.5103 4.26855 40.9702C4.94564 42.4302 5.89779 43.668 7.125 44.6836C8.35221 45.6781 9.82275 46.4504 11.5366 47.0005C13.2505 47.5295 15.1442 47.7939 17.2178 47.7939C19.2913 47.7939 21.4495 47.4237 23.6924 46.6831C25.9352 45.9214 28.1252 44.7682 30.2622 43.2236C32.3993 41.6579 34.4305 39.6901 36.356 37.3203C38.2814 34.9294 39.9635 32.0941 41.4023 28.8145C41.0215 28.8145 40.63 28.7087 40.228 28.4971C39.826 28.2643 39.625 27.9046 39.625 27.418C39.625 26.9102 39.8683 26.5505 40.355 26.3389C40.8416 26.1061 41.6034 25.9157 42.6401 25.7676C43.2114 24.0326 43.7933 22.2975 44.3857 20.5625C44.9782 18.8275 45.6341 17.1136 46.3535 15.4209C47.0729 13.7282 47.8664 12.0672 48.7339 10.438C49.6014 8.7876 50.6064 7.17952 51.749 5.61377ZM81.9244 32.9014C81.9244 33.4209 81.7398 33.8652 81.3707 34.2344C81.0152 34.5898 80.5777 34.7676 80.0582 34.7676C79.5387 34.7676 79.0943 34.5898 78.7252 34.2344C78.3697 33.8652 78.192 33.4209 78.192 32.9014C78.192 32.6416 78.2398 32.4023 78.3355 32.1836C78.4313 31.9512 78.5611 31.7529 78.7252 31.5889C78.9029 31.4111 79.1012 31.2744 79.3199 31.1787C79.5523 31.083 79.7984 31.0352 80.0582 31.0352C80.318 31.0352 80.5572 31.083 80.776 31.1787C81.0084 31.2744 81.2066 31.4111 81.3707 31.5889C81.5484 31.7529 81.6852 31.9512 81.7809 32.1836C81.8766 32.4023 81.9244 32.6416 81.9244 32.9014ZM78.6021 44.9189C78.6021 42.9502 78.7252 40.9883 78.9713 39.0332C78.9986 38.8418 79.0807 38.6777 79.2174 38.541C79.3678 38.3906 79.5592 38.3154 79.7916 38.3154C79.9967 38.3154 80.1676 38.3975 80.3043 38.5615C80.441 38.7119 80.5094 38.8896 80.5094 39.0947C80.5094 39.1768 80.4889 39.4229 80.4479 39.833C80.4205 40.2432 80.3795 40.7354 80.3248 41.3096C80.2838 41.8701 80.2428 42.4717 80.2018 43.1143C80.1744 43.7432 80.1607 44.3242 80.1607 44.8574C80.1607 45.582 80.2291 46.1699 80.3658 46.6211C80.5162 47.0586 80.7008 47.4004 80.9195 47.6465C81.152 47.8926 81.3912 48.0566 81.6373 48.1387C81.8971 48.2207 82.1432 48.2617 82.3756 48.2617C82.7584 48.2617 83.1549 48.125 83.565 47.8516C83.9752 47.5781 84.3922 47.1953 84.816 46.7031C85.2535 46.2109 85.691 45.623 86.1285 44.9395C86.566 44.2422 86.9967 43.4697 87.4205 42.6221C87.4889 42.4854 87.5846 42.3828 87.7076 42.3145C87.8307 42.2324 87.9674 42.1914 88.1178 42.1914C88.3365 42.1914 88.5143 42.2734 88.651 42.4375C88.8014 42.6016 88.8766 42.7793 88.8766 42.9707C88.8766 43.1074 88.8492 43.2236 88.7945 43.3193C88.6305 43.6338 88.4254 44.0166 88.1793 44.4678C87.9332 44.9189 87.6529 45.3838 87.3385 45.8623C87.024 46.3408 86.6754 46.8193 86.2926 47.2979C85.9234 47.7627 85.527 48.1865 85.1031 48.5693C84.6793 48.9385 84.235 49.2393 83.7701 49.4717C83.3053 49.7041 82.8336 49.8203 82.3551 49.8203C81.7398 49.8203 81.1998 49.6904 80.735 49.4307C80.2701 49.1709 79.8736 48.8223 79.5455 48.3848C79.2311 47.9473 78.9918 47.4346 78.8277 46.8467C78.6773 46.2451 78.6021 45.6025 78.6021 44.9189ZM80.776 32.9014C80.776 32.71 80.7008 32.5459 80.5504 32.4092C80.4137 32.2588 80.2496 32.1836 80.0582 32.1836C79.8668 32.1836 79.7027 32.2588 79.566 32.4092C79.4293 32.5459 79.3609 32.71 79.3609 32.9014C79.3609 33.0928 79.4293 33.2568 79.566 33.3936C79.7027 33.5303 79.8668 33.5986 80.0582 33.5986C80.2496 33.5986 80.4137 33.5303 80.5504 33.3936C80.7008 33.2568 80.776 33.0928 80.776 32.9014ZM99.3741 46.7441C99.0323 46.7441 98.7315 46.7168 98.4718 46.6621C98.2667 47.0723 98.0206 47.4551 97.7335 47.8105C97.4464 48.1523 97.1114 48.4531 96.7286 48.7129C96.3595 48.9727 95.9425 49.1777 95.4776 49.3281C95.0128 49.4785 94.5069 49.5537 93.96 49.5537C93.3175 49.5537 92.7296 49.4375 92.1964 49.2051C91.6632 48.9863 91.1983 48.6787 90.8018 48.2822C90.4053 47.8721 90.0977 47.3867 89.879 46.8262C89.6602 46.252 89.5509 45.623 89.5509 44.9395C89.5509 44.0645 89.7081 43.3057 90.0225 42.6631C90.337 42.0068 90.6993 41.4668 91.1095 41.043C91.5196 40.6055 91.9298 40.2842 92.3399 40.0791C92.7501 39.8604 93.0577 39.751 93.2628 39.751C93.4952 39.751 93.6661 39.8125 93.7755 39.9355C93.8985 40.0586 93.96 40.2227 93.96 40.4277C93.96 40.6602 93.8848 40.8379 93.7345 40.9609C93.5977 41.0703 93.42 41.1797 93.2012 41.2891C92.9825 41.3984 92.7501 41.5557 92.504 41.7607C92.2579 41.9521 92.0255 42.1982 91.8067 42.499C91.6016 42.7998 91.4307 43.1553 91.294 43.5654C91.1573 43.9756 91.0889 44.4336 91.0889 44.9395C91.0889 45.3906 91.1573 45.8145 91.294 46.2109C91.4307 46.5938 91.629 46.9287 91.8887 47.2158C92.1485 47.4893 92.4561 47.708 92.8116 47.8721C93.1671 48.0225 93.5636 48.0977 94.0011 48.0977C94.7803 48.0977 95.4229 47.9199 95.9288 47.5645C96.4483 47.1953 96.8448 46.7305 97.1182 46.1699C96.3116 45.7461 95.6485 45.1445 95.129 44.3652C94.6095 43.5859 94.3497 42.7109 94.3497 41.7402C94.3497 40.9609 94.5343 40.3252 94.9034 39.833C95.2862 39.3408 95.7852 39.0947 96.4005 39.0947C96.7696 39.0947 97.1182 39.1836 97.4464 39.3613C97.7745 39.5391 98.0616 39.8193 98.3077 40.2021C98.5675 40.585 98.7725 41.0771 98.9229 41.6787C99.0733 42.2803 99.1485 42.998 99.1485 43.832C99.1485 44.2695 99.0938 44.7275 98.9845 45.2061C99.0665 45.2197 99.1485 45.2266 99.2305 45.2266C99.3126 45.2266 99.4014 45.2266 99.4971 45.2266C99.962 45.2266 100.379 45.1719 100.748 45.0625C101.117 44.9531 101.452 44.7891 101.753 44.5703C102.054 44.3516 102.32 44.0713 102.553 43.7295C102.799 43.3877 103.031 42.9912 103.25 42.54C103.291 42.458 103.38 42.3828 103.517 42.3145C103.653 42.2324 103.79 42.1914 103.927 42.1914C104.105 42.1914 104.269 42.2666 104.419 42.417C104.583 42.5537 104.665 42.7383 104.665 42.9707C104.665 43.0801 104.638 43.2031 104.583 43.3398C104.528 43.4629 104.474 43.5791 104.419 43.6885C104.187 44.0986 103.913 44.4951 103.599 44.8779C103.298 45.2471 102.936 45.5752 102.512 45.8623C102.102 46.1357 101.637 46.3545 101.117 46.5186C100.598 46.6826 100.017 46.7578 99.3741 46.7441ZM95.8673 41.5762C95.8673 41.8359 95.9014 42.1094 95.9698 42.3965C96.0382 42.6836 96.1407 42.9707 96.2774 43.2578C96.4278 43.5312 96.6055 43.7979 96.8106 44.0576C97.0294 44.3037 97.2823 44.5156 97.5694 44.6934C97.6104 44.4062 97.6309 44.126 97.6309 43.8525C97.6309 43.4834 97.6036 43.1074 97.5489 42.7246C97.4942 42.3418 97.4122 41.9932 97.3028 41.6787C97.2071 41.3506 97.0841 41.0908 96.9337 40.8994C96.7833 40.6943 96.6055 40.5918 96.4005 40.5918C96.3184 40.5918 96.2091 40.6533 96.0723 40.7764C95.9356 40.8994 95.8673 41.166 95.8673 41.5762ZM107.882 40.5713C107.828 40.9404 107.759 41.2891 107.677 41.6172C107.595 41.9316 107.513 42.2119 107.431 42.458C107.363 42.6904 107.301 42.8818 107.247 43.0322C107.192 43.1826 107.158 43.2646 107.144 43.2783C107.007 43.5928 106.768 43.75 106.426 43.75C106.235 43.75 106.057 43.6816 105.893 43.5449C105.729 43.3945 105.647 43.21 105.647 42.9912C105.647 42.9092 105.661 42.8477 105.688 42.8066C105.715 42.7656 105.756 42.6836 105.811 42.5605C105.866 42.4375 105.934 42.2324 106.016 41.9453C106.098 41.6582 106.201 41.2139 106.324 40.6123C106.091 40.6123 105.852 40.6055 105.606 40.5918C105.36 40.5781 105.134 40.5303 104.929 40.4482C104.711 40.3662 104.533 40.2363 104.396 40.0586C104.259 39.8809 104.191 39.6348 104.191 39.3203C104.191 39.0879 104.259 38.7734 104.396 38.377C104.519 37.9805 104.69 37.5908 104.909 37.208C105.128 36.8252 105.374 36.4971 105.647 36.2236C105.92 35.9365 106.194 35.793 106.467 35.793C106.782 35.793 107.035 35.9092 107.226 36.1416C107.431 36.374 107.588 36.6611 107.698 37.0029C107.807 37.3311 107.882 37.6797 107.923 38.0488C107.978 38.418 108.005 38.7393 108.005 39.0127C108.238 39.0127 108.463 39.0127 108.682 39.0127C108.915 38.999 109.133 38.9922 109.338 38.9922C110.118 38.9922 110.712 39.1631 111.123 39.5049C111.533 39.8467 111.738 40.4072 111.738 41.1865C111.738 41.501 111.717 41.8291 111.676 42.1709C111.635 42.5127 111.587 42.8682 111.533 43.2373C111.478 43.5928 111.43 43.9482 111.389 44.3037C111.348 44.6592 111.328 45.0078 111.328 45.3496C111.328 45.8418 111.396 46.252 111.533 46.5801C111.669 46.8945 111.84 47.1475 112.045 47.3389C112.251 47.5303 112.469 47.667 112.702 47.749C112.934 47.8174 113.146 47.8516 113.337 47.8516C113.925 47.8516 114.479 47.6602 114.999 47.2773C115.518 46.8945 115.997 46.4365 116.434 45.9033C116.872 45.3564 117.261 44.7822 117.603 44.1807C117.959 43.5791 118.253 43.0527 118.485 42.6016C118.553 42.4785 118.649 42.3828 118.772 42.3145C118.895 42.2461 119.025 42.2119 119.162 42.2119C119.408 42.2119 119.599 42.2939 119.736 42.458C119.873 42.6084 119.941 42.7793 119.941 42.9707C119.941 43.1074 119.914 43.2305 119.859 43.3398C119.544 43.9004 119.175 44.5361 118.752 45.2471C118.341 45.9443 117.87 46.6006 117.336 47.2158C116.803 47.8311 116.202 48.3506 115.532 48.7744C114.876 49.1982 114.151 49.4102 113.358 49.4102C112.866 49.4102 112.401 49.3145 111.963 49.123C111.526 48.9453 111.143 48.6855 110.815 48.3438C110.501 47.9883 110.248 47.5576 110.056 47.0518C109.865 46.5322 109.769 45.9512 109.769 45.3086C109.769 44.625 109.837 43.9482 109.974 43.2783C110.111 42.5947 110.179 41.9453 110.179 41.3301C110.179 41.0703 110.118 40.8789 109.995 40.7559C109.885 40.6191 109.632 40.5508 109.236 40.5508C109.044 40.5508 108.833 40.5508 108.6 40.5508C108.381 40.5508 108.142 40.5576 107.882 40.5713ZM106.508 39.0537C106.508 38.958 106.502 38.835 106.488 38.6846C106.488 38.5205 106.474 38.3633 106.447 38.2129C106.433 38.0625 106.406 37.9326 106.365 37.8232C106.337 37.7139 106.303 37.6592 106.262 37.6592C106.221 37.6592 106.167 37.7139 106.098 37.8232C106.044 37.9189 105.982 38.042 105.914 38.1924C105.845 38.3291 105.784 38.4795 105.729 38.6436C105.674 38.8076 105.633 38.9443 105.606 39.0537H106.508ZM124.348 32.9014C124.348 33.4209 124.163 33.8652 123.794 34.2344C123.439 34.5898 123.001 34.7676 122.481 34.7676C121.962 34.7676 121.518 34.5898 121.148 34.2344C120.793 33.8652 120.615 33.4209 120.615 32.9014C120.615 32.6416 120.663 32.4023 120.759 32.1836C120.855 31.9512 120.984 31.7529 121.148 31.5889C121.326 31.4111 121.524 31.2744 121.743 31.1787C121.976 31.083 122.222 31.0352 122.481 31.0352C122.741 31.0352 122.981 31.083 123.199 31.1787C123.432 31.2744 123.63 31.4111 123.794 31.5889C123.972 31.7529 124.108 31.9512 124.204 32.1836C124.3 32.4023 124.348 32.6416 124.348 32.9014ZM121.025 44.9189C121.025 42.9502 121.148 40.9883 121.395 39.0332C121.422 38.8418 121.504 38.6777 121.641 38.541C121.791 38.3906 121.982 38.3154 122.215 38.3154C122.42 38.3154 122.591 38.3975 122.728 38.5615C122.864 38.7119 122.933 38.8896 122.933 39.0947C122.933 39.1768 122.912 39.4229 122.871 39.833C122.844 40.2432 122.803 40.7354 122.748 41.3096C122.707 41.8701 122.666 42.4717 122.625 43.1143C122.598 43.7432 122.584 44.3242 122.584 44.8574C122.584 45.582 122.652 46.1699 122.789 46.6211C122.939 47.0586 123.124 47.4004 123.343 47.6465C123.575 47.8926 123.814 48.0566 124.061 48.1387C124.32 48.2207 124.566 48.2617 124.799 48.2617C125.182 48.2617 125.578 48.125 125.988 47.8516C126.398 47.5781 126.815 47.1953 127.239 46.7031C127.677 46.2109 128.114 45.623 128.552 44.9395C128.989 44.2422 129.42 43.4697 129.844 42.6221C129.912 42.4854 130.008 42.3828 130.131 42.3145C130.254 42.2324 130.391 42.1914 130.541 42.1914C130.76 42.1914 130.938 42.2734 131.074 42.4375C131.225 42.6016 131.3 42.7793 131.3 42.9707C131.3 43.1074 131.272 43.2236 131.218 43.3193C131.054 43.6338 130.849 44.0166 130.603 44.4678C130.356 44.9189 130.076 45.3838 129.762 45.8623C129.447 46.3408 129.099 46.8193 128.716 47.2979C128.347 47.7627 127.95 48.1865 127.526 48.5693C127.103 48.9385 126.658 49.2393 126.193 49.4717C125.729 49.7041 125.257 49.8203 124.778 49.8203C124.163 49.8203 123.623 49.6904 123.158 49.4307C122.693 49.1709 122.297 48.8223 121.969 48.3848C121.654 47.9473 121.415 47.4346 121.251 46.8467C121.101 46.2451 121.025 45.6025 121.025 44.9189ZM123.199 32.9014C123.199 32.71 123.124 32.5459 122.974 32.4092C122.837 32.2588 122.673 32.1836 122.481 32.1836C122.29 32.1836 122.126 32.2588 121.989 32.4092C121.853 32.5459 121.784 32.71 121.784 32.9014C121.784 33.0928 121.853 33.2568 121.989 33.3936C122.126 33.5303 122.29 33.5986 122.481 33.5986C122.673 33.5986 122.837 33.5303 122.974 33.3936C123.124 33.2568 123.199 33.0928 123.199 32.9014ZM133.943 50.0049C134.955 49.5537 135.871 49.0342 136.691 48.4463C137.525 47.8584 138.263 47.2432 138.906 46.6006C139.562 45.9443 140.116 45.2812 140.567 44.6113C141.032 43.9277 141.401 43.2783 141.674 42.6631C141.688 42.6357 141.695 42.6152 141.695 42.6016C141.709 42.5742 141.729 42.5469 141.756 42.5195C141.811 41.3711 141.914 40.209 142.064 39.0332C142.091 38.8418 142.173 38.6777 142.31 38.541C142.46 38.3906 142.652 38.3154 142.884 38.3154C143.089 38.3154 143.26 38.3975 143.397 38.5615C143.534 38.7119 143.602 38.8896 143.602 39.0947C143.602 39.1768 143.582 39.4229 143.541 39.833C143.513 40.2432 143.472 40.7354 143.417 41.3096C143.376 41.8701 143.335 42.4717 143.294 43.1143C143.267 43.7432 143.253 44.3242 143.253 44.8574C143.253 45.582 143.322 46.1699 143.459 46.6211C143.609 47.0586 143.793 47.4004 144.012 47.6465C144.245 47.8926 144.484 48.0566 144.73 48.1387C144.99 48.2207 145.236 48.2617 145.468 48.2617C145.851 48.2617 146.248 48.125 146.658 47.8516C147.068 47.5781 147.485 47.1953 147.909 46.7031C148.346 46.2109 148.784 45.623 149.221 44.9395C149.659 44.2422 150.089 43.4697 150.513 42.6221C150.582 42.4854 150.677 42.3828 150.8 42.3145C150.923 42.2324 151.06 42.1914 151.21 42.1914C151.429 42.1914 151.607 42.2734 151.744 42.4375C151.894 42.6016 151.969 42.7793 151.969 42.9707C151.969 43.1074 151.942 43.2236 151.887 43.3193C151.723 43.6338 151.518 44.0166 151.272 44.4678C151.026 44.9189 150.746 45.3838 150.431 45.8623C150.117 46.3408 149.768 46.8193 149.385 47.2979C149.016 47.7627 148.62 48.1865 148.196 48.5693C147.772 48.9385 147.328 49.2393 146.863 49.4717C146.398 49.7041 145.926 49.8203 145.448 49.8203C144.887 49.8203 144.388 49.7109 143.951 49.4922C143.513 49.2871 143.137 49 142.823 48.6309C142.522 48.2617 142.276 47.8242 142.084 47.3184C141.907 46.8125 141.791 46.2656 141.736 45.6777C141.025 46.7031 140.109 47.6943 138.988 48.6514C137.88 49.6084 136.506 50.4697 134.866 51.2354C135.604 52.001 136.247 52.8486 136.793 53.7783C137.34 54.7217 137.792 55.6992 138.147 56.7109C138.516 57.7227 138.79 58.7412 138.967 59.7666C139.159 60.8057 139.254 61.7969 139.254 62.7402C139.254 63.6016 139.172 64.4082 139.008 65.1602C138.858 65.9258 138.626 66.5889 138.311 67.1494C138.01 67.71 137.641 68.1475 137.204 68.4619C136.766 68.79 136.267 68.9541 135.707 68.9541C134.886 68.9541 134.251 68.6465 133.799 68.0312C133.348 67.4297 133.013 66.5889 132.794 65.5088C132.589 64.4424 132.466 63.1777 132.425 61.7148C132.398 60.2656 132.384 58.6865 132.384 56.9775C132.384 56.1299 132.384 55.1387 132.384 54.0039C132.384 52.8828 132.384 51.6729 132.384 50.374C132.398 49.0889 132.405 47.7422 132.405 46.334C132.418 44.9121 132.432 43.4902 132.446 42.0684C132.459 40.6465 132.473 39.252 132.487 37.8848C132.501 36.5039 132.521 35.1982 132.548 33.9678C132.589 31.6162 132.671 29.5176 132.794 27.6719C132.917 25.8262 133.116 24.2676 133.389 22.9961C133.663 21.7246 134.032 20.7607 134.497 20.1045C134.975 19.4346 135.577 19.0996 136.301 19.0996C136.876 19.0996 137.361 19.2637 137.757 19.5918C138.154 19.9062 138.475 20.3369 138.721 20.8838C138.967 21.417 139.145 22.0459 139.254 22.7705C139.364 23.4951 139.418 24.2539 139.418 25.0469C139.418 26.7148 139.275 28.3281 138.988 29.8867C138.701 31.4453 138.311 32.9561 137.819 34.4189C137.327 35.8818 136.746 37.3105 136.076 38.7051C135.419 40.0996 134.715 41.4736 133.963 42.8271C133.963 43.3877 133.963 43.9961 133.963 44.6523C133.963 45.2949 133.963 45.9443 133.963 46.6006C133.963 47.2432 133.957 47.8652 133.943 48.4668C133.943 49.0547 133.943 49.5674 133.943 50.0049ZM134.004 39.6689C134.565 38.6162 135.078 37.5088 135.542 36.3467C136.021 35.1709 136.431 33.9609 136.773 32.7168C137.115 31.4727 137.381 30.2012 137.573 28.9023C137.764 27.6035 137.86 26.2979 137.86 24.9854C137.86 24.3291 137.826 23.7344 137.757 23.2012C137.703 22.668 137.607 22.2168 137.47 21.8477C137.347 21.4648 137.183 21.1709 136.978 20.9658C136.787 20.7471 136.561 20.6377 136.301 20.6377C136.028 20.6377 135.789 20.8018 135.584 21.1299C135.378 21.458 135.201 21.8955 135.05 22.4424C134.9 22.9893 134.77 23.6182 134.661 24.3291C134.565 25.04 134.483 25.7852 134.415 26.5645C134.346 27.3301 134.292 28.1025 134.251 28.8818C134.209 29.6475 134.175 30.3721 134.148 31.0557C134.134 31.7256 134.121 32.3203 134.107 32.8398C134.107 33.3594 134.107 33.749 134.107 34.0088C134.093 34.5557 134.08 35.041 134.066 35.4648C134.066 35.8887 134.059 36.3057 134.045 36.7158C134.032 37.126 134.018 37.5635 134.004 38.0283C134.004 38.4932 134.004 39.04 134.004 39.6689ZM133.943 52.5273C133.943 53.3887 133.936 54.1885 133.922 54.9268C133.922 55.6787 133.922 56.3623 133.922 56.9775C133.922 58.249 133.929 59.5068 133.943 60.751C133.957 61.9951 134.018 63.1094 134.127 64.0938C134.251 65.0918 134.428 65.8916 134.661 66.4932C134.907 67.1084 135.255 67.416 135.707 67.416C136.117 67.416 136.452 67.2314 136.711 66.8623C136.971 66.4932 137.169 66.0557 137.306 65.5498C137.457 65.0439 137.559 64.5244 137.614 63.9912C137.668 63.4717 137.696 63.0479 137.696 62.7197C137.696 61.8857 137.614 61.0107 137.45 60.0947C137.299 59.1787 137.06 58.2695 136.732 57.3672C136.417 56.4785 136.028 55.6172 135.563 54.7832C135.098 53.9492 134.558 53.1973 133.943 52.5273ZM145.017 32.9014C145.017 33.4209 144.833 33.8652 144.463 34.2344C144.108 34.5898 143.67 34.7676 143.151 34.7676C142.631 34.7676 142.187 34.5898 141.818 34.2344C141.462 33.8652 141.285 33.4209 141.285 32.9014C141.285 32.6416 141.333 32.4023 141.428 32.1836C141.524 31.9512 141.654 31.7529 141.818 31.5889C141.996 31.4111 142.194 31.2744 142.413 31.1787C142.645 31.083 142.891 31.0352 143.151 31.0352C143.411 31.0352 143.65 31.083 143.869 31.1787C144.101 31.2744 144.299 31.4111 144.463 31.5889C144.641 31.7529 144.778 31.9512 144.874 32.1836C144.969 32.4023 145.017 32.6416 145.017 32.9014ZM143.869 32.9014C143.869 32.71 143.793 32.5459 143.643 32.4092C143.506 32.2588 143.342 32.1836 143.151 32.1836C142.959 32.1836 142.795 32.2588 142.659 32.4092C142.522 32.5459 142.454 32.71 142.454 32.9014C142.454 33.0928 142.522 33.2568 142.659 33.3936C142.795 33.5303 142.959 33.5986 143.151 33.5986C143.342 33.5986 143.506 33.5303 143.643 33.3936C143.793 33.2568 143.869 33.0928 143.869 32.9014ZM166.445 43.3193C166.363 43.4697 166.22 43.7432 166.015 44.1396C165.823 44.5361 165.557 44.9873 165.215 45.4932C164.887 45.9854 164.49 46.498 164.025 47.0312C163.561 47.5645 163.027 48.0566 162.426 48.5078C161.824 48.9453 161.147 49.3076 160.396 49.5947C159.657 49.8818 158.851 50.0254 157.976 50.0254C157.196 50.0254 156.506 49.8818 155.904 49.5947C155.303 49.3213 154.79 48.9316 154.366 48.4258C153.942 47.9062 153.621 47.2979 153.402 46.6006C153.184 45.9033 153.074 45.1309 153.074 44.2832C153.074 43.4629 153.19 42.6973 153.423 41.9863C153.655 41.2617 153.97 40.6328 154.366 40.0996C154.776 39.5664 155.248 39.1494 155.781 38.8486C156.314 38.5342 156.882 38.377 157.483 38.377C157.935 38.377 158.345 38.459 158.714 38.623C159.083 38.7734 159.391 38.9785 159.637 39.2383C159.896 39.498 160.095 39.7852 160.231 40.0996C160.382 40.4141 160.457 40.7285 160.457 41.043C160.457 41.3438 160.416 41.624 160.334 41.8838C160.266 42.1436 160.17 42.376 160.047 42.5811C159.938 42.7725 159.808 42.9297 159.657 43.0527C159.507 43.1621 159.356 43.2168 159.206 43.2168C158.974 43.2168 158.782 43.1416 158.632 42.9912C158.495 42.8408 158.427 42.6562 158.427 42.4375C158.427 42.3281 158.447 42.2324 158.488 42.1504C158.543 42.0684 158.598 41.9863 158.652 41.9043C158.721 41.8086 158.775 41.6992 158.816 41.5762C158.871 41.4395 158.898 41.2686 158.898 41.0635C158.898 40.7764 158.762 40.5166 158.488 40.2842C158.229 40.0518 157.894 39.9355 157.483 39.9355C157.101 39.9355 156.731 40.0518 156.376 40.2842C156.034 40.5166 155.733 40.8311 155.474 41.2275C155.214 41.6104 155.002 42.0684 154.838 42.6016C154.688 43.1211 154.612 43.6748 154.612 44.2627C154.612 44.8232 154.681 45.3564 154.817 45.8623C154.954 46.3682 155.159 46.8193 155.433 47.2158C155.706 47.5986 156.048 47.9062 156.458 48.1387C156.882 48.3711 157.381 48.4873 157.955 48.4873C158.693 48.4873 159.377 48.3574 160.006 48.0977C160.635 47.8242 161.209 47.4824 161.729 47.0723C162.248 46.6621 162.706 46.2178 163.103 45.7393C163.499 45.2471 163.834 44.7891 164.107 44.3652C164.395 43.9277 164.613 43.5518 164.764 43.2373C164.928 42.9092 165.023 42.7041 165.051 42.6221C165.105 42.4854 165.194 42.3828 165.317 42.3145C165.454 42.2324 165.598 42.1914 165.748 42.1914C165.98 42.1914 166.165 42.2734 166.302 42.4375C166.452 42.6016 166.527 42.7861 166.527 42.9912C166.527 43.0732 166.5 43.1826 166.445 43.3193Z" fill="white"/>
</svg>
