<svg xmlns="http://www.w3.org/2000/svg" width="55" height="55" fill="none" viewBox="0 0 55 55"><g clip-path="url(#clip0)"><path fill="#D8ECFE" d="M28.1796 48.829C41.6634 48.829 52.5941 37.8982 52.5941 24.4145C52.5941 10.9307 41.6634 0 28.1796 0C14.6959 0 3.76514 10.9307 3.76514 24.4145C3.76514 37.8982 14.6959 48.829 28.1796 48.829Z"/><path fill="#C4E2FF" d="M52.5939 24.4149C52.5939 37.8985 41.6636 48.8288 28.18 48.8288C20.9977 48.8288 14.5394 45.7273 10.0718 40.791C14.4035 44.7105 20.1478 47.0968 26.448 47.0968C39.9317 47.0968 50.862 36.1665 50.862 22.6828C50.862 16.3792 48.4734 10.6328 44.5506 6.30112C49.4903 10.7688 52.5939 17.2293 52.5939 24.4149V24.4149Z"/><path fill="#B3DAFE" d="M28.1795 41.4343C37.5793 41.4343 45.1993 33.8143 45.1993 24.4145C45.1993 15.0147 37.5793 7.39465 28.1795 7.39465C18.7797 7.39465 11.1597 15.0147 11.1597 24.4145C11.1597 33.8143 18.7797 41.4343 28.1795 41.4343Z"/><path fill="#8AC9FE" d="M45.1993 24.4149C45.1993 33.8144 37.5793 41.4344 28.1798 41.4344C23.0379 41.4344 18.4299 39.1553 15.3096 35.552C18.295 38.1383 22.189 39.7023 26.4477 39.7023C35.8472 39.7023 43.4672 32.0823 43.4672 22.6828C43.4672 18.4241 41.9033 14.5301 39.3168 11.5447C42.9201 14.665 45.1993 19.273 45.1993 24.4149V24.4149Z"/><path fill="#685E68" d="M15.5642 54.9829L15.2017 54.935C14.1296 54.7934 13.3754 53.8096 13.5171 52.7375L16.8282 27.6719L21.0728 28.2326L17.7617 53.2982C17.62 54.3702 16.6361 55.1244 15.5642 54.9829V54.9829Z"/><path fill="#554E56" d="M21.0723 28.2326L17.7685 53.2423C17.6226 54.3454 16.6101 55.1213 15.507 54.9755L15.2572 54.9423C14.8327 54.8859 14.457 54.7024 14.1641 54.4338C14.9411 54.2393 15.5567 53.5871 15.6684 52.7449L18.9434 27.9518L21.0723 28.2326Z"/><path fill="#E2DEE2" d="M21.4129 9.30994L17.147 8.74637C16.833 8.70491 16.545 8.92574 16.5035 9.23969L15.2228 18.9351C15.0322 20.3777 15.6607 21.7618 16.7777 22.5248C17.1935 22.8089 17.4041 23.3109 17.3382 23.8102L16.8281 27.6719L21.0728 28.2326L21.5828 24.3709C21.6488 23.8716 21.9825 23.4414 22.4578 23.2751C23.7347 22.8283 24.7009 21.6548 24.8915 20.2123L26.1722 10.5169C26.2137 10.2029 25.9928 9.91486 25.6789 9.8734L21.4129 9.30994Z"/><path fill="#CBC4CC" d="M26.1725 10.5168L24.8914 20.2126C24.7013 21.6549 23.7342 22.8288 22.4575 23.2754C21.9822 23.4412 21.6484 23.8712 21.5832 24.3708L21.0726 28.2327L18.9404 27.9509L19.4832 23.7375C19.5484 23.2379 19.8822 22.808 20.3575 22.6421C21.6341 22.1945 22.6012 21.0218 22.7913 19.5794L24.0724 9.88362C24.0824 9.80628 24.0768 9.73002 24.0569 9.65924L25.6796 9.87363C25.9934 9.91444 26.2134 10.2029 26.1725 10.5168V10.5168Z"/><path fill="#B5ADB6" d="M20.592 9.20156L19.4414 17.9113C19.3872 18.3281 19.0302 18.632 18.6212 18.632C18.5847 18.632 18.5483 18.6298 18.5117 18.6254C18.0575 18.5646 17.7381 18.1478 17.7977 17.6947L18.9483 8.98481V8.98373L20.592 9.20156Z"/><path fill="#B5ADB6" d="M23.8772 9.6359L22.7265 18.3457C22.6712 18.7624 22.3153 19.0664 21.9063 19.0664C21.8698 19.0664 21.8334 19.0641 21.7969 19.0586C21.3427 18.9989 21.0232 18.5823 21.0828 18.1279L22.2335 9.41818L23.8772 9.6359Z"/><path fill="#685E68" d="M41.1079 54.9486L40.7443 54.9874C39.6691 55.1025 38.7043 54.3241 38.5892 53.2489L35.8994 28.109L40.1567 27.6535L42.8465 52.7934C42.9614 53.8687 42.183 54.8335 41.1079 54.9486Z"/><path fill="#554E56" d="M41.051 54.9544L40.8012 54.981C40.3723 55.0263 39.9601 54.9346 39.6097 54.7401C40.3248 54.3686 40.7759 53.5862 40.6852 52.7372L38.0259 27.8811L40.1569 27.6534L42.8406 52.7372C42.9588 53.8436 42.1574 54.8362 41.051 54.9544V54.9544Z"/><path fill="#E2DEE2" d="M40.1563 27.6536L35.8991 28.1091L35.5696 25.0294C35.515 24.52 35.2669 24.0509 34.8765 23.7191L33.9838 22.9608C33.5114 22.5595 33.252 21.9618 33.2816 21.3427L33.9619 7.09938C34.0089 6.11552 34.7658 5.31275 35.7452 5.20792C36.8425 5.09052 37.8272 5.8848 37.9446 6.98209L40.1563 27.6536Z"/><path fill="#CBC4CC" d="M40.1568 27.6535L38.029 27.8812L35.8174 7.2142C35.7411 6.50681 35.3056 5.9254 34.7109 5.63358C34.9994 5.40254 35.3553 5.24895 35.7455 5.20802C35.8174 5.20029 35.8892 5.19696 35.9599 5.19696C36.969 5.19696 37.8345 5.95634 37.945 6.98198L40.1568 27.6535Z"/><path fill="#FDB441" d="M47.5388 3.23868C47.1175 4.58312 46.0234 7.02644 43.4726 7.98023C43.2643 8.0581 43.2643 8.35777 43.4726 8.43564C46.0236 9.38943 47.1176 11.8328 47.5388 13.1772C47.61 13.4046 47.9332 13.4046 48.0045 13.1772C48.4257 11.8328 49.5198 9.38943 52.0706 8.43564C52.2789 8.35777 52.2789 8.0581 52.0706 7.98023C49.5197 7.02644 48.4256 4.58312 48.0045 3.23868C47.9333 3.0113 47.6101 3.0113 47.5388 3.23868V3.23868Z"/><path fill="#FEA613" d="M52.0711 8.43575C49.5201 9.38921 48.4263 11.8324 48.0054 13.1771C47.9338 13.4048 47.6104 13.4048 47.5389 13.1771C47.3511 12.5776 47.0305 11.7626 46.5073 10.956C46.9785 9.95235 46.9133 8.96441 48.3286 8.43564C48.5368 8.35755 48.5368 8.05831 48.3286 7.98023C46.9133 7.45049 46.9785 6.46265 46.5073 5.45903C47.0305 4.65336 47.3511 3.83737 47.5389 3.23889C47.6104 3.01119 47.9338 3.01119 48.0054 3.23889C48.4263 4.58268 49.5201 7.02579 52.0711 7.98023C52.2792 8.05842 52.2792 8.35766 52.0711 8.43575Z"/><path fill="#FDB441" d="M5.75769 42.4726C5.42344 43.5395 4.55515 45.4786 2.53071 46.2356C2.36541 46.2973 2.36541 46.5352 2.53071 46.597C4.55515 47.3539 5.42333 49.293 5.75769 50.3599C5.81419 50.5404 6.07079 50.5404 6.12729 50.3599C6.46154 49.2931 7.32983 47.354 9.35427 46.597C9.51957 46.5352 9.51957 46.2973 9.35427 46.2356C7.32983 45.4787 6.46165 43.5396 6.12729 42.4726C6.07068 42.2922 5.81419 42.2922 5.75769 42.4726V42.4726Z"/><path fill="#FEA613" d="M9.35393 46.5967C7.32949 47.3534 6.46142 49.2923 6.12738 50.3594C6.07056 50.54 5.81396 50.54 5.75714 50.3594C5.60817 49.8837 5.35372 49.2369 4.93848 48.5967C5.31237 47.8002 5.26059 47.0162 6.38387 46.5966C6.54907 46.5346 6.54907 46.2971 6.38387 46.2351C5.26059 45.8147 5.31237 45.0308 4.93848 44.2342C5.35372 43.5948 5.60817 42.9472 5.75714 42.4723C5.81396 42.2916 6.07056 42.2916 6.12738 42.4723C6.46142 43.5387 7.32949 45.4777 9.35393 46.235C9.51912 46.2972 9.51912 46.5347 9.35393 46.5967V46.5967Z"/></g><defs><clipPath id="clip0"><rect width="55" height="55" fill="#fff"/></clipPath></defs></svg>