<svg width="34" height="34" viewBox="0 0 34 34" fill="none" xmlns="http://www.w3.org/2000/svg">
<g clip-path="url(#clip0)">
<path d="M17.1099 7.51261C26.7209 6.45567 29.8441 0.375719 29.8543 0.375719C30.012 0.0726554 30.3855 -0.0451033 30.6886 0.112588C30.8414 0.192113 30.9541 0.331878 30.9996 0.498065C34.1942 11.3326 32.4508 18.8025 28.7838 23.2342C27.3641 24.9616 25.5458 26.318 23.4855 27.1867C21.5875 27.9916 19.5273 28.3408 17.4701 28.2062C13.5312 27.9309 9.93557 25.8272 8.2669 22.0583C7.83937 21.0948 7.56307 20.0712 7.44786 19.0234C7.2148 16.9234 7.62483 14.802 8.62374 12.9401C9.69615 10.9532 11.4036 9.38324 13.4734 8.48119C14.6283 7.97235 15.855 7.64567 17.1099 7.51261Z" fill="#65CCB7"/>
<path d="M29.7863 0.603466C29.7948 0.261999 30.0784 -0.00809802 30.4198 0.000313315C30.7613 0.00872465 31.0314 0.292331 31.023 0.633797C31.0224 0.658947 31.0202 0.683926 31.0165 0.70882C31.0165 0.739407 30.4762 7.84571 23.5398 15.037L23.4752 15.105C21.8456 16.7764 20.0575 18.2856 18.1361 19.6114L22.3027 20.3863C22.6348 20.4664 22.8391 20.8005 22.759 21.1326C22.6864 21.4332 22.4031 21.634 22.0954 21.6029L16.6578 20.5834C11.6993 23.7236 3.29478 26.6225 2.5607 33.4638C2.51525 33.8023 2.20394 34.04 1.86536 33.9945C1.5431 33.9513 1.30936 33.6659 1.33044 33.3414C2.20725 25.1408 10.5404 23.0303 16.1616 19.4449L16.2397 19.3939C18.483 17.9742 20.5611 16.3088 22.4353 14.4286L21.9425 9.55177C21.897 9.21319 22.1347 8.90189 22.4732 8.85643C22.8118 8.81098 23.1231 9.04862 23.1686 9.3872C23.1704 9.40121 23.1719 9.41532 23.1727 9.42942L23.5466 13.2154C29.3275 6.7242 29.7829 0.630654 29.7863 0.603466Z" fill="#A8EBDD"/>
</g>
<defs>
<clipPath id="clip0">
<rect width="34" height="34" fill="white"/>
</clipPath>
</defs>
</svg>
