<svg width="1440" height="587" viewBox="0 0 1440 587" fill="none" xmlns="http://www.w3.org/2000/svg">
<path d="M1.5 304.5C15.8333 399.833 69.4 602.9 161 584.5C275.5 561.5 372 444.5 544.5 510.5C717 576.5 847 586 900.5 567.5C954 549 1356 270.5 1435.5 426.5" stroke="#95F8E3" stroke-width="1.8"/>
<path d="M5.5 196.5C30.8333 289.333 97 482.2 159 511C236.5 547 264.5 385.5 394.5 397C473.833 422.333 644.2 505.4 773 527C901.8 548.6 1268.67 184.667 1436 0" stroke="#95F8E3" stroke-width="1.8"/>
<path d="M0.5 124C52.6667 145.333 186 191.3 302 204.5C447 221 587.5 26.5 851 149.5C1114.5 272.5 1169.5 353 1304.5 290.5C1412.5 240.5 1439.5 295.667 1439.5 329.5" stroke="#95F8E3" stroke-width="1.8"/>
<path d="M6 2.5C9.66667 37.3333 50.3 133.8 183.5 241C350 375 363.5 166.5 517.5 66C671.5 -34.5 657 250 749.5 210C842 170 981.5 11 1437 129.5" stroke="#95F8E3" stroke-width="1.8"/>
<path d="M1266.5 3.5C1089 290.5 944.5 432.5 843.5 411.5C738.315 389.63 586 117 414.5 196.5C243 276 175 557 -1.5 298" stroke="#95F8E3" stroke-width="1.8"/>
<path d="M1.49999 58C-29 156.167 169.763 494.417 371 450C482 425.5 497.5 415.5 738.5 450C979.5 484.5 1059 619 1261 322.5C1422.6 85.3 1441.5 1.5 1437 1.5" stroke="#95F8E3" stroke-width="1.8"/>
</svg>
