<svg xmlns="http://www.w3.org/2000/svg" width="529" height="471" fill="none" viewBox="0 0 529 471"><g clip-path="url(#clip0)"><path fill="#FF82A9" d="M256.379 471C397.974 471 512.759 438.154 512.759 397.636C512.759 357.118 397.974 324.272 256.379 324.272C114.785 324.272 0 357.118 0 397.636C0 438.154 114.785 471 256.379 471Z"/><path fill="#7F95D1" d="M395.387 235.602C395.387 235.602 363.648 258.081 372.032 300.977C380.416 343.873 327.452 403.694 327.452 403.694C327.452 403.694 327.908 403.694 328.758 403.694C386.087 403.412 424.648 344.424 401.819 291.758C393.345 272.182 387.435 249.894 395.387 235.602Z"/><path stroke="#535461" stroke-miterlimit="10" d="M395.388 235.602C395.388 235.602 374.427 266.238 385.045 295.999C395.663 325.759 369.984 399.759 327.47 403.694"/><path fill="#7F95D1" d="M424.852 353.655C424.852 353.655 394.783 343.417 387.213 370.682C379.643 397.948 322.35 392.04 322.35 392.04C322.35 392.04 322.673 392.358 323.29 392.928C364.786 431.697 411.395 428.218 411.647 386.24C411.743 370.64 414.557 355.454 424.852 353.655Z"/><path fill="#F5F5F5" d="M424.852 353.655C424.852 353.655 394.783 343.417 387.213 370.682C379.643 397.948 322.35 392.04 322.35 392.04C322.35 392.04 322.673 392.358 323.29 392.928C364.786 431.697 411.395 428.218 411.647 386.24C411.743 370.64 414.557 355.454 424.852 353.655Z" opacity=".2"/><path stroke="#535461" stroke-miterlimit="10" d="M424.852 353.655C424.852 353.655 399.951 354.812 398.178 376.998C396.406 399.184 354.329 418.91 322.35 392.04"/><path fill="url(#paint0_linear)" d="M372.062 291.411C373.858 282.414 373.445 269.309 358.749 262.928C366.606 250.278 362.911 241.336 355.809 238.163C355.761 234.864 354.898 228.171 349.113 224.578C349.88 218.353 351.126 193.606 323.207 190.835C319.931 185.173 309.678 169.843 292.976 165.597V143.405C288.952 151.868 263.632 156.702 263.632 156.702C234.611 160.763 228.101 177.184 226.634 184.358C222.897 184.472 219.609 184.957 217.759 186.121C211.674 189.929 168.245 201.295 171.646 231.428C171.047 231.632 170.484 231.835 169.904 232.027C169.904 232.027 146.147 251.01 152.537 266.106L150.141 266.28C150.141 266.28 136.367 274.809 140.601 291.615C140.039 292.226 139.636 292.967 139.427 293.771C139.218 294.575 139.21 295.419 139.403 296.227L172.155 405.559C172.369 406.321 172.833 406.989 173.473 407.454C174.952 408.486 178.024 410.543 182.504 413.038L182.54 413.212L182.737 413.17C187.838 415.989 193.101 418.503 198.499 420.697V420.823L198.697 420.787C202.494 422.329 206.656 423.84 211.153 425.232V425.327H211.351C215.513 426.605 219.957 427.781 224.658 428.776V428.836H224.855C229.269 429.766 233.916 430.533 238.767 431.085H238.952C244.917 431.755 250.917 432.059 256.918 431.997V431.997H257.32C262.939 431.918 268.55 431.517 274.124 430.797H274.321V430.761C278.829 430.178 283.438 429.36 288.149 428.308L288.101 428.776L288.502 428.818L288.562 428.218C293.261 427.147 298.052 425.809 302.935 424.206H303.133V424.11C307.189 422.762 311.299 421.215 315.463 419.468L315.661 419.504V419.372C320.488 417.329 325.378 414.987 330.333 412.348L330.531 412.39L330.567 412.223C333.361 410.723 336.178 409.124 339.017 407.424C339.768 406.97 340.324 406.252 340.574 405.409L373.218 295.993C373.408 295.186 373.399 294.346 373.19 293.544C372.981 292.742 372.579 292.003 372.02 291.393L372.062 291.411Z"/><path fill="#7F95D1" d="M321.877 196.401C321.877 196.401 307.145 166.112 279.226 169.219C251.307 172.326 281.166 201.061 281.166 201.061C281.166 201.061 315.29 203.778 321.877 196.401Z"/><path fill="#000" d="M321.877 196.401C321.877 196.401 307.145 166.112 279.226 169.219C251.307 172.326 281.166 201.061 281.166 201.061C281.166 201.061 315.29 203.778 321.877 196.401Z" opacity=".1"/><path fill="#7F95D1" d="M227.275 191.351C227.275 191.351 227.275 190.955 227.347 190.259C227.844 185.407 231.814 165.867 263.332 161.47C263.332 161.47 287.76 156.81 291.634 148.653V173.508C291.634 173.508 286.592 190.985 261.392 196.809C236.192 202.633 227.275 191.351 227.275 191.351Z"/><path fill="#784F69" d="M153.992 267.072C153.992 267.072 135.744 278.336 148.56 300.467C161.376 322.599 364.917 300.467 364.917 300.467C364.917 300.467 378.092 273.286 354.449 263.575C330.806 253.865 153.992 267.072 153.992 267.072Z"/><path fill="#000" d="M352.383 240.742C352.335 237.563 351.503 231.146 345.927 227.655C346.664 221.657 347.874 197.804 320.961 195.135C317.799 189.678 307.93 174.875 291.826 170.815V149.409C287.951 157.566 263.524 162.226 263.524 162.226C235.557 166.143 229.281 181.965 227.874 188.874C224.28 188.982 221.106 189.474 219.322 190.571C213.459 194.242 171.604 205.194 174.856 234.235C174.293 234.426 173.736 234.63 173.179 234.834C173.179 234.834 140.182 261.224 164.107 275.805C164.107 275.805 175.12 296.971 207.303 280.657L207.404 280.591C219.525 284.075 252.002 291.387 271.279 276.77L272.663 275.721C280.328 280.297 298.491 288.664 313.93 276.77L314.062 276.668C320.051 282.312 332.237 289.497 346.886 274.827C364.426 257.278 361.019 244.617 352.383 240.742Z" opacity=".1"/><path fill="#7F95D1" d="M309.858 271.342C309.858 271.342 325.758 295.027 346.694 274.059C367.63 253.091 358.713 239.111 346.694 238.721C334.675 238.331 309.858 271.342 309.858 271.342Z"/><path fill="#000" d="M309.858 271.342C309.858 271.342 325.758 295.027 346.694 274.059C367.63 253.091 358.713 239.111 346.694 238.721C334.675 238.331 309.858 271.342 309.858 271.342Z" opacity=".15"/><path fill="#7F95D1" d="M352.126 241.834C352.126 241.834 356 208.846 306.013 234.067C256.026 259.287 268.788 272.512 268.788 272.512C268.788 272.512 293.605 291.543 313.763 276.009C333.92 260.474 346.305 255.814 352.126 241.834Z"/><path fill="#000" d="M352.126 241.834C352.126 241.834 356 208.846 306.013 234.067C256.026 259.287 268.788 272.512 268.788 272.512C268.788 272.512 293.605 291.543 313.763 276.009C333.92 260.474 346.305 255.814 352.126 241.834Z" opacity=".1"/><path fill="#7F95D1" d="M313.739 231.733C313.739 231.733 294.737 218.538 265.662 231.733C236.587 244.928 202.458 278.336 202.458 278.336C202.458 278.336 247.049 294.278 271.088 276.003C295.126 257.728 312.577 244.161 313.739 231.733Z"/><path fill="#000" d="M313.739 231.733C313.739 231.733 294.737 218.538 265.662 231.733C236.587 244.928 202.458 278.336 202.458 278.336C202.458 278.336 247.049 294.278 271.088 276.003C295.126 257.728 312.577 244.161 313.739 231.733Z" opacity=".07"/><path fill="#7F95D1" d="M274.579 229.796C274.579 229.796 235.802 224.362 217.968 235.23C200.134 246.098 163.891 275.037 163.891 275.037C163.891 275.037 174.904 296.203 207.087 279.889C207.111 279.883 273.8 238.337 274.579 229.796Z"/><path fill="#000" d="M274.579 229.796C274.579 229.796 235.802 224.362 217.968 235.23C200.134 246.098 163.891 275.037 163.891 275.037C163.891 275.037 174.904 296.203 207.087 279.889C207.111 279.883 273.8 238.337 274.579 229.796Z" opacity=".03"/><path fill="#7F95D1" d="M172.988 234.067C172.988 234.067 138.481 261.656 165.622 276.009C165.622 276.009 223.005 238.343 224.173 234.067C224.173 234.067 197.427 224.746 172.988 234.067Z"/><path fill="#7F95D1" d="M248.211 189.797C248.211 189.797 225.334 185.917 219.13 189.797C212.926 193.678 166.4 205.721 175.701 238.727L189.642 233.701C189.642 233.701 216.417 199.892 248.211 189.797Z"/><path fill="#000" d="M248.211 189.797C248.211 189.797 225.334 185.917 219.13 189.797C212.926 193.678 166.4 205.721 175.701 238.727L189.642 233.701C189.642 233.701 216.417 199.892 248.211 189.797Z" opacity=".1"/><path fill="#7F95D1" d="M286.209 194.848C286.209 194.848 269.926 179.703 233.862 193.684C197.799 207.665 185.785 232.903 185.785 232.903L239.875 236.981C239.875 236.981 270.309 193.294 286.209 194.848Z"/><path fill="#000" d="M286.209 194.848C286.209 194.848 269.926 179.703 233.862 193.684C197.799 207.665 185.785 232.903 185.785 232.903L239.875 236.981C239.875 236.981 270.309 193.294 286.209 194.848Z" opacity=".07"/><path fill="#7F95D1" d="M311.409 196.785C311.409 196.785 285.43 188.244 265.296 199.892C245.163 211.539 237.749 234.45 237.749 234.45L269.932 232.897C269.932 232.897 295.126 193.294 311.409 196.785Z"/><path fill="#000" d="M311.409 196.785C311.409 196.785 285.43 188.244 265.296 199.892C245.163 211.539 237.749 234.45 237.749 234.45L269.932 232.897C269.932 232.897 295.126 193.294 311.409 196.785Z" opacity=".03"/><path fill="#7F95D1" d="M345.532 228.243C345.532 228.243 354.449 182.81 295.515 196.791C295.515 196.791 262.021 226.306 271.405 234.456C280.789 242.607 345.532 228.243 345.532 228.243Z"/><path fill="#000" d="M143.613 295.159L175.174 400.521C175.393 401.25 175.85 401.884 176.473 402.32C185.282 408.492 253.062 452.281 336.064 402.32C336.787 401.882 337.321 401.189 337.561 400.377L369.02 294.937C369.191 294.362 369.207 293.752 369.066 293.168C368.926 292.585 368.634 292.049 368.219 291.615C367.805 291.182 367.284 290.865 366.708 290.699C366.132 290.532 365.523 290.521 364.941 290.667L351.275 294.086C350.805 294.204 350.315 294.221 349.838 294.134L336.992 291.734C336.236 291.594 335.455 291.714 334.777 292.076L319.53 300.221C318.795 300.612 317.942 300.718 317.134 300.521L300.731 296.437C300.111 296.281 299.459 296.304 298.851 296.503L279.801 302.746C279.375 302.886 278.925 302.94 278.478 302.905C278.031 302.87 277.595 302.747 277.196 302.542L264.578 296.077C263.78 295.666 262.852 295.589 261.997 295.861L245.726 301.061C245.316 301.191 244.885 301.242 244.456 301.211L228.79 300.113C228.555 300.098 228.322 300.057 228.095 299.993L215.663 296.437C215.138 296.287 214.586 296.267 214.052 296.377L196.828 299.879C196.183 300.012 195.513 299.954 194.9 299.711L178.132 293.06C177.544 292.827 176.904 292.762 176.281 292.874L162.933 295.273C162.393 295.37 161.839 295.335 161.316 295.171L147.865 290.937C147.278 290.756 146.652 290.738 146.056 290.885C145.459 291.032 144.913 291.339 144.477 291.772C144.04 292.206 143.729 292.75 143.577 293.346C143.425 293.943 143.438 294.569 143.613 295.159V295.159Z" opacity=".1"/><path fill="#4D4981" d="M143.613 295.933L175.174 401.295C175.393 402.024 175.85 402.657 176.473 403.094C185.282 409.266 253.062 453.055 336.064 403.094C336.787 402.655 337.321 401.962 337.561 401.151L369.02 295.711C369.191 295.136 369.207 294.525 369.066 293.942C368.926 293.359 368.634 292.823 368.219 292.389C367.805 291.955 367.284 291.639 366.708 291.473C366.132 291.306 365.523 291.295 364.941 291.441L351.287 294.877C350.817 294.996 350.327 295.012 349.85 294.925L337.004 292.526C336.248 292.386 335.467 292.506 334.789 292.868L319.541 301.013C318.807 301.403 317.954 301.51 317.146 301.313L300.749 297.21C300.129 297.055 299.477 297.077 298.869 297.276L279.819 303.52C279.393 303.66 278.943 303.714 278.496 303.679C278.049 303.644 277.613 303.521 277.214 303.316L264.596 296.839C263.798 296.428 262.87 296.35 262.015 296.623L245.744 301.823C245.334 301.953 244.903 302.004 244.474 301.973L228.79 300.875C228.555 300.859 228.322 300.819 228.095 300.755L215.663 297.198C215.138 297.049 214.586 297.029 214.052 297.138L196.828 300.653C196.183 300.786 195.513 300.727 194.9 300.485L178.132 293.834C177.544 293.6 176.904 293.536 176.281 293.648L162.933 296.047C162.393 296.144 161.839 296.109 161.316 295.945L147.865 291.711C147.278 291.53 146.652 291.512 146.056 291.659C145.459 291.806 144.913 292.113 144.477 292.546C144.04 292.98 143.729 293.524 143.577 294.12C143.425 294.716 143.438 295.343 143.613 295.933V295.933Z"/><path fill="#fff" d="M178.234 258.369L174.934 257.218L173.083 254.249L181.312 243.933L184.612 245.084L186.462 248.053L178.234 258.369Z" opacity=".5"/><path fill="#fff" d="M334.495 275.847L331.189 274.695L329.345 271.726L337.567 261.41L340.867 262.556L342.718 265.525L334.495 275.847Z" opacity=".5"/><path fill="#fff" d="M265.865 219.534L262.566 218.389L260.715 215.42L268.938 205.098L272.243 206.249L274.088 209.218L265.865 219.534Z" opacity=".5"/><path fill="#fff" d="M284.388 257.476L281.196 258.891L277.819 257.991L276.783 244.826L279.975 243.411L283.352 244.311L284.388 257.476Z" opacity=".5"/><path fill="#fff" d="M230.61 225.16L228.407 227.877L224.987 228.603L218.112 217.339L220.322 214.622L223.741 213.896L230.61 225.16Z" opacity=".5"/><path fill="#fff" d="M226.736 257.002L224.526 259.719L221.112 260.444L214.237 249.181L216.441 246.464L219.861 245.738L226.736 257.002Z" opacity=".5"/><path fill="#fff" d="M321.566 260.103L319.033 262.514L315.547 262.796L310.169 250.74L312.708 248.329L316.188 248.047L321.566 260.103Z" opacity=".5"/><path fill="#fff" d="M304.288 218.79L305.145 215.396L307.936 213.297L318.919 220.602L318.062 223.996L315.272 226.102L304.288 218.79Z" opacity=".5"/><path fill="#7F95D1" d="M187.54 223.811L184.24 222.659L182.39 219.69L190.618 209.374L193.918 210.52L195.768 213.488L187.54 223.811Z" opacity=".5"/><path fill="#7F95D1" d="M229.089 204.414L228.281 201.013L229.79 197.852L242.899 199.25L243.707 202.657L242.198 205.817L229.089 204.414Z" opacity=".5"/><path fill="#7F95D1" d="M292.617 185.053L293.269 181.617L295.934 179.349L307.325 185.995L306.672 189.432L304.007 191.699L292.617 185.053Z" opacity=".5"/><path fill="#7F95D1" d="M267.219 167.714L270.626 166.934L273.764 168.476L272.237 181.593L268.83 182.366L265.692 180.825L267.219 167.714Z" opacity=".5"/><path fill="#7F95D1" d="M243.827 271.21L243.019 267.804L244.522 264.643L257.631 266.04L258.439 269.447L256.936 272.608L243.827 271.21Z" opacity=".5"/><path fill="#7F95D1" d="M195.355 273.699L193.289 270.874L193.445 267.384L206.063 263.551L208.135 266.376L207.973 269.873L195.355 273.699Z" opacity=".5"/><path fill="#7F95D1" d="M331.052 250.308L328.183 248.311L327.207 244.946L337.909 237.239L340.777 239.237L341.753 242.595L331.052 250.308Z" opacity=".5"/><path fill="#7F95D1" d="M240.324 253.025L237.455 251.028L236.473 247.669L247.175 239.956L250.043 241.954L251.026 245.312L240.324 253.025Z" opacity=".5"/><path fill="#000" d="M176.305 292.874L162.957 295.273C162.417 295.37 161.863 295.335 161.34 295.171L161.118 295.099L185.414 407.856L161.118 295.099L147.889 290.937C147.303 290.754 146.679 290.734 146.082 290.878C145.485 291.022 144.939 291.326 144.5 291.757C144.062 292.188 143.749 292.729 143.594 293.324C143.439 293.919 143.448 294.545 143.619 295.135L175.18 400.497C175.399 401.226 175.856 401.86 176.479 402.296C179.24 404.233 187.804 409.865 200.811 415.143L177.282 292.79C176.954 292.771 176.625 292.799 176.305 292.874V292.874Z" opacity=".1"/><path fill="#000" d="M364.953 290.679L351.287 294.098C350.817 294.216 350.327 294.233 349.85 294.146L337.004 291.747C336.608 291.675 336.203 291.675 335.807 291.747L313.349 413.92L335.795 291.753C335.443 291.815 335.104 291.932 334.789 292.1L319.542 300.245C318.846 300.616 318.044 300.732 317.272 300.575L301.27 418.466C310.393 415.433 319.239 411.62 327.71 407.07L352.198 293.864L327.704 407.034C330.475 405.555 333.27 403.972 336.088 402.284C336.811 401.846 337.345 401.153 337.585 400.341L369.044 294.901C369.205 294.328 369.213 293.722 369.067 293.145C368.922 292.567 368.627 292.038 368.213 291.61C367.798 291.183 367.279 290.872 366.707 290.708C366.135 290.545 365.531 290.535 364.953 290.679V290.679Z" opacity=".1"/><path fill="#4D4981" d="M317.122 300.539L300.731 296.437C300.416 296.359 300.091 296.326 299.767 296.341L287.257 422.377C291.848 421.333 296.527 420.029 301.294 418.466L317.296 300.575L317.122 300.539Z"/><g opacity=".5"><path fill="#fff" d="M161.31 295.824L160.93 295.906L185.226 408.64L185.606 408.558L161.31 295.824Z" opacity=".5"/><path fill="#fff" d="M196.076 300.807L195.691 300.862L212.855 420.299L213.24 420.244L196.076 300.807Z" opacity=".5"/><path fill="#fff" d="M177.425 293.463L177.043 293.536L200.593 416.014L200.975 415.941L177.425 293.463Z" opacity=".5"/><path fill="#fff" d="M215.059 296.957L214.671 296.991L225.85 423.679L226.237 423.645L215.059 296.957Z" opacity=".5"/><path fill="#fff" d="M236.17 301.4L235.781 301.412L239.426 425.876L239.815 425.865L236.17 301.4Z" opacity=".5"/><path fill="#fff" d="M256.47 298.461L256.081 298.464L256.908 426.758L257.297 426.756L256.47 298.461Z" opacity=".5"/><path fill="#fff" d="M278.292 303.965L273.308 425.586L273.697 425.602L278.681 303.981L278.292 303.965Z" opacity=".5"/><path fill="#fff" d="M299.609 296.945L286.939 423.63L287.326 423.669L299.997 296.984L299.609 296.945Z" opacity=".5"/><path fill="#fff" d="M314.642 298.727L299.056 417.601L299.442 417.651L315.028 298.778L314.642 298.727Z" opacity=".5"/><path fill="#fff" d="M335.646 292.241L313.109 414.618L313.492 414.688L336.029 292.312L335.646 292.241Z" opacity=".5"/><path fill="#fff" d="M351.979 294.591L327.557 407.813L327.938 407.895L352.36 294.673L351.979 294.591Z" opacity=".5"/></g><path fill="url(#paint1_linear)" d="M29.6977 383.703C33.2909 382.504 38.6806 381.136 42.9266 381.622C46.9629 380.147 56.4609 376.296 62.9466 370.592C62.7575 364.943 62.8995 359.287 63.3718 353.655C66.6895 315.869 59.2276 290.985 59.2276 290.985C59.2276 290.985 53.3708 271.99 54.0115 256.228C53.6343 256.942 53.4127 257.368 53.4127 257.368C52.8976 243.771 48.2744 229.7 44.813 220.938C44.68 220.899 44.5499 220.851 44.4237 220.794L40.4772 211.593C40.1689 211.058 39.9237 210.488 39.7466 209.896L39.1477 208.438L39.3334 208.36C39.2735 208.12 39.2076 207.869 39.1477 207.611C36.6744 197.133 34.788 172.284 34.788 172.284C28.1466 146.134 43.8967 129.94 43.8967 129.94L70.624 106.903C70.4913 107.203 70.4025 107.52 70.3605 107.845L70.5821 107.653C70.9594 106.573 71.3726 105.254 71.7798 103.79C70.8263 103.115 69.9327 102.358 69.1089 101.529C66.0707 98.6545 63.9814 94.9194 63.1203 90.8232C62.4735 87.6385 62.5992 84.3577 62.731 81.113L63.1741 70.0052C63.1939 67.8303 63.4144 65.6619 63.8329 63.5277C65.8511 54.6871 74.8699 48.5334 83.9188 48.1436C86.7993 48.0236 89.6738 48.3895 92.5424 48.6054C94.8728 48.7968 97.2127 48.8468 99.5491 48.7553C99.8151 48.7703 100.079 48.701 100.304 48.5574C100.509 48.3543 100.627 48.0788 100.633 47.7897C100.679 47.2743 100.62 46.755 100.459 46.2632C100.299 45.7714 100.04 45.3174 99.6988 44.9288C99.3489 44.6205 98.942 44.3842 98.5011 44.2331L99.1479 44.389C98.8298 44.1396 98.4712 43.9468 98.0879 43.8192C100.399 44.365 102.765 44.9348 104.753 46.2183C105.322 46.5929 105.845 47.0338 106.31 47.5318C107.541 48.6138 108.341 50.1047 108.562 51.7302C109.598 50.7166 110.592 49.601 110.957 48.2095C111.095 47.6501 111.095 47.0656 110.957 46.5062C111.113 46.7021 111.265 46.902 111.413 47.106C111.413 47.046 111.413 46.986 111.371 46.926C113.06 49.03 114.25 51.4911 114.85 54.1233C115.086 53.8382 115.263 53.5091 115.371 53.1549C115.479 52.8007 115.516 52.4285 115.479 52.0601C115.611 52.4679 115.736 52.8817 115.85 53.3016C115.904 53.0292 115.918 52.7504 115.892 52.4739C116.929 55.6514 117.397 58.9874 117.275 62.3281C117.275 65.6629 115.802 70.8509 112.233 72.0204C112.053 72.0804 111.862 72.1284 111.67 72.1704C113.674 75.2873 114.874 78.8535 115.163 82.5494C115.452 86.2452 114.821 89.9551 113.326 93.3464C111.83 96.7377 109.518 99.7043 106.597 101.98C103.675 104.256 100.235 105.771 96.5847 106.387C96.5288 106.787 96.4729 107.213 96.417 107.665H96.2733C96.1775 108.564 96.0997 109.512 96.0398 110.502C96.9377 111.384 97.9206 112.176 98.9742 112.865C101.947 114.642 105.265 115.761 108.706 116.146C112.832 116.462 116.844 117.657 120.473 119.648C124.737 122.047 129.456 125.52 130.924 129.748C133.391 136.808 146.949 147.742 156.076 149.103L159.31 148.917L159.543 148.845V148.905L160.334 148.857H160.382H160.591V148.905L161.412 148.857C161.412 148.857 161.496 149.235 161.603 149.907C166.185 148.335 175.904 143.957 188.552 132.465C202.649 119.66 221.675 122.179 229.011 123.793C229.261 123.848 229.488 123.978 229.662 124.166C229.836 124.353 229.948 124.59 229.985 124.843C230.021 125.096 229.98 125.355 229.866 125.584C229.752 125.813 229.571 126.002 229.347 126.126C226.388 127.757 221.789 130.126 219.633 130.39C219.633 130.39 224.077 134.996 219.358 137.455C218.792 137.734 218.161 137.85 217.534 137.789C216.906 137.729 216.308 137.495 215.806 137.114C213.537 135.452 207.225 139.219 198.086 141.18C198.086 141.18 172.287 167.918 159.489 172.056C159.189 172.629 158.86 173.186 158.501 173.724L157.711 173.658L157.669 173.724H157.561L157.465 174.563C157.465 174.563 137.553 173.514 131.115 166.274C130.655 165.863 130.232 165.411 129.852 164.925L136.774 252.18H136.709L136.774 253.007H131.684C131.241 263.749 131.697 274.508 133.05 285.173V342.031C133.05 342.031 133.313 347.039 122.935 354.327C112.023 361.912 101.507 370.054 91.4285 378.719L90.1709 379.811C92.0813 397.204 96.0757 429.64 99.4054 430.851L97.3513 431.211C100.891 435.679 110.862 447.939 113.91 448.281C117.641 448.694 120.126 454.506 113.91 455.754C108.173 456.905 93.261 458.405 76.9899 452.107C75.8138 451.649 74.8252 450.809 74.1824 449.722C73.5396 448.634 73.2798 447.362 73.4447 446.109L74.6424 436.945C74.414 437.073 74.2301 437.267 74.1154 437.503C73.2889 439.992 74.1154 434.18 74.1154 434.18C70.7075 423.206 68.0307 412.018 66.1026 400.689L53.8139 411.353C53.8139 411.353 53.5624 411.047 53.1372 410.495C50.1429 417.356 44.7531 431.373 45.9508 441.653C47.6097 455.766 31.8596 443.315 33.5184 435.014C34.8599 428.296 28.8772 399.843 26.5417 389.227C26.2878 388.078 26.4705 386.876 27.054 385.855C27.6375 384.833 28.58 384.066 29.6977 383.703Z"/><path fill="#FAB5CA" d="M158.375 153.451C158.375 153.451 170.113 151.424 187.51 135.62C201.284 123.115 219.849 125.58 227.035 127.151C227.289 127.19 227.525 127.309 227.706 127.491C227.888 127.674 228.006 127.91 228.043 128.165C228.08 128.42 228.034 128.681 227.912 128.907C227.789 129.134 227.598 129.316 227.364 129.425C224.472 131.014 219.98 133.329 217.878 133.593C217.878 133.593 222.214 138.091 217.609 140.496C217.057 140.768 216.44 140.88 215.828 140.821C215.215 140.762 214.632 140.533 214.141 140.16C211.926 138.541 205.757 142.218 196.84 144.131C196.84 144.131 162.04 180.201 153.95 174.119L158.375 153.451Z"/><path fill="#FAB5CA" d="M98.4831 104.414C98.4831 104.414 95.2433 118.209 98.4831 127.919L83.9187 129.94L70.9713 123.463V114.946C70.9713 114.946 77.0438 101.979 75.4209 86.9847L98.4831 104.414Z"/><path fill="#8B416F" d="M57.2094 403.1C57.2094 403.1 46.6874 423.768 48.3103 437.545C49.9333 451.322 34.5365 439.164 36.1714 431.061C37.4829 424.506 31.638 396.718 29.3623 386.354C29.1119 385.234 29.2873 384.06 29.8542 383.062C30.4211 382.064 31.3388 381.313 32.4285 380.956C37.2972 379.355 45.4358 377.358 49.532 380.393C55.5925 384.843 57.2094 403.1 57.2094 403.1Z"/><path fill="#8B416F" d="M97.2734 425.789C97.2734 425.789 111.047 443.62 114.676 444.028C118.306 444.436 120.749 450.11 114.676 451.322C109.077 452.443 94.5127 453.913 78.6248 447.759C77.4749 447.311 76.5084 446.49 75.8807 445.426C75.253 444.362 75.0004 443.118 75.1634 441.893L77.445 424.572L97.2734 425.789Z"/><path fill="#4D4981" d="M119.934 236.532L133.109 238.295C133.109 238.295 130.031 260.438 133.265 284.759V340.28C133.265 340.28 133.523 345.168 123.39 352.275C112.762 359.684 102.52 367.633 92.7041 376.092L55.9818 407.952C55.9818 407.952 41.4115 390.121 43.4356 379.583C43.4356 379.583 67.7135 371.882 70.9534 359.317C72.8099 352.119 82.224 346.122 89.9314 342.313C99.8605 337.401 105.274 326.239 102.555 315.491C102.106 313.668 101.411 311.915 100.489 310.279C94.0156 298.932 84.7093 273.4 84.7093 273.4L102.513 239.357L119.934 236.532Z"/><path fill="#000" d="M119.934 236.532L133.109 238.295C133.109 238.295 130.031 260.438 133.265 284.759V340.28C133.265 340.28 133.523 345.168 123.39 352.275C112.762 359.684 102.52 367.633 92.7041 376.092L55.9818 407.952C55.9818 407.952 41.4115 390.121 43.4356 379.583C43.4356 379.583 67.7135 371.882 70.9534 359.317C72.8099 352.119 82.224 346.122 89.9314 342.313C99.8605 337.401 105.274 326.239 102.555 315.491C102.106 313.668 101.411 311.915 100.489 310.279C94.0156 298.932 84.7093 273.4 84.7093 273.4L102.513 239.357L119.934 236.532Z" opacity=".05"/><path fill="#4D4981" d="M100.507 427.007C100.507 427.007 76.6305 431.061 75.8221 433.49C75.0136 435.919 75.8221 430.246 75.8221 430.246C75.8221 430.246 62.0482 388.502 65.3 351.622C68.5519 314.742 61.2517 290.445 61.2517 290.445C61.2517 290.445 52.7539 262.886 57.6106 247.082C62.4674 231.278 113.455 238.163 113.455 238.163C113.455 238.163 95.6504 279.883 96.0577 299.753C96.0577 299.753 94.0335 359.731 90.3924 366.622C90.3924 366.622 96.0577 425.387 100.507 427.007Z"/><path fill="#fff" d="M97.6747 114.946C97.6747 114.946 95.2493 129.94 70.9653 123.457L87.1347 246.656C87.1347 246.656 134.074 248.275 133.672 242.601L123.977 168.044L97.6747 114.946Z"/><path fill="#000" d="M97.0698 114.142C97.0698 114.142 101.669 119.084 108.76 119.702C112.788 120.014 116.703 121.181 120.246 123.127C124.438 125.46 129.007 128.855 130.427 132.993C133.259 141.096 151.063 154.471 159.172 151.634L156.339 175.949C156.339 175.949 133.277 174.749 129.229 165.819L136.11 252.545H130.049C130.049 252.545 126.809 229.04 124.384 224.176C121.959 219.312 117.102 192.568 116.695 186.079C116.287 179.589 110.221 142.296 104.957 135.824L97.0638 116.571L97.0698 114.142Z" opacity=".1"/><path fill="#000" d="M97.0698 115.36C97.0698 115.36 102.46 119.9 109.568 120.512C113.597 120.825 117.512 121.995 121.054 123.943C125.246 126.276 129.816 129.671 131.235 133.809C134.068 141.912 151.872 155.287 159.98 152.45L157.148 176.765C157.148 176.765 134.086 175.565 130.037 166.634L136.942 253.349H130.858C130.858 253.349 127.618 229.844 125.192 224.98C122.767 220.116 117.91 193.372 117.503 186.883C117.096 180.393 111.029 143.099 105.765 136.628L97.0638 117.783L97.0698 115.36Z" opacity=".1"/><path fill="#7F95D1" d="M97.0698 114.55C97.0698 114.55 102.46 119.09 109.568 119.702C113.596 120.014 117.512 121.181 121.054 123.127C125.246 125.46 129.816 128.855 131.235 132.993C134.068 141.096 151.872 154.471 159.98 151.634L157.148 175.949C157.148 175.949 134.086 174.749 130.037 165.819L136.942 252.539H130.858C130.858 252.539 127.618 229.034 125.192 224.17C122.767 219.306 117.91 192.562 117.503 186.073C117.096 179.583 111.029 142.29 105.765 135.818L97.0638 116.973L97.0698 114.55Z"/><path fill="#000" d="M76.4569 98.9442C76.9839 95.1056 75.9299 92.7066 75.4448 88.2023L98.5071 105.632C98.5071 105.632 97.9561 107.989 97.5369 111.431C96.3864 111.618 95.2229 111.712 94.0575 111.713C85.9848 111.713 80.2238 105.434 76.4569 98.9442Z" opacity=".1"/><path fill="#FAB5CA" d="M94.0336 110.496C106.102 110.496 115.886 100.697 115.886 88.6101C115.886 76.523 106.102 66.7245 94.0336 66.7245C81.9647 66.7245 72.181 76.523 72.181 88.6101C72.181 100.697 81.9647 110.496 94.0336 110.496Z"/><path fill="#000" d="M117.88 67.1623C118.009 63.4678 117.398 59.7848 116.084 56.3304C116.438 56.8717 116.587 57.5227 116.502 58.1646C116.418 58.8065 116.105 59.3965 115.623 59.8271C114.917 56.0619 112.986 52.6368 110.131 50.0868C111.688 50.3387 112.485 52.276 112.107 53.8114C111.73 55.3468 110.544 56.5283 109.406 57.6199C109.538 55.2988 108.011 53.1396 106.071 51.8621C104.13 50.5846 101.819 50.0628 99.561 49.499C100.346 49.7782 101.017 50.3096 101.468 51.0105C101.92 51.7113 102.127 52.5422 102.058 53.3735C102.053 53.6562 101.937 53.9254 101.735 54.1233C101.516 54.2651 101.259 54.3344 100.998 54.3212C98.7178 54.4112 96.434 54.3632 94.1593 54.1772C91.3639 53.862 88.5523 53.7118 85.7393 53.7274C76.9 54.0993 68.0967 60.115 66.1265 68.7217C65.7189 70.8046 65.5044 72.9208 65.4857 75.0433L65.0785 85.9171C64.9527 89.0839 64.827 92.2927 65.4618 95.3995C66.0715 98.2924 67.3114 101.015 69.093 103.372C70.8746 105.73 73.1539 107.665 75.7682 109.038C78.9422 104.432 79.2236 98.5123 80.3255 93.0244C80.4965 91.7527 80.9665 90.5399 81.6969 89.4857C82.4934 88.4901 83.8948 87.8604 85.0805 88.3342C86.2663 88.808 86.7813 90.6253 85.7932 91.435C86.6435 92.4726 88.3204 91.6989 89.2965 90.7752C92.0743 88.1382 93.9872 84.7186 94.7821 80.969C95.1774 79.0797 95.5726 76.7706 97.3931 76.1168C98.0304 75.9413 98.6965 75.8965 99.3514 75.9849C103.202 76.2488 109.227 77.8442 112.964 76.6207C116.443 75.4811 117.88 70.419 117.88 67.1623Z" opacity=".1"/><path fill="#000" d="M117.479 66.7546C117.608 63.0601 116.997 59.3771 115.682 55.9227C116.037 56.464 116.186 57.115 116.101 57.7569C116.016 58.3988 115.704 58.9888 115.221 59.4194C114.515 55.6542 112.584 52.2291 109.73 49.6791C111.287 49.931 112.083 51.8682 111.706 53.4037C111.329 54.9391 110.143 56.1206 109.005 57.2122C109.137 54.8911 107.61 52.7319 105.669 51.4544C103.729 50.1769 101.418 49.6551 99.1598 49.0913C99.9447 49.3705 100.615 49.9019 101.067 50.6028C101.519 51.3036 101.726 52.1345 101.657 52.9658C101.651 53.2485 101.535 53.5177 101.334 53.7155C101.115 53.8574 100.857 53.9267 100.597 53.9135C98.3166 54.0035 96.0328 53.9555 93.7581 53.7695C90.9627 53.4543 88.1511 53.3041 85.338 53.3197C76.4988 53.6916 67.6955 59.7073 65.7253 68.314C65.3138 70.4065 65.0973 72.5329 65.0785 74.6655L64.6473 85.5094C64.5216 88.6762 64.3958 91.885 65.0306 94.9918C65.6403 97.8847 66.8803 100.607 68.6618 102.965C70.4434 105.322 72.7227 107.257 75.337 108.631C78.511 104.024 78.7925 98.1046 79.8944 92.6167C80.0653 91.345 80.5353 90.1322 81.2658 89.078C82.0623 88.0824 83.4636 87.4527 84.6494 87.9265C85.8351 88.4003 86.3501 90.2176 85.362 91.0273C86.2124 92.0649 87.8892 91.2912 88.8654 90.3675C91.6431 87.7305 93.556 84.3109 94.351 80.5613C94.7462 78.672 95.1414 76.3629 96.962 75.7091C97.5992 75.5336 98.2653 75.4887 98.9203 75.5772C102.771 75.8411 108.796 77.4365 112.532 76.2129C116.036 75.0794 117.479 70.0113 117.479 66.7546Z"/><path fill="#000" d="M161.004 151.628C161.004 151.628 164.244 166.622 158.172 175.943L154.734 175.661L156.609 151.88L161.004 151.628Z" opacity=".1"/><path fill="#7F95D1" d="M160.196 151.628C160.196 151.628 163.436 166.622 157.363 175.943L153.926 175.661L155.8 151.88L160.196 151.628Z"/><path fill="#000" d="M73.193 110.7L47.1125 133.191C47.1125 133.191 31.7337 148.995 38.2074 174.527C38.2074 174.527 41.04 211.809 44.2799 213.434C44.2799 213.434 55.6104 236.13 56.4188 257.608C56.4188 257.608 71.594 227.019 78.475 245.654C85.3559 264.289 101.34 266.928 101.34 266.928L92.4165 156.696C92.4165 156.696 69.9591 117.585 73.193 110.7Z" opacity=".1"/><path fill="#7F95D1" d="M72.3847 110.7L46.2862 133.191C46.2862 133.191 30.9074 148.995 37.3811 174.527C37.3811 174.527 40.2137 211.809 43.4536 213.434C43.4536 213.434 54.7841 236.13 55.5926 257.608C55.5926 257.608 71.5762 225.388 78.4572 244.029C85.3381 262.67 100.513 266.928 100.513 266.928L91.6082 156.696C91.6082 156.696 69.1508 117.585 72.3847 110.7Z"/><path fill="#FAB5CA" d="M60.4492 205.733C60.4492 205.733 53.9755 201.277 43.4535 213.434L69.3483 260.445L78.0498 247.25C78.0498 247.25 59.6408 210.999 60.4492 205.733Z"/><path fill="#000" d="M66.7193 208.366C66.7193 208.366 52.4005 224.476 46.8131 221.891L41.6389 209.83L61.0541 201.475L66.7193 208.366Z" opacity=".1"/><path fill="#7F95D1" d="M66.7193 207.557C66.7193 207.557 52.4005 223.667 46.8131 221.106L41.6389 209.044L61.0541 200.689L66.7193 207.557Z"/><path fill="#000" d="M77.1755 244.221C77.1755 244.221 70.3605 258.213 66.7194 259.029L71.9774 265.111L79.6668 250.494L77.1755 244.221Z" opacity=".1"/><path fill="#4D4981" d="M77.5827 244.622C77.5827 244.622 70.7677 258.615 67.1266 259.431L72.3846 265.489L80.0501 250.92L77.5827 244.622Z"/><path fill="#000" d="M64.6952 158.13C64.6952 158.13 63.8867 187.308 67.1206 198.248Z" opacity=".1"/><path fill="#000" d="M130.253 163.785C130.253 163.785 125.396 162.166 125.396 158.112Z" opacity=".1"/><g opacity=".5"><path fill="url(#paint2_linear)" d="M400.831 164.499C400.795 168.332 401.25 171.876 402.484 174.653L403.682 192.047C403.682 192.047 403.981 191.879 404.526 191.615C403.802 198.212 404.323 210.298 417.258 212.571C417.548 212.495 417.819 212.36 418.055 212.175C418.947 210.376 419.746 208.532 420.45 206.651L420.6 206.699L420.45 207.443L421.408 207.743C416.743 217.867 417.815 238.931 418.851 240.994C419.288 241.858 419.618 244.401 419.863 247.286C420.321 252.888 420.12 258.524 419.264 264.079C418.665 267.912 418.486 272.614 420.462 274.569C424.055 278.12 423.654 305.355 423.654 305.355C423.901 305.969 424.179 306.569 424.486 307.155L423.253 307.329C423.253 307.329 423.253 317.987 425.247 325.484C426.397 329.796 424.768 335.416 423.181 339.41C420.985 344.784 420.502 350.706 421.797 356.366C422.965 361.248 425.391 366.118 430.439 367.719C441.62 371.27 444.015 352.725 444.015 352.725C444.015 352.725 443.614 338.517 444.015 336.531C444.141 335.932 444.716 334.228 445.459 332.177C448.157 324.694 449.179 316.709 448.453 308.786L447.992 303.796L445.824 304.108C445.788 303.592 445.758 303.052 445.728 302.488C445.698 301.925 445.674 301.517 445.65 301.007C445.626 300.497 445.602 299.975 445.578 299.436C445.554 298.896 445.53 298.35 445.513 297.792C445.513 297.512 445.503 297.23 445.483 296.947C445.393 294.392 445.315 291.663 445.249 288.964C445.249 287.764 445.195 286.565 445.177 285.395C445.177 284.519 445.147 283.65 445.135 282.81C445.135 282.53 445.135 282.25 445.135 281.97C445.135 280.591 445.099 279.271 445.093 278.054C445.093 277.81 445.093 277.57 445.093 277.334C445.093 276.862 445.093 276.41 445.093 275.979C445.093 275.763 445.093 275.551 445.093 275.343C445.093 274.929 445.093 274.539 445.093 274.143C445.093 273.747 445.093 273.424 445.093 273.106C445.093 272.788 445.093 272.506 445.093 272.218C445.093 270.737 445.153 270.077 445.213 270.623C445.411 272.422 446.01 283.254 445.213 269.423C444.566 258.273 454.591 231.691 458.478 221.861C459.718 222.504 460.918 223.221 462.071 224.008C463.401 239.518 461.574 269.249 460.987 277.988V278.024C460.939 278.702 460.903 279.223 460.873 279.649V279.721L460.843 280.153V280.273V280.399V280.465C460.843 280.465 455.651 312.852 455.651 320.332C455.651 326.107 452.807 334.462 451.501 337.989C449.603 338.817 448.064 339.668 448.064 339.668L448.465 369.273C448.465 369.273 444.075 383.877 460.041 387.428C476.007 390.979 469.221 372.824 469.221 372.824L468.024 359.797L473.611 339.668L472.042 339.35C475.36 328.734 484.247 299.526 483.594 293.096C482.864 285.899 486.451 278.054 487.092 276.722L487.187 276.518C483.762 269.441 494.176 232.135 498.925 216.037C504.848 213.207 509.142 210.999 509.142 210.999C509.142 210.999 509.022 210.777 508.812 210.4L509.142 210.232C506.591 205.439 504.538 200.396 503.015 195.183L503.357 194.836L503.099 194.11C503.914 193.324 504.357 192.862 504.357 192.862C504.357 192.862 515.933 194.836 513.142 189.312C510.351 183.788 511.148 175.517 511.148 175.517V145.181L516.735 147.022C527.245 148.755 529.126 137 529.072 127.985C529.087 124.448 528.835 120.916 528.317 117.417C528.317 117.417 520.334 56.2405 506.357 58.2138C493.266 60.0611 481.756 52.39 480.348 51.4064C480.177 50.8786 480.023 50.3588 479.887 49.847C480.67 48.96 481.371 48.0045 481.983 46.9921C482.42 46.9921 482.864 46.9321 483.283 46.8841C483.283 46.7642 483.283 46.6502 483.283 46.5302L483.684 46.4883C483.642 45.1183 483.872 43.7536 484.361 42.4737C484.85 41.1937 485.589 40.0242 486.535 39.0331C487.306 38.2955 488.192 37.6879 489.158 37.2338C491.092 36.3281 493.278 36.0342 495.176 35.0626C495.849 34.711 496.457 34.2464 496.973 33.6891C498.171 32.6096 498.949 31.1041 498.536 29.6047C498.35 28.939 497.937 28.3272 497.937 27.6375C497.937 26.6778 498.686 25.9101 499.135 25.0644C500.452 22.5814 499.255 19.4746 497.608 17.1835C495.961 14.8923 493.847 12.7332 493.242 9.9862C492.996 8.85863 493.014 7.67109 492.643 6.57351C491.445 3.01687 486.858 1.95527 483.061 2.1532C479.264 2.35112 475.192 3.16081 471.91 1.28953C471.288 0.837086 470.617 0.454914 469.91 0.149963C469.081 -0.0460813 468.218 -0.0460813 467.389 0.149963C462.598 0.983644 458.184 3.36473 454.214 6.14767C452.612 7.2222 451.116 8.44728 449.746 9.80627C448.842 10.6658 448.039 11.6256 447.351 12.6672C445.734 15.1682 444.956 18.359 445.968 21.1599C446.54 22.7065 447.544 24.0557 448.86 25.0464C447.279 27.1179 446.127 29.4851 445.472 32.0089C444.817 34.5326 444.673 37.1619 445.047 39.7424C445.422 42.3228 446.307 44.8023 447.652 47.035C448.997 49.2678 450.774 51.2087 452.879 52.7439C452.215 53.8326 451.462 54.8638 450.627 55.8267V55.6707C450.627 55.6707 438.452 61.7884 434.056 60.9967C429.768 60.223 418.63 67.3663 418.857 81.6648C418.857 82.0247 418.857 82.3965 418.857 82.7684L411.671 105.086C408.779 114.05 407.306 123.411 407.305 132.831C407.305 132.831 400.706 150.788 400.831 164.499ZM420.133 173.952L429.631 138.469V146.23L423.642 167.546C423.642 167.546 422.444 174.677 421.528 182.252L420.133 173.952Z" opacity=".5"/></g><path fill="#5A5773" d="M448.453 298.686L448.896 303.562C449.595 311.31 448.604 319.117 445.992 326.443C445.279 328.452 444.722 330.108 444.602 330.702C444.219 332.633 444.602 346.518 444.602 346.518C444.602 346.518 442.291 364.649 431.505 361.176C426.654 359.617 424.319 354.848 423.169 350.08C421.92 344.551 422.386 338.772 424.504 333.515C426.037 329.61 427.606 324.122 426.499 319.906C424.57 312.576 424.57 302.164 424.57 302.164L448.453 298.686Z"/><path fill="#605D82" d="M460.005 214.988C460.005 214.988 444.985 251.634 445.758 265.129C446.53 278.623 445.95 268.02 445.758 266.286C445.417 263.197 445.758 299.873 446.914 304.072C446.914 304.072 431.122 315.641 424.959 300.215C424.959 300.215 425.343 273.603 421.881 270.131C419.977 268.223 420.163 263.629 420.725 259.881C421.556 254.458 421.757 248.958 421.324 243.489C421.091 240.67 420.767 238.187 420.348 237.341C419.192 235.026 418.037 208.798 424.971 201.469L460.005 214.988Z"/><path fill="#000" d="M444.985 304.09C443.83 299.849 443.488 263.197 443.83 266.304C444.021 268.038 444.602 278.648 443.83 265.147C443.057 251.646 458.077 215.006 458.077 215.006L424.474 202.063C424.63 201.865 424.792 201.679 424.953 201.505L459.999 215.006C459.999 215.006 444.979 251.652 445.752 265.147C446.524 278.642 445.944 268.038 445.752 266.304C445.411 263.215 445.752 299.891 446.908 304.09C446.908 304.09 440.602 308.708 434.403 308.216C439.919 307.796 444.985 304.09 444.985 304.09Z" opacity=".1"/><path fill="#5A5773" d="M473.096 333.79L467.706 353.463L468.862 366.19C468.862 366.19 475.408 383.931 460.005 380.459C444.602 376.986 448.836 362.717 448.836 362.717L448.453 333.79C448.453 333.79 454.615 330.318 457.31 330.708C460.005 331.098 473.096 333.79 473.096 333.79Z"/><path fill="#605D82" d="M499.674 205.733C499.674 205.733 481.959 263.203 486.193 272.086C486.193 272.086 481.959 280.573 482.726 288.28C483.492 295.987 470.401 337.263 470.401 337.263L451.142 333.79C451.142 333.79 455.765 322.221 455.765 314.892C455.765 307.562 460.771 275.907 460.771 275.907C460.771 275.907 465.005 218.047 459.999 211.875L499.674 205.733Z"/><g opacity=".1"><path fill="#000" d="M461.496 216.559C464.688 229.658 461.161 277.862 461.161 277.862C461.161 277.862 456.154 309.488 456.154 316.847C456.154 322.443 453.465 330.504 452.19 334.006L451.148 333.821C451.148 333.821 455.771 322.251 455.771 314.922C455.771 307.593 460.777 275.937 460.777 275.937C460.777 275.937 463.999 231.901 461.496 216.559Z" opacity=".1"/><path fill="#000" d="M486.193 272.086L486.097 272.284C486.067 272.086 486.037 271.876 486.02 271.684C486.07 271.821 486.128 271.955 486.193 272.086V272.086Z" opacity=".1"/><path fill="#000" d="M460.873 213.758C460.698 213.093 460.404 212.465 460.005 211.905L499.674 205.733C499.674 205.733 499.44 206.483 499.039 207.821L460.873 213.758Z" opacity=".1"/></g><path fill="#A1616A" d="M407.239 184.903C407.239 184.903 401.46 206.495 418.791 209.59C419.072 209.517 419.335 209.386 419.564 209.206C419.564 209.206 429.577 189.534 421.875 181.821L407.239 184.903Z"/><path fill="#A1616A" d="M478.109 41.4142C478.109 41.4142 476.953 57.608 489.661 65.3271C502.369 73.0461 462.712 94.254 462.712 94.254L441.901 61.0867C441.901 61.0867 450.747 62.2442 456.136 46.8181L478.109 41.4142Z"/><path fill="#000" d="M486.576 66.4846C486.576 66.4846 466.934 107.371 449.219 68.7997L421.875 204.576C421.875 204.576 464.239 217.693 464.622 223.865C465.005 230.036 507.369 208.049 507.369 208.049C507.369 208.049 498.129 191.075 500.434 180.663C502.74 170.251 486.576 66.4846 486.576 66.4846Z" opacity=".1"/><path fill="#E1E7EF" d="M486.576 65.7169C486.576 65.7169 466.934 106.603 449.219 68.032L421.875 203.802C421.875 203.802 464.239 216.907 464.628 223.085C465.017 229.262 507.375 207.269 507.375 207.269C507.375 207.269 498.134 190.295 500.44 179.883C502.746 169.471 486.576 65.7169 486.576 65.7169Z"/><path fill="#5A5773" d="M467.323 344.586C467.323 344.586 472.329 333.401 460.777 333.401C449.225 333.401 451.148 343.459 451.148 343.459L467.323 344.586Z"/><path fill="#5A5773" d="M441.135 315.659C441.135 315.659 445.758 303.7 434.2 303.316C422.642 302.932 428.421 314.112 428.421 314.112L441.135 315.659Z"/><path fill="#000" d="M450.956 57.0382C450.956 57.0382 439.212 63.0359 434.972 62.2442C430.732 61.4525 419.57 68.7997 420.336 83.4581L413.377 105.35C410.594 114.118 409.18 123.265 409.185 132.465V132.465C409.185 132.465 399.172 160.235 404.562 172.578L405.718 189.552C405.718 189.552 414.557 184.519 423.798 186.061L421.486 172.176L431.882 132.831L449.213 90.7873L450.956 57.0382Z" opacity=".1"/><path fill="#67647E" d="M450.956 56.2644C450.956 56.2644 439.212 62.2621 434.972 61.4704C430.732 60.6787 419.57 68.0259 420.336 82.6843L413.377 104.558C410.594 113.326 409.18 122.473 409.185 131.674V131.674C409.185 131.674 399.172 159.443 404.562 171.786L405.718 188.76C405.718 188.76 414.575 183.746 423.822 185.287L421.51 171.402L431.906 132.057L449.237 90.0135L450.956 56.2644Z"/><path fill="#000" d="M431.505 103.131V146.734L425.726 167.564C425.726 167.564 421.875 190.319 423.031 197.265C424.187 204.21 442.674 205.751 447.68 199.964C452.687 194.176 449.992 144.785 449.992 144.785L450.956 72.4643L450.184 70.1492L431.505 103.131Z" opacity=".1"/><path fill="#67647E" d="M430.733 101.199V144.785L424.953 165.615C424.953 165.615 421.103 188.37 422.259 195.315C423.414 202.261 441.901 203.802 446.908 198.014C451.914 192.226 449.219 142.835 449.219 142.835L450.184 70.563L430.733 101.199Z"/><path fill="#000" d="M508.339 137.461L496.015 175.847L501.794 192.238C501.794 192.238 474.45 221.165 457.118 207.281C457.118 207.281 455.19 148.263 459.047 134.379C462.903 120.494 481.384 73.8018 481.384 73.8018L485.235 61.4585L505.644 73.0281L508.339 137.461Z" opacity=".1"/><path fill="#67647E" d="M509.303 135.53V173.316C509.303 173.316 508.531 181.419 511.232 186.817C513.933 192.215 502.758 190.289 502.758 190.289C502.758 190.289 475.414 219.216 458.083 205.332C458.083 205.332 456.154 146.314 460.011 132.429C463.868 118.545 482.348 71.8526 482.348 71.8526L486.199 59.5093L506.608 71.0789L509.303 135.53Z"/><path fill="#E6E6E6" d="M470.04 137.352L484.718 114.717L481.202 112.43L466.524 135.066L470.04 137.352Z"/><path fill="#000" d="M468.387 139.494C470.989 135.44 471.297 130.994 469.074 129.563C466.852 128.132 462.94 130.258 460.338 134.312C457.736 138.366 457.428 142.813 459.651 144.244C461.873 145.675 465.785 143.548 468.387 139.494Z" opacity=".1"/><path fill="#E6E6E6" d="M470.474 141.496C473.098 137.448 473.427 132.997 471.208 131.554C468.989 130.111 465.062 132.222 462.438 136.27C459.813 140.317 459.484 144.768 461.703 146.212C463.922 147.655 467.849 145.544 470.474 141.496Z"/><path fill="#000" d="M469.72 141.006C471.853 137.717 472.12 134.1 470.317 132.927C468.514 131.754 465.324 133.47 463.191 136.759C461.058 140.049 460.791 143.666 462.594 144.838C464.397 146.011 467.587 144.295 469.72 141.006Z" opacity=".1"/><path fill="#000" d="M479.456 52.7917C479.456 52.7917 491.2 61.4704 504.68 59.5392C518.161 57.6079 525.862 117.399 525.862 117.399C525.862 117.399 530.869 148.257 514.693 145.558L478.893 133.599C478.893 133.599 486.595 125.496 485.439 115.084L502.77 122.029L501.997 88.856L479.456 52.7917Z" opacity=".1"/><path fill="#000" d="M525.089 116.631C525.089 116.631 530.096 147.49 513.921 144.791L478.103 132.831C478.103 132.831 485.804 124.728 484.648 114.316L501.979 121.262L525.089 116.631Z" opacity=".1"/><path fill="#A1616A" d="M485.48 118.383C485.48 118.383 473.503 102.555 464.634 110.148C455.765 117.741 482.33 131.674 482.33 131.674L485.48 118.383Z"/><path fill="#67647E" d="M479.456 52.0242C479.456 52.0242 491.2 60.7029 504.68 58.7716C518.161 56.8403 525.862 116.631 525.862 116.631C525.862 116.631 530.869 147.49 514.693 144.791L478.893 132.831C478.893 132.831 486.595 124.728 485.439 114.316L502.77 121.262L501.997 88.0884L482.355 71.8946L479.456 52.0242Z"/><path fill="#000" d="M455.765 47.5858L477.719 42.1879C477.719 42.1879 476.576 43.4834 477.911 48.5514C474.378 52.6119 470.036 58.0038 464.239 58.0038C460.09 58.0116 456.051 56.671 452.729 54.1833C453.969 52.0966 454.986 49.8854 455.765 47.5858V47.5858Z" opacity=".1"/><path fill="#A1616A" d="M464.622 57.2301C475.259 57.2301 483.882 48.5943 483.882 37.9415C483.882 27.2886 475.259 18.6528 464.622 18.6528C453.985 18.6528 445.363 27.2886 445.363 37.9415C445.363 48.5943 453.985 57.2301 464.622 57.2301Z"/><path fill="#000" d="M457.334 29.5746C452.866 28.8129 447.956 26.8277 446.459 22.5453C445.5 19.8044 446.231 16.6856 447.794 14.2445C449.357 11.8034 451.657 9.92616 454.028 8.2468C457.879 5.53583 462.125 3.20872 466.76 2.39304C467.559 2.20167 468.392 2.20167 469.191 2.39304C469.887 2.67795 470.547 3.04007 471.162 3.47262C474.33 5.30192 478.27 4.51023 481.941 4.3183C485.612 4.12638 490.014 5.16398 491.17 8.63665C491.529 9.71024 491.505 10.8678 491.769 11.9714C492.368 14.6703 494.398 16.7695 495.961 19.0187C497.524 21.2678 498.727 24.3087 497.41 26.7317C496.961 27.5534 496.212 28.3091 496.212 29.2448C496.328 29.9098 496.529 30.5569 496.811 31.17C497.356 33.1613 495.769 35.1705 493.937 36.1181C492.104 37.0658 489.996 37.3597 488.128 38.2413C486.379 39.1056 484.915 40.4548 483.909 42.1283C482.904 43.8019 482.4 45.7294 482.456 47.6817C480.756 47.8797 478.773 47.9816 477.624 46.7101C477.108 46.1403 476.857 45.3786 476.39 44.7728C475.791 43.9811 474.857 43.5133 474.09 42.8776C470.06 39.5608 472.922 34.9786 470.641 31.4039C469.443 29.5626 467.539 30.1264 465.61 30.1564C462.839 30.2214 460.069 30.0266 457.334 29.5746V29.5746Z" opacity=".1"/><path fill="#4A4347" d="M457.711 29.1789C453.244 28.4172 448.333 26.4319 446.836 22.1496C445.878 19.4086 446.608 16.2898 448.171 13.8488C449.734 11.4077 452.034 9.53041 454.405 7.85105C458.256 5.14008 462.502 2.81297 467.137 1.99728C467.937 1.80592 468.77 1.80592 469.569 1.99728C470.264 2.28219 470.925 2.64432 471.539 3.07687C474.707 4.90617 478.647 4.11448 482.319 3.92255C485.99 3.73062 490.391 4.76822 491.547 8.2409C491.906 9.31449 491.882 10.472 492.146 11.5756C492.745 14.2746 494.775 16.3738 496.338 18.6229C497.901 20.8721 499.105 23.9129 497.787 26.336C497.338 27.1577 496.589 27.9134 496.589 28.849C496.705 29.514 496.906 30.1612 497.188 30.7743C497.733 32.7655 496.146 34.7748 494.314 35.7224C492.481 36.67 490.373 36.9639 488.505 37.8456C486.756 38.7099 485.292 40.059 484.286 41.7326C483.281 43.4061 482.777 45.3337 482.834 47.286C481.133 47.4839 479.151 47.5859 478.001 46.3144C477.486 45.7446 477.234 44.9829 476.767 44.3771C476.168 43.5854 475.234 43.1176 474.467 42.4818C470.437 39.1651 473.3 34.5828 471.018 31.0082C469.82 29.1669 467.916 29.7307 465.988 29.7607C463.217 29.8256 460.446 29.6308 457.711 29.1789V29.1789Z"/><path fill="#000" d="M434.392 94.0681C434.392 94.0681 430.158 116.056 432.08 124.542C433.255 129.48 433.081 134.642 431.577 139.489" opacity=".1"/><path fill="#000" d="M502.848 103.323C502.848 103.323 504.692 117.981 501.62 121.064Z" opacity=".1"/><path fill="#000" d="M395.304 283.968C395.542 283.968 395.77 283.873 395.939 283.704C396.107 283.535 396.202 283.306 396.202 283.068C396.202 282.829 396.107 282.6 395.939 282.432C395.77 282.263 395.542 282.168 395.304 282.168C395.065 282.168 394.837 282.263 394.668 282.432C394.5 282.6 394.405 282.829 394.405 283.068C394.405 283.306 394.5 283.535 394.668 283.704C394.837 283.873 395.065 283.968 395.304 283.968V283.968Z"/><path fill="#E6E6E6" d="M235.708 134.998L210.757 124.8L209.173 128.687L234.125 138.885L235.708 134.998Z"/><path fill="#000" d="M245.553 141.282C246.553 138.828 243.746 135.361 239.284 133.538C234.823 131.714 230.395 132.225 229.396 134.678C228.396 137.132 231.202 140.599 235.664 142.423C240.126 144.246 244.553 143.735 245.553 141.282Z" opacity=".1"/><path fill="#E6E6E6" d="M246.025 141.468C247.025 139.014 244.218 135.547 239.757 133.724C235.295 131.9 230.868 132.411 229.868 134.864C228.868 137.318 231.675 140.785 236.136 142.609C240.598 144.432 245.025 143.921 246.025 141.468Z"/><path fill="#000" d="M244.512 140.849C245.324 138.856 243.043 136.038 239.417 134.557C235.792 133.075 232.194 133.489 231.382 135.483C230.569 137.476 232.85 140.294 236.476 141.776C240.102 143.257 243.699 142.843 244.512 140.849Z" opacity=".1"/></g><defs><linearGradient id="paint0_linear" x1="256.319" x2="256.319" y1="431.985" y2="143.393" gradientUnits="userSpaceOnUse"><stop stop-color="gray" stop-opacity=".25"/><stop offset=".54" stop-color="gray" stop-opacity=".12"/><stop offset="1" stop-color="gray" stop-opacity=".1"/></linearGradient><linearGradient id="paint1_linear" x1="-135085" x2="-135085" y1="338243" y2="53907" gradientUnits="userSpaceOnUse"><stop stop-color="gray" stop-opacity=".25"/><stop offset=".54" stop-color="gray" stop-opacity=".12"/><stop offset="1" stop-color="gray" stop-opacity=".1"/></linearGradient><linearGradient id="paint2_linear" x1="-106209" x2="-133657" y1="147664" y2="147664" gradientUnits="userSpaceOnUse"><stop stop-color="gray" stop-opacity=".25"/><stop offset=".54" stop-color="gray" stop-opacity=".12"/><stop offset="1" stop-color="gray" stop-opacity=".1"/></linearGradient><clipPath id="clip0"><rect width="529" height="471" fill="#fff"/></clipPath></defs></svg>