<svg xmlns="http://www.w3.org/2000/svg" width="159" height="77" fill="none" viewBox="0 0 159 77"><path fill="#7F95D1" d="M36.603 63.608C36.603 63.9347 36.26 64.098 35.574 64.098H35.035C34.5777 64.098 33.7447 64.0817 32.536 64.049C31.3273 64.0163 30.3963 64 29.743 64C28.763 64 27.6197 64.0163 26.313 64.049C24.9737 64.049 24.0917 64.049 23.667 64.049H23.324C22.638 64.049 22.295 63.902 22.295 63.608C22.295 63.2813 22.7687 63.118 23.716 63.118C25.382 63.118 26.3947 62.9383 26.754 62.579C26.9173 62.4157 26.999 61.3213 26.999 59.296V33.914C26.999 33.9467 26.8193 34.5183 26.46 35.629C25.1533 39.5817 23.2587 45.527 20.776 53.465L18.473 61.256C18.0157 62.7913 17.689 63.559 17.493 63.559C17.2643 63.559 17.0193 63.167 16.758 62.383C15.8107 59.4103 13.132 51.995 8.722 40.137L6.762 34.894C6.79467 35.5147 6.811 36.364 6.811 37.442V53.367C6.811 59.345 6.86 62.3667 6.958 62.432C7.18667 62.8567 7.97067 63.069 9.31 63.069C10.388 63.069 10.927 63.216 10.927 63.51C10.927 63.8367 10.584 64 9.898 64C9.47333 64 9.08133 63.9837 8.722 63.951C8.26467 63.9183 7.85633 63.902 7.497 63.902L1.862 64.049C1.274 64.049 0.98 63.902 0.98 63.608C0.98 63.2813 1.911 63.1017 3.773 63.069C4.557 63.069 5.01433 62.9383 5.145 62.677C5.27567 62.4157 5.341 61.5663 5.341 60.129V36.658C5.341 33.9467 5.30833 32.4767 5.243 32.248C5.11233 31.7907 4.83467 31.4803 4.41 31.317C3.98533 31.1537 3.07067 31.023 1.666 30.925C1.14333 30.8923 0.882 30.7453 0.882 30.484C0.882 30.1247 1.35567 29.945 2.303 29.945C2.43367 29.945 2.71133 29.9613 3.136 29.994H5.684C7.61133 29.994 8.967 29.9777 9.751 29.945C9.91433 30.3697 10.878 32.934 12.642 37.638C13.3933 39.598 15.5003 45.3147 18.963 54.788C19.5837 52.6647 20.2207 50.574 20.874 48.516L26.068 32.297C26.362 31.3497 26.6233 30.5657 26.852 29.945L34.202 29.896C35.28 29.896 35.9007 29.945 36.064 30.043C36.2273 30.141 36.309 30.288 36.309 30.484C36.309 30.8107 36.0313 30.974 35.476 30.974C34.5613 30.974 33.9407 31.0067 33.614 31.072C32.83 31.2027 32.291 31.464 31.997 31.856C31.8337 32.0847 31.752 33.9957 31.752 37.589V60.374C31.752 61.6807 31.8827 62.4483 32.144 62.677C32.5687 62.971 33.6303 63.118 35.329 63.118H35.623C36.2763 63.118 36.603 63.2813 36.603 63.608ZM60.2643 62.334C60.2643 62.5627 59.9049 62.6933 59.1863 62.726C56.6383 62.8893 54.4006 63.4447 52.4733 64.392C52.3426 64.4573 52.2283 64.49 52.1303 64.49C51.9343 64.49 51.8363 64.3593 51.8363 64.098L51.8853 61.354C50.3826 63.51 48.2756 64.588 45.5643 64.588C43.1469 64.588 41.4156 63.8857 40.3703 62.481C39.9456 61.893 39.6843 61.354 39.5863 60.864C39.5209 60.374 39.4883 59.051 39.4883 56.895V45.674C39.4883 44.5307 39.4229 43.861 39.2923 43.665C39.1616 43.469 38.7206 43.3547 37.9693 43.322L37.3323 43.371C36.4503 43.4363 36.0093 43.3057 36.0093 42.979C36.0093 42.7503 36.2869 42.636 36.8423 42.636C37.4303 42.636 38.2796 42.6687 39.3903 42.734C39.9456 42.7667 40.2723 42.783 40.3703 42.783C41.5136 42.783 42.5753 42.734 43.5553 42.636V56.307C43.5553 58.8223 43.7186 60.4883 44.0453 61.305C44.5679 62.579 45.6296 63.216 47.2303 63.216C48.9616 63.216 50.2356 62.4973 51.0523 61.06C51.6403 60.0147 51.9343 58.3487 51.9343 56.062V48.467C51.9343 47.3563 51.9179 46.5233 51.8853 45.968L51.7873 44.351C51.7546 43.861 51.6403 43.5833 51.4443 43.518C51.2809 43.42 50.9216 43.371 50.3663 43.371C48.9943 43.4037 48.3083 43.2567 48.3083 42.93C48.3083 42.734 48.6513 42.636 49.3373 42.636H49.7783C50.0396 42.6687 50.9053 42.685 52.3753 42.685C54.3353 42.685 55.5439 42.6687 56.0013 42.636V56.307C56.0013 58.659 56.0503 60.1453 56.1483 60.766C56.2463 61.3867 56.4913 61.746 56.8833 61.844C57.3079 61.942 58.2389 61.991 59.6763 61.991C60.0683 61.991 60.2643 62.1053 60.2643 62.334ZM82.3257 63.706C82.3257 63.9673 82.0807 64.098 81.5907 64.098H81.0027C80.4147 64.0327 79.6144 64 78.6017 64C75.4004 64 73.5057 64.0327 72.9177 64.098H72.5747C72.1501 64.098 71.9377 63.9837 71.9377 63.755C71.9377 63.5917 72.0194 63.4937 72.1827 63.461C72.3787 63.4283 73.0157 63.3957 74.0937 63.363C74.7144 63.3303 75.0737 63.2487 75.1717 63.118C75.2697 62.9547 75.3187 62.4157 75.3187 61.501V52.093C75.3187 48.5323 75.1881 46.409 74.9267 45.723C74.3714 44.253 73.2607 43.518 71.5947 43.518C69.9614 43.518 68.5894 44.2367 67.4787 45.674C67.1521 46.0987 66.9887 46.6867 66.9887 47.438L67.0377 62.726C67.0377 63.118 67.3807 63.3303 68.0667 63.363L69.5367 63.412C69.8634 63.412 70.0267 63.5263 70.0267 63.755C70.0267 63.9837 69.8307 64.098 69.4387 64.098H68.6547C67.9361 64.0327 66.7927 64 65.2247 64C64.8654 64 64.0814 64.0163 62.8727 64.049C61.6967 64.0817 61.0107 64.098 60.8147 64.098H60.5207C60.0307 64.098 59.7857 63.9837 59.7857 63.755C59.7857 63.5263 60.0797 63.3793 60.6677 63.314C61.0924 63.314 61.5007 63.314 61.8927 63.314C62.3827 63.314 62.6767 63.1997 62.7747 62.971L62.9217 62.236V51.554C62.9217 47.83 62.8891 45.772 62.8237 45.38C62.7584 44.988 62.3501 44.792 61.5987 44.792C61.3701 44.792 60.9781 44.8247 60.4227 44.89H60.1777C59.5244 44.89 59.1977 44.7757 59.1977 44.547C59.1977 44.253 59.5407 44.106 60.2267 44.106C61.2067 44.0733 62.2684 43.8937 63.4117 43.567C64.5551 43.2403 65.3554 42.8647 65.8127 42.44C66.1067 42.1787 66.3354 42.048 66.4987 42.048C66.7274 42.048 66.8417 42.3583 66.8417 42.979V45.331C68.5404 43.1423 70.7291 42.048 73.4077 42.048C75.7597 42.048 77.4584 42.9137 78.5037 44.645C79.0917 45.625 79.3857 47.487 79.3857 50.231V61.403C79.3857 62.4483 79.4347 63.02 79.5327 63.118C79.7287 63.314 80.2024 63.412 80.9537 63.412C81.0517 63.412 81.2314 63.3957 81.4927 63.363H81.8357C82.1624 63.363 82.3257 63.4773 82.3257 63.706ZM100.664 47.095C100.664 48.5977 99.9294 49.349 98.4594 49.349C97.022 49.349 96.3034 48.663 96.3034 47.291C96.3034 46.9317 96.4667 46.3927 96.7934 45.674C96.8914 45.4453 96.9404 45.2167 96.9404 44.988C96.9404 44.3347 96.5974 43.7957 95.9114 43.371C95.258 42.9463 94.425 42.734 93.4124 42.734C91.4524 42.734 89.9334 43.5833 88.8554 45.282C87.7774 46.9807 87.2384 49.3653 87.2384 52.436C87.2384 55.8987 87.7937 58.5773 88.9044 60.472C90.015 62.334 91.583 63.265 93.6084 63.265C94.9804 63.265 96.2054 62.8403 97.2834 61.991C97.7734 61.599 98.4104 60.8477 99.1944 59.737C99.3577 59.5737 99.5047 59.492 99.6354 59.492C99.962 59.492 100.125 59.6227 100.125 59.884C100.125 60.3087 99.5537 61.109 98.4104 62.285C96.9404 63.8203 95.062 64.588 92.7754 64.588C89.9007 64.588 87.516 63.559 85.6214 61.501C83.7594 59.443 82.8284 56.846 82.8284 53.71C82.8284 50.3453 83.8247 47.5687 85.8174 45.38C87.81 43.1587 90.309 42.048 93.3144 42.048C95.2417 42.048 96.9404 42.5543 98.4104 43.567C99.913 44.5797 100.664 45.7557 100.664 47.095ZM123.36 63.706C123.36 63.9673 123.083 64.098 122.527 64.098C122.266 64.098 122.021 64.0817 121.792 64.049C120.649 64.0817 118.101 64.098 114.148 64.098H113.609C113.185 64.098 112.972 63.9673 112.972 63.706C112.972 63.4773 113.593 63.363 114.834 63.363C115.586 63.363 116.01 63.2813 116.108 63.118C116.239 62.922 116.304 62.3013 116.304 61.256V51.309C116.304 48.3363 116.174 46.4907 115.912 45.772C115.357 44.2693 114.132 43.518 112.237 43.518C110.669 43.518 109.395 44.2203 108.415 45.625C108.089 46.0823 107.925 47.095 107.925 48.663V61.158C107.925 62.04 107.942 62.5463 107.974 62.677C108.007 63.0037 108.138 63.1997 108.366 63.265C108.595 63.2977 109.297 63.3303 110.473 63.363C110.865 63.363 111.061 63.4937 111.061 63.755C111.061 63.9837 110.898 64.098 110.571 64.098C110.571 64.098 110.408 64.0817 110.081 64.049L106.21 64C103.499 63.9673 101.996 64 101.702 64.098H101.212C100.853 64.098 100.673 63.9837 100.673 63.755C100.673 63.4937 100.853 63.363 101.212 63.363H101.947L102.682 63.314C103.434 63.3467 103.826 63.118 103.858 62.628V40.627C103.858 35.4003 103.777 32.5747 103.613 32.15C103.417 31.8233 102.617 31.6437 101.212 31.611C100.428 31.611 100.036 31.4967 100.036 31.268C100.036 31.072 100.118 30.9577 100.281 30.925C100.445 30.8923 101 30.8597 101.947 30.827C103.613 30.7943 105.214 30.4023 106.749 29.651C106.88 29.5857 107.109 29.504 107.435 29.406C107.664 29.798 107.778 31.0557 107.778 33.179V45.184C109.216 43.0933 111.176 42.048 113.658 42.048C116.272 42.048 118.134 42.7667 119.244 44.204C119.8 44.9227 120.143 45.9353 120.273 47.242C120.339 47.6993 120.371 48.7937 120.371 50.525V62.873C120.404 63.1997 121.253 63.363 122.919 63.363C123.213 63.4283 123.36 63.5427 123.36 63.706ZM143.037 42.979C143.037 43.2077 142.645 43.3383 141.861 43.371C141.077 43.4037 140.57 43.469 140.342 43.567C140.146 43.665 139.966 43.9427 139.803 44.4L139.46 45.282L139.068 46.507C138.61 48.0097 137.924 50.2473 137.01 53.22C134.429 61.5173 132.289 67.9527 130.591 72.526C129.545 75.3027 128.108 76.691 126.279 76.691C125.495 76.691 124.841 76.4623 124.319 76.005C123.829 75.5477 123.584 74.9597 123.584 74.241C123.584 73.6203 123.78 73.114 124.172 72.722C124.596 72.33 125.135 72.134 125.789 72.134C126.671 72.134 127.308 72.4933 127.7 73.212C127.994 73.7673 128.239 74.045 128.435 74.045C128.729 74.045 129.186 73.2447 129.807 71.644C130.721 69.2593 131.44 67.1197 131.963 65.225C129.545 58.8877 127.487 53.3507 125.789 48.614C124.613 45.38 123.959 43.7467 123.829 43.714C123.633 43.5507 123.11 43.469 122.261 43.469C121.379 43.469 120.938 43.3057 120.938 42.979C120.938 42.7177 121.15 42.587 121.575 42.587C121.934 42.587 122.489 42.6197 123.241 42.685C123.992 42.7177 124.564 42.734 124.956 42.734C125.086 42.734 125.38 42.734 125.838 42.734C126.524 42.7013 127.471 42.6687 128.68 42.636L131.179 42.587C131.538 42.587 131.718 42.7177 131.718 42.979C131.718 43.2077 131.113 43.3383 129.905 43.371C128.892 43.4037 128.386 43.567 128.386 43.861C128.386 44.1223 128.712 45.135 129.366 46.899C129.627 47.6503 129.905 48.4343 130.199 49.251L131.032 51.701C131.26 52.4197 131.865 54.053 132.845 56.601C133.171 57.385 133.531 58.3323 133.923 59.443C137.059 49.6103 138.627 44.449 138.627 43.959C138.627 43.665 138.496 43.4853 138.235 43.42C138.006 43.3547 137.32 43.322 136.177 43.322C135.85 43.322 135.687 43.1913 135.687 42.93C135.687 42.7013 135.883 42.587 136.275 42.587C136.438 42.587 136.569 42.6033 136.667 42.636C137.777 42.7013 138.692 42.734 139.411 42.734H140.783C141.371 42.734 141.746 42.7177 141.91 42.685C142.106 42.6523 142.334 42.636 142.596 42.636C142.89 42.636 143.037 42.7503 143.037 42.979ZM157.167 57.777C157.167 59.6717 156.464 61.2887 155.06 62.628C153.688 63.9347 152.038 64.588 150.111 64.588C149 64.588 147.644 64.196 146.044 63.412C145.619 63.1833 145.243 63.069 144.917 63.069C144.459 63.069 144.116 63.3793 143.888 64C143.757 64.392 143.577 64.588 143.349 64.588C143.12 64.588 143.006 64.4573 143.006 64.196C143.006 64.0327 143.022 63.8367 143.055 63.608C143.153 62.9547 143.202 61.991 143.202 60.717C143.202 60.619 143.185 60.227 143.153 59.541C143.12 58.855 143.104 58.3977 143.104 58.169V57.63C143.104 57.2707 143.218 57.091 143.447 57.091C143.708 57.091 143.855 57.2707 143.888 57.63C144.084 59.1327 144.508 60.3087 145.162 61.158C146.468 62.8567 148.216 63.706 150.405 63.706C151.581 63.706 152.528 63.363 153.247 62.677C153.965 61.991 154.325 61.0763 154.325 59.933C154.325 58.659 153.916 57.6463 153.1 56.895C152.642 56.4703 152.218 56.1763 151.826 56.013C151.466 55.817 150.372 55.376 148.543 54.69C144.917 53.318 143.104 51.26 143.104 48.516C143.104 46.6867 143.724 45.1513 144.966 43.91C146.207 42.6687 147.742 42.048 149.572 42.048C150.225 42.048 151.205 42.244 152.512 42.636C152.838 42.734 153.132 42.783 153.394 42.783C154.08 42.783 154.504 42.4563 154.668 41.803C154.766 41.4763 154.913 41.313 155.109 41.313C155.337 41.313 155.452 41.4437 155.452 41.705C155.452 41.7377 155.435 41.8357 155.403 41.999L155.354 44.057C155.321 44.841 155.403 46.0987 155.599 47.83V47.928C155.599 48.1893 155.468 48.32 155.207 48.32C155.011 48.32 154.766 47.83 154.472 46.85C154.112 45.674 153.475 44.7267 152.561 44.008C151.679 43.2893 150.65 42.93 149.474 42.93C148.363 42.93 147.448 43.273 146.73 43.959C146.011 44.645 145.652 45.5107 145.652 46.556C145.652 48.1893 146.746 49.4307 148.935 50.28C152.332 51.6193 154.488 52.73 155.403 53.612C156.579 54.7553 157.167 56.1437 157.167 57.777Z"/><path fill="#FF82A9" d="M38.372 33.2115C38.2486 33.4543 38.0496 33.6311 37.8186 33.703C37.5876 33.7749 37.3436 33.736 37.1404 33.5948L27.9425 27.2095C27.7392 27.0683 27.5933 26.8366 27.5368 26.5651C27.4803 26.2936 27.5178 26.0047 27.6412 25.7619L28.5714 23.9311L39.3022 31.3807L38.372 33.2115Z"/><path fill="#FF82A9" d="M36.5661 8.61048C37.5847 7.47708 38.8788 6.76065 40.2538 6.56878C41.6288 6.3769 43.0106 6.71994 44.1917 7.54637C45.3728 8.37281 46.2894 9.63803 46.8039 11.152C47.3184 12.666 47.4029 14.3471 47.0449 15.9427C48.0794 16.886 48.7866 18.2477 49.0369 19.7784C49.2872 21.3091 49.0639 22.9063 48.4078 24.2774C47.7518 25.6485 46.7069 26.7017 45.4646 27.2441C44.2223 27.7865 42.8658 27.7817 41.6436 27.2306L40.1847 30.1226L37.8463 28.4864L39.2658 25.6727L37.7069 24.5819L36.2875 27.3956L33.1697 25.2141L34.5892 22.4003L33.0303 21.3095L31.6108 24.1233L29.2725 22.4871L30.7314 19.5951C29.736 18.5945 29.0838 17.1937 28.8942 15.6494C28.7046 14.1051 28.9903 12.5206 29.699 11.1864C30.4077 9.85209 31.492 8.8573 32.7531 8.38423C34.0143 7.91116 35.3679 7.99148 36.5661 8.61048V8.61048Z"/></svg>