<svg width="114" height="61" viewBox="0 0 114 61" fill="none" xmlns="http://www.w3.org/2000/svg">
<path d="M26.145 50.72C26.145 50.9533 25.9 51.07 25.41 51.07H25.025C24.6983 51.07 24.1033 51.0583 23.24 51.035C22.3767 51.0117 21.7117 51 21.245 51C20.545 51 19.7283 51.0117 18.795 51.035C17.8383 51.035 17.2083 51.035 16.905 51.035H16.66C16.17 51.035 15.925 50.93 15.925 50.72C15.925 50.4867 16.2633 50.37 16.94 50.37C18.13 50.37 18.8533 50.2417 19.11 49.985C19.2267 49.8683 19.285 49.0867 19.285 47.64V29.51C19.285 29.5333 19.1567 29.9417 18.9 30.735C17.9667 33.5583 16.6133 37.805 14.84 43.475L13.195 49.04C12.8683 50.1367 12.635 50.685 12.495 50.685C12.3317 50.685 12.1567 50.405 11.97 49.845C11.2933 47.7217 9.38 42.425 6.23 33.955L4.83 30.21C4.85333 30.6533 4.865 31.26 4.865 32.03V43.405C4.865 47.675 4.9 49.8333 4.97 49.88C5.13333 50.1833 5.69333 50.335 6.65 50.335C7.42 50.335 7.805 50.44 7.805 50.65C7.805 50.8833 7.56 51 7.07 51C6.76667 51 6.48667 50.9883 6.23 50.965C5.90333 50.9417 5.61167 50.93 5.355 50.93L1.33 51.035C0.91 51.035 0.7 50.93 0.7 50.72C0.7 50.4867 1.365 50.3583 2.695 50.335C3.255 50.335 3.58167 50.2417 3.675 50.055C3.76833 49.8683 3.815 49.2617 3.815 48.235V31.47C3.815 29.5333 3.79167 28.4833 3.745 28.32C3.65167 27.9933 3.45333 27.7717 3.15 27.655C2.84667 27.5383 2.19333 27.445 1.19 27.375C0.816667 27.3517 0.63 27.2467 0.63 27.06C0.63 26.8033 0.968333 26.675 1.645 26.675C1.73833 26.675 1.93667 26.6867 2.24 26.71H4.06C5.43667 26.71 6.405 26.6983 6.965 26.675C7.08167 26.9783 7.77 28.81 9.03 32.17C9.56667 33.57 11.0717 37.6533 13.545 44.42C13.9883 42.9033 14.4433 41.41 14.91 39.94L18.62 28.355C18.83 27.6783 19.0167 27.1183 19.18 26.675L24.43 26.64C25.2 26.64 25.6433 26.675 25.76 26.745C25.8767 26.815 25.935 26.92 25.935 27.06C25.935 27.2933 25.7367 27.41 25.34 27.41C24.6867 27.41 24.2433 27.4333 24.01 27.48C23.45 27.5733 23.065 27.76 22.855 28.04C22.7383 28.2033 22.68 29.5683 22.68 32.135V48.41C22.68 49.3433 22.7733 49.8917 22.96 50.055C23.2633 50.265 24.0217 50.37 25.235 50.37H25.445C25.9117 50.37 26.145 50.4867 26.145 50.72ZM43.0459 49.81C43.0459 49.9733 42.7892 50.0667 42.2759 50.09C40.4559 50.2067 38.8576 50.6033 37.4809 51.28C37.3876 51.3267 37.3059 51.35 37.2359 51.35C37.0959 51.35 37.0259 51.2567 37.0259 51.07L37.0609 49.11C35.9876 50.65 34.4826 51.42 32.5459 51.42C30.8192 51.42 29.5826 50.9183 28.8359 49.915C28.5326 49.495 28.3459 49.11 28.2759 48.76C28.2292 48.41 28.2059 47.465 28.2059 45.925V37.91C28.2059 37.0933 28.1592 36.615 28.0659 36.475C27.9726 36.335 27.6576 36.2533 27.1209 36.23L26.6659 36.265C26.0359 36.3117 25.7209 36.2183 25.7209 35.985C25.7209 35.8217 25.9192 35.74 26.3159 35.74C26.7359 35.74 27.3426 35.7633 28.1359 35.81C28.5326 35.8333 28.7659 35.845 28.8359 35.845C29.6526 35.845 30.4109 35.81 31.1109 35.74V45.505C31.1109 47.3017 31.2276 48.4917 31.4609 49.075C31.8342 49.985 32.5926 50.44 33.7359 50.44C34.9726 50.44 35.8826 49.9267 36.4659 48.9C36.8859 48.1533 37.0959 46.9633 37.0959 45.33V39.905C37.0959 39.1117 37.0842 38.5167 37.0609 38.12L36.9909 36.965C36.9676 36.615 36.8859 36.4167 36.7459 36.37C36.6292 36.3 36.3726 36.265 35.9759 36.265C34.9959 36.2883 34.5059 36.1833 34.5059 35.95C34.5059 35.81 34.7509 35.74 35.2409 35.74H35.5559C35.7426 35.7633 36.3609 35.775 37.4109 35.775C38.8109 35.775 39.6742 35.7633 40.0009 35.74V45.505C40.0009 47.185 40.0359 48.2467 40.1059 48.69C40.1759 49.1333 40.3509 49.39 40.6309 49.46C40.9342 49.53 41.5992 49.565 42.6259 49.565C42.9059 49.565 43.0459 49.6467 43.0459 49.81ZM58.8041 50.79C58.8041 50.9767 58.6291 51.07 58.2791 51.07H57.8591C57.4391 51.0233 56.8674 51 56.1441 51C53.8574 51 52.5041 51.0233 52.0841 51.07H51.8391C51.5358 51.07 51.3841 50.9883 51.3841 50.825C51.3841 50.7083 51.4424 50.6383 51.5591 50.615C51.6991 50.5917 52.1541 50.5683 52.9241 50.545C53.3674 50.5217 53.6241 50.4633 53.6941 50.37C53.7641 50.2533 53.7991 49.8683 53.7991 49.215V42.495C53.7991 39.9517 53.7058 38.435 53.5191 37.945C53.1224 36.895 52.3291 36.37 51.1391 36.37C49.9724 36.37 48.9924 36.8833 48.1991 37.91C47.9658 38.2133 47.8491 38.6333 47.8491 39.17L47.8841 50.09C47.8841 50.37 48.1291 50.5217 48.6191 50.545L49.6691 50.58C49.9024 50.58 50.0191 50.6617 50.0191 50.825C50.0191 50.9883 49.8791 51.07 49.5991 51.07H49.0391C48.5258 51.0233 47.7091 51 46.5891 51C46.3324 51 45.7724 51.0117 44.9091 51.035C44.0691 51.0583 43.5791 51.07 43.4391 51.07H43.2291C42.8791 51.07 42.7041 50.9883 42.7041 50.825C42.7041 50.6617 42.9141 50.5567 43.3341 50.51C43.6374 50.51 43.9291 50.51 44.2091 50.51C44.5591 50.51 44.7691 50.4283 44.8391 50.265L44.9441 49.74V42.11C44.9441 39.45 44.9208 37.98 44.8741 37.7C44.8274 37.42 44.5358 37.28 43.9991 37.28C43.8358 37.28 43.5558 37.3033 43.1591 37.35H42.9841C42.5174 37.35 42.2841 37.2683 42.2841 37.105C42.2841 36.895 42.5291 36.79 43.0191 36.79C43.7191 36.7667 44.4774 36.6383 45.2941 36.405C46.1108 36.1717 46.6824 35.9033 47.0091 35.6C47.2191 35.4133 47.3824 35.32 47.4991 35.32C47.6624 35.32 47.7441 35.5417 47.7441 35.985V37.665C48.9574 36.1017 50.5208 35.32 52.4341 35.32C54.1141 35.32 55.3274 35.9383 56.0741 37.175C56.4941 37.875 56.7041 39.205 56.7041 41.165V49.145C56.7041 49.8917 56.7391 50.3 56.8091 50.37C56.9491 50.51 57.2874 50.58 57.8241 50.58C57.8941 50.58 58.0224 50.5683 58.2091 50.545H58.4541C58.6874 50.545 58.8041 50.6267 58.8041 50.79ZM71.9031 38.925C71.9031 39.9983 71.3781 40.535 70.3281 40.535C69.3015 40.535 68.7881 40.045 68.7881 39.065C68.7881 38.8083 68.9048 38.4233 69.1381 37.91C69.2081 37.7467 69.2431 37.5833 69.2431 37.42C69.2431 36.9533 68.9981 36.5683 68.5081 36.265C68.0415 35.9617 67.4465 35.81 66.7231 35.81C65.3231 35.81 64.2381 36.4167 63.4681 37.63C62.6981 38.8433 62.3131 40.5467 62.3131 42.74C62.3131 45.2133 62.7098 47.1267 63.5031 48.48C64.2965 49.81 65.4165 50.475 66.8631 50.475C67.8431 50.475 68.7181 50.1717 69.4881 49.565C69.8381 49.285 70.2931 48.7483 70.8531 47.955C70.9698 47.8383 71.0748 47.78 71.1681 47.78C71.4015 47.78 71.5181 47.8733 71.5181 48.06C71.5181 48.3633 71.1098 48.935 70.2931 49.775C69.2431 50.8717 67.9015 51.42 66.2681 51.42C64.2148 51.42 62.5115 50.685 61.1581 49.215C59.8281 47.745 59.1631 45.89 59.1631 43.65C59.1631 41.2467 59.8748 39.2633 61.2981 37.7C62.7215 36.1133 64.5065 35.32 66.6531 35.32C68.0298 35.32 69.2431 35.6817 70.2931 36.405C71.3665 37.1283 71.9031 37.9683 71.9031 38.925ZM88.1144 50.79C88.1144 50.9767 87.9161 51.07 87.5194 51.07C87.3327 51.07 87.1577 51.0583 86.9944 51.035C86.1777 51.0583 84.3577 51.07 81.5344 51.07H81.1494C80.8461 51.07 80.6944 50.9767 80.6944 50.79C80.6944 50.6267 81.1377 50.545 82.0244 50.545C82.5611 50.545 82.8644 50.4867 82.9344 50.37C83.0277 50.23 83.0744 49.7867 83.0744 49.04V41.935C83.0744 39.8117 82.9811 38.4933 82.7944 37.98C82.3977 36.9067 81.5227 36.37 80.1694 36.37C79.0494 36.37 78.1394 36.8717 77.4394 37.875C77.2061 38.2017 77.0894 38.925 77.0894 40.045V48.97C77.0894 49.6 77.1011 49.9617 77.1244 50.055C77.1477 50.2883 77.2411 50.4283 77.4044 50.475C77.5677 50.4983 78.0694 50.5217 78.9094 50.545C79.1894 50.545 79.3294 50.6383 79.3294 50.825C79.3294 50.9883 79.2127 51.07 78.9794 51.07C78.9794 51.07 78.8627 51.0583 78.6294 51.035L75.8644 51C73.9277 50.9767 72.8544 51 72.6444 51.07H72.2944C72.0377 51.07 71.9094 50.9883 71.9094 50.825C71.9094 50.6383 72.0377 50.545 72.2944 50.545H72.8194L73.3444 50.51C73.8811 50.5333 74.1611 50.37 74.1844 50.02V34.305C74.1844 30.5717 74.1261 28.5533 74.0094 28.25C73.8694 28.0167 73.2977 27.8883 72.2944 27.865C71.7344 27.865 71.4544 27.7833 71.4544 27.62C71.4544 27.48 71.5127 27.3983 71.6294 27.375C71.7461 27.3517 72.1427 27.3283 72.8194 27.305C74.0094 27.2817 75.1527 27.0017 76.2494 26.465C76.3427 26.4183 76.5061 26.36 76.7394 26.29C76.9027 26.57 76.9844 27.4683 76.9844 28.985V37.56C78.0111 36.0667 79.4111 35.32 81.1844 35.32C83.0511 35.32 84.3811 35.8333 85.1744 36.86C85.5711 37.3733 85.8161 38.0967 85.9094 39.03C85.9561 39.3567 85.9794 40.1383 85.9794 41.375V50.195C86.0027 50.4283 86.6094 50.545 87.7994 50.545C88.0094 50.5917 88.1144 50.6733 88.1144 50.79ZM102.169 35.985C102.169 36.1483 101.889 36.2417 101.329 36.265C100.769 36.2883 100.407 36.335 100.244 36.405C100.104 36.475 99.9758 36.6733 99.8591 37L99.6141 37.63L99.3341 38.505C99.0074 39.5783 98.5174 41.1767 97.8641 43.3C96.0208 49.2267 94.4924 53.8233 93.2791 57.09C92.5324 59.0733 91.5058 60.065 90.1991 60.065C89.6391 60.065 89.1724 59.9017 88.7991 59.575C88.4491 59.2483 88.2741 58.8283 88.2741 58.315C88.2741 57.8717 88.4141 57.51 88.6941 57.23C88.9974 56.95 89.3824 56.81 89.8491 56.81C90.4791 56.81 90.9341 57.0667 91.2141 57.58C91.4241 57.9767 91.5991 58.175 91.7391 58.175C91.9491 58.175 92.2758 57.6033 92.7191 56.46C93.3724 54.7567 93.8858 53.2283 94.2591 51.875C92.5324 47.3483 91.0624 43.3933 89.8491 40.01C89.0091 37.7 88.5424 36.5333 88.4491 36.51C88.3091 36.3933 87.9358 36.335 87.3291 36.335C86.6991 36.335 86.3841 36.2183 86.3841 35.985C86.3841 35.7983 86.5358 35.705 86.8391 35.705C87.0958 35.705 87.4924 35.7283 88.0291 35.775C88.5658 35.7983 88.9741 35.81 89.2541 35.81C89.3474 35.81 89.5574 35.81 89.8841 35.81C90.3741 35.7867 91.0508 35.7633 91.9141 35.74L93.6991 35.705C93.9558 35.705 94.0841 35.7983 94.0841 35.985C94.0841 36.1483 93.6524 36.2417 92.7891 36.265C92.0658 36.2883 91.7041 36.405 91.7041 36.615C91.7041 36.8017 91.9374 37.525 92.4041 38.785C92.5908 39.3217 92.7891 39.8817 92.9991 40.465L93.5941 42.215C93.7574 42.7283 94.1891 43.895 94.8891 45.715C95.1224 46.275 95.3791 46.9517 95.6591 47.745C97.8991 40.7217 99.0191 37.035 99.0191 36.685C99.0191 36.475 98.9258 36.3467 98.7391 36.3C98.5758 36.2533 98.0858 36.23 97.2691 36.23C97.0358 36.23 96.9191 36.1367 96.9191 35.95C96.9191 35.7867 97.0591 35.705 97.3391 35.705C97.4558 35.705 97.5491 35.7167 97.6191 35.74C98.4124 35.7867 99.0658 35.81 99.5791 35.81H100.559C100.979 35.81 101.247 35.7983 101.364 35.775C101.504 35.7517 101.667 35.74 101.854 35.74C102.064 35.74 102.169 35.8217 102.169 35.985ZM112.262 46.555C112.262 47.9083 111.76 49.0633 110.757 50.02C109.777 50.9533 108.599 51.42 107.222 51.42C106.429 51.42 105.46 51.14 104.317 50.58C104.014 50.4167 103.745 50.335 103.512 50.335C103.185 50.335 102.94 50.5567 102.777 51C102.684 51.28 102.555 51.42 102.392 51.42C102.229 51.42 102.147 51.3267 102.147 51.14C102.147 51.0233 102.159 50.8833 102.182 50.72C102.252 50.2533 102.287 49.565 102.287 48.655C102.287 48.585 102.275 48.305 102.252 47.815C102.229 47.325 102.217 46.9983 102.217 46.835V46.45C102.217 46.1933 102.299 46.065 102.462 46.065C102.649 46.065 102.754 46.1933 102.777 46.45C102.917 47.5233 103.22 48.3633 103.687 48.97C104.62 50.1833 105.869 50.79 107.432 50.79C108.272 50.79 108.949 50.545 109.462 50.055C109.975 49.565 110.232 48.9117 110.232 48.095C110.232 47.185 109.94 46.4617 109.357 45.925C109.03 45.6217 108.727 45.4117 108.447 45.295C108.19 45.155 107.409 44.84 106.102 44.35C103.512 43.37 102.217 41.9 102.217 39.94C102.217 38.6333 102.66 37.5367 103.547 36.65C104.434 35.7633 105.53 35.32 106.837 35.32C107.304 35.32 108.004 35.46 108.937 35.74C109.17 35.81 109.38 35.845 109.567 35.845C110.057 35.845 110.36 35.6117 110.477 35.145C110.547 34.9117 110.652 34.795 110.792 34.795C110.955 34.795 111.037 34.8883 111.037 35.075C111.037 35.0983 111.025 35.1683 111.002 35.285L110.967 36.755C110.944 37.315 111.002 38.2133 111.142 39.45V39.52C111.142 39.7067 111.049 39.8 110.862 39.8C110.722 39.8 110.547 39.45 110.337 38.75C110.08 37.91 109.625 37.2333 108.972 36.72C108.342 36.2067 107.607 35.95 106.767 35.95C105.974 35.95 105.32 36.195 104.807 36.685C104.294 37.175 104.037 37.7933 104.037 38.54C104.037 39.7067 104.819 40.5933 106.382 41.2C108.809 42.1567 110.349 42.95 111.002 43.58C111.842 44.3967 112.262 45.3883 112.262 46.555Z" fill="#FFC0BE"/>
<g clip-path="url(#clip0)">
<path d="M26.8369 29.4825C26.7012 29.7104 26.4806 29.875 26.2235 29.9402C25.9664 30.0054 25.694 29.9658 25.4661 29.8301L15.1554 23.6911C14.9275 23.5554 14.7628 23.3347 14.6976 23.0777C14.6324 22.8206 14.672 22.5481 14.8077 22.3202L15.8309 20.6018L27.8601 27.764L26.8369 29.4825Z" fill="#7F95D1"/>
<path d="M24.2335 7.03371C25.3419 6.00047 26.7556 5.35472 28.2623 5.19343C29.769 5.03215 31.2873 5.36403 32.5893 6.13925C33.8913 6.91446 34.9067 8.09116 35.4829 9.49263C36.0591 10.8941 36.1651 12.4447 35.785 13.9115C36.9271 14.7928 37.7136 16.056 38.0002 17.4699C38.2868 18.8837 38.0545 20.3535 37.3456 21.61C36.6368 22.8665 35.499 23.8255 34.1407 24.3114C32.7824 24.7973 31.2945 24.7775 29.9495 24.2557L28.3721 26.905L25.7944 25.3703L27.3292 22.7926L25.6107 21.7694L24.076 24.3471L20.639 22.3007L22.1738 19.723L20.4553 18.6999L18.9206 21.2775L16.3429 19.7428L17.9203 17.0934C16.8206 16.1597 16.0942 14.861 15.874 13.4353C15.6539 12.0096 15.9548 10.5523 16.7216 9.33037C17.4885 8.10844 18.6699 7.20371 20.0495 6.78192C21.4291 6.36013 22.9144 6.44952 24.2335 7.03371V7.03371Z" fill="#7F95D1"/>
</g>
<defs>
<clipPath id="clip0">
<rect width="24" height="24" transform="matrix(-0.85923 -0.51159 -0.51159 0.85923 42.8997 12.2782)" fill="white"/>
</clipPath>
</defs>
</svg>
