<svg xmlns="http://www.w3.org/2000/svg" width="63" height="63" fill="none" viewBox="0 0 63 63"><path fill="#FFE2B8" d="M46.2516 44.0416H42.5712C42.1756 44.2929 41.8305 44.6001 41.5993 44.9313L39.087 48.5323C38.4972 49.3773 37.1711 50.0689 36.1401 50.0689H33.9209C32.8899 50.0689 31.2418 49.8156 30.2584 49.5071L25.0452 47.868C24.0613 47.559 22.876 46.5539 22.4108 45.6344L21.6047 44.0416H16.4189L18.6934 48.4073C19.1697 49.3215 20.2954 50.4804 21.1952 50.9836L28.4391 55.0326C29.0063 55.3499 29.5081 55.9661 29.8017 56.6361H42.6717V55.2249C42.6717 54.1944 43.0043 52.5765 43.4104 51.6291L46.2045 45.1163C46.3789 44.7102 46.3837 44.3367 46.2516 44.0416V44.0416Z"/><path fill="#FFC987" d="M29.8017 56.6361H32.1512V56.0949C32.1512 55.0644 31.4148 53.8099 30.515 53.3071L23.2716 49.2576C22.3713 48.7544 21.2457 47.5955 20.7698 46.6813L19.3942 44.0416H16.4189L18.6934 48.4073C19.1697 49.3215 20.2954 50.4804 21.1952 50.9836L28.4391 55.0326C29.0063 55.3499 29.5081 55.9661 29.8017 56.6361Z"/><path fill="#8A8C8E" d="M33.0675 15.8153V13.8908C32.6095 14.0499 32.0942 14.1393 31.5496 14.1393C31.0046 14.1393 30.4898 14.0499 30.0317 13.8908V15.8153C30.5355 15.7827 31.0416 15.7649 31.5496 15.7649C32.0577 15.7649 32.5638 15.7827 33.0675 15.8153Z"/><path fill="#C7C8CA" d="M35.1016 11.7385C35.1016 10.3441 33.5111 9.21408 31.5496 9.21408C29.588 9.21408 27.9976 10.3441 27.9976 11.7385C27.9976 13.1324 29.588 14.2628 31.5496 14.2628C33.5111 14.2628 35.1016 13.1324 35.1016 11.7385Z"/><path fill="#A7A9AC" d="M30.569 11.7385C30.569 10.6666 31.5097 9.75096 32.8353 9.3847C32.4364 9.27464 32.0033 9.21359 31.5496 9.21359C29.588 9.21359 27.9976 10.3441 27.9976 11.7385C27.9976 13.1323 29.588 14.2628 31.5496 14.2628C32.0033 14.2628 32.4364 14.2018 32.8353 14.0912C31.5092 13.7255 30.569 12.8098 30.569 11.7385Z"/><path fill="#ABEBFF" d="M54.7791 36.765C53.677 24.9174 43.6982 15.6418 31.5492 15.6418C19.4003 15.6418 9.42147 24.9174 8.31934 36.765H54.7791Z"/><path fill="#76D8FF" d="M12.4904 36.765C13.5286 25.6033 22.4467 16.7262 33.6348 15.736C32.9475 15.675 32.2524 15.6418 31.5492 15.6418C19.4003 15.6418 9.42147 24.9174 8.31934 36.765H12.4904Z"/><path fill="#C7C8CA" d="M6.7915 39.794L9.12555 43.1201C9.52161 43.6945 10.4166 44.1641 11.1145 44.1641H51.9843C52.6822 44.1641 53.5772 43.6945 53.9737 43.1201L56.3073 39.794H6.7915Z"/><path fill="#A7A9AC" d="M14.7602 43.1201L12.4262 39.794H6.7915L9.12555 43.1201C9.52161 43.6945 10.4166 44.1646 11.1145 44.1646H16.7492C16.0513 44.1646 15.1563 43.6945 14.7602 43.1201Z"/><path fill="#8A8C8E" d="M58.3002 39.2927C58.3002 39.6364 58.019 39.9171 57.6753 39.9171H5.42368C5.08001 39.9171 4.79883 39.6364 4.79883 39.2927V37.2663C4.79883 36.9231 5.08001 36.6419 5.42368 36.6419H57.6753C58.019 36.6419 58.3002 36.9231 58.3002 37.2663V39.2927Z"/><path fill="#6D6E71" d="M8.68009 39.2927V37.2663C8.68009 36.9231 8.96127 36.6419 9.30494 36.6419H5.42368C5.08001 36.6419 4.79883 36.9231 4.79883 37.2663V39.2927C4.79883 39.6364 5.08001 39.9171 5.42368 39.9171H9.30494C8.96127 39.9171 8.68009 39.6364 8.68009 39.2927Z"/><path fill="#FFAF10" d="M18.9014 14.8334H15.4787C13.2792 14.8334 11.4902 13.0435 11.4902 10.844C11.4902 8.64405 13.2792 6.85458 15.4787 6.85458H17.7613C18.2713 6.85458 18.6842 7.26746 18.6842 7.77744C18.6842 8.28741 18.2713 8.70029 17.7613 8.70029H15.4787C14.2972 8.70029 13.3359 9.66207 13.3359 10.844C13.3359 12.0259 14.2972 12.9877 15.4787 12.9877H18.9014C19.4114 12.9877 19.8243 13.4006 19.8243 13.9106C19.8243 14.42 19.4114 14.8334 18.9014 14.8334Z"/><path fill="#FFAF10" d="M23.9989 8.70028H21.3207C20.8112 8.70028 20.3978 8.2874 20.3978 7.77743C20.3978 7.26746 20.8112 6.85458 21.3207 6.85458H23.9989C25.3793 6.85458 26.5026 5.73129 26.5026 4.35038C26.5026 2.96947 25.3793 1.8457 23.9989 1.8457H20.9751C20.4656 1.8457 20.0522 1.43282 20.0522 0.922852C20.0522 0.41288 20.4656 0 20.9751 0H23.9989C26.3973 0 28.3483 1.95145 28.3483 4.35038C28.3483 6.74883 26.3973 8.70028 23.9989 8.70028Z"/><path fill="#FFAF10" d="M47.1378 3.31024H45.2209C44.7114 3.31024 44.2981 3.72312 44.2981 4.23309C44.2981 4.74258 44.7114 5.15594 45.2209 5.15594H47.1378C48.1606 5.15594 48.9926 5.98795 48.9926 7.01126C48.9926 8.03457 48.1606 8.86658 47.1378 8.86658H41.6247C39.8323 8.86658 38.3745 10.3249 38.3745 12.1177V13.9754C38.3745 14.4854 38.7874 14.8983 39.2974 14.8983C39.8069 14.8983 40.2202 14.4854 40.2202 13.9754V12.1177C40.2202 11.3429 40.8503 10.7123 41.6247 10.7123H47.1378C49.1781 10.7123 50.8383 9.05211 50.8383 7.01126C50.8383 4.97041 49.1781 3.31024 47.1378 3.31024Z"/><path fill="#02AF8E" d="M44.6413 56.513H27.3128C26.9692 56.513 26.688 56.7942 26.688 57.1374V62.3755C26.688 62.7187 26.9692 62.9999 27.3128 62.9999H44.6413C44.985 62.9999 45.2661 62.7187 45.2661 62.3755V57.1374C45.2661 56.7942 44.985 56.513 44.6413 56.513V56.513Z"/><path fill="#159E97" d="M30.5923 62.3755V60.363H29.3003C28.7908 60.363 28.3775 59.9501 28.3775 59.4402C28.3775 58.9307 28.7908 58.5173 29.3003 58.5173H30.5923V57.1374C30.5923 56.7942 30.8735 56.513 31.2172 56.513H27.3128C26.9692 56.513 26.688 56.7942 26.688 57.1374V62.3755C26.688 62.7187 26.9692 62.9999 27.3128 62.9999H31.2172C30.8735 62.9999 30.5923 62.7192 30.5923 62.3755Z"/><path fill="#fff" d="M30.9249 60.363H29.3003C28.7908 60.363 28.3774 59.9502 28.3774 59.4402C28.3774 58.9307 28.7908 58.5173 29.3003 58.5173H30.9249C31.4344 58.5173 31.8477 58.9307 31.8477 59.4402C31.8477 59.9502 31.4344 60.363 30.9249 60.363Z"/><path fill="#008E83" d="M44.6409 56.513H39.7974V62.9999H44.6409C44.9846 62.9999 45.2657 62.7192 45.2657 62.3755V57.1378C45.2657 56.7942 44.9846 56.513 44.6409 56.513Z"/></svg>