<svg xmlns="http://www.w3.org/2000/svg" width="548" height="462" fill="none" viewBox="0 0 548 462"><path fill="#E6E6E6" d="M512.962 0.285934H8.3833V323.329H512.962V0.285934Z"/><path fill="#fff" d="M498.533 40.8036H22.8115V304.217H498.533V40.8036Z"/><path fill="#7F95D1" d="M512.746 0H8.16748V21.4289H512.746V0Z"/><path fill="#fff" d="M24.0976 14.9273C26.2918 14.9273 28.0706 13.1491 28.0706 10.9556C28.0706 8.7621 26.2918 6.98392 24.0976 6.98392C21.9033 6.98392 20.1245 8.7621 20.1245 10.9556C20.1245 13.1491 21.9033 14.9273 24.0976 14.9273Z"/><path fill="#fff" d="M39.1781 14.9273C41.3724 14.9273 43.1512 13.1491 43.1512 10.9556C43.1512 8.7621 41.3724 6.98392 39.1781 6.98392C36.9839 6.98392 35.2051 8.7621 35.2051 10.9556C35.2051 13.1491 36.9839 14.9273 39.1781 14.9273Z"/><path fill="#fff" d="M54.2587 14.9273C56.453 14.9273 58.2318 13.1491 58.2318 10.9556C58.2318 8.7621 56.453 6.98392 54.2587 6.98392C52.0644 6.98392 50.2856 8.7621 50.2856 10.9556C50.2856 13.1491 52.0644 14.9273 54.2587 14.9273Z"/><path fill="#A0616A" d="M539.644 416.036L543.352 430.863L527.037 435.311L525.554 419.743L539.644 416.036Z"/><path fill="#A0616A" d="M480.316 434.57V448.655L464 451.621L461.034 444.207L466.967 431.605L480.316 434.57Z"/><path fill="#2F2E41" d="M512.946 281.111L510.721 301.127L512.205 339.677C512.205 339.677 512.205 343.384 514.43 344.867C515.623 345.677 541.869 419.002 541.869 419.002C541.869 419.002 535.936 426.415 524.812 424.191L522.587 416.778C522.587 416.778 519.621 407.14 518.138 404.916C516.654 402.692 494.406 357.47 494.406 357.47L484.024 338.936L481.057 364.142C481.057 364.142 486.99 396.02 485.507 410.847C484.024 425.674 481.057 441.242 481.057 441.242L463.259 438.277C463.178 435.884 462.405 433.567 461.034 431.605C458.809 428.639 459.551 418.26 459.551 418.26V416.036L455.101 358.952L446.943 284.076L512.946 281.111Z"/><path fill="#A0616A" d="M462.517 146.185C473.576 146.185 482.54 137.223 482.54 126.169C482.54 115.114 473.576 106.152 462.517 106.152C451.458 106.152 442.494 115.114 442.494 126.169C442.494 137.223 451.458 146.185 462.517 146.185Z"/><path fill="#A0616A" d="M479.945 126.539L488.103 146.556L468.821 160.642L456.955 139.883L479.945 126.539Z"/><path fill="#3F3D56" d="M481.057 141.737L488.473 138.03L492.923 148.409C492.923 148.409 521.845 157.305 519.62 198.08C517.396 238.854 512.204 254.422 512.204 254.422C512.204 254.422 524.812 281.111 517.395 284.076C509.979 287.042 446.943 298.162 445.46 287.783C443.976 277.404 450.651 216.613 450.651 216.613C450.651 216.613 448.426 172.874 466.966 163.978L463.258 155.823L481.057 141.737Z"/><path fill="#A0616A" d="M440.269 285.559C440.269 285.559 423.212 303.351 432.853 307.799C442.494 312.247 448.426 287.783 448.426 287.783L440.269 285.559Z"/><path fill="#2F2E41" d="M475.124 444.949L483.282 441.984C483.282 441.984 492.181 462 484.765 462H465.483C465.483 462 454.359 458.293 448.426 458.293C442.493 458.293 431.369 447.173 439.527 441.984C447.685 436.794 458.067 438.277 458.067 438.277L461.034 431.605L464.742 441.984C464.742 441.984 469.191 449.397 475.124 444.949Z"/><path fill="#2F2E41" d="M535.194 428.639C535.194 428.639 539.838 425.71 542.337 426.804C544.835 427.898 546.318 439.759 546.318 439.759C546.318 439.759 553.734 448.656 537.419 450.138C521.104 451.621 517.396 448.656 515.912 444.208C514.429 439.759 517.396 435.311 517.396 435.311L521.845 433.829C521.845 433.829 527.036 430.122 525.553 428.639C524.07 427.157 525.553 424.191 525.553 424.191C525.553 424.191 530.744 434.57 535.194 428.639Z"/><path fill="#2F2E41" d="M469.365 125.848C469.284 125.2 469.138 124.562 468.93 123.943C467.854 121.686 463.655 122.345 462.906 119.959C462.76 119.492 462.791 118.984 462.647 118.516C462.281 117.323 460.878 116.732 459.631 116.789C458.394 116.96 457.181 117.272 456.015 117.72C453.082 118.552 449.961 118.234 446.928 117.91C445.576 117.864 444.251 117.52 443.049 116.9C441.9 116.194 441.073 114.772 441.491 113.491C441.892 112.263 443.237 111.588 443.841 110.446C444.801 108.632 443.628 106.29 444.407 104.391C445.656 101.346 450.385 101.958 452.787 99.7066C453.37 99.1603 453.79 98.4618 454.349 97.8908C456.008 96.1964 458.626 95.8684 460.986 96.1022C463.346 96.3359 465.665 97.0286 468.035 96.9867C470.284 96.9469 472.641 96.2625 474.712 97.1367C475.931 97.76 477.001 98.6385 477.849 99.7124L483.163 105.538C483.892 106.226 484.454 107.072 484.805 108.011C485.125 109.128 484.83 110.326 484.967 111.479C485.278 114.109 487.741 116.095 488.073 118.723C488.14 119.537 488.101 120.357 487.956 121.162L487.212 126.648C487.174 127.183 487.032 127.706 486.792 128.186C486.576 128.555 486.248 128.847 486.005 129.2C485.317 130.195 485.38 131.51 485.038 132.67C484.696 133.83 483.47 134.978 482.397 134.419C481.697 134.054 481.234 131.037 480.384 130.254C479.2 129.163 478.582 129.298 477.121 129.316C474.194 129.353 470.302 129.604 469.365 125.848Z"/><path fill="#3F3D56" d="M472.899 169.167C472.899 169.167 495.147 178.063 488.473 198.08C481.798 218.096 464 279.628 464 279.628L453.617 284.817L450.651 292.972L436.561 287.783L438.785 276.663L443.977 265.542L457.325 182.511C457.325 182.511 457.325 168.426 472.899 169.167Z"/><path fill="#000" d="M489.586 202.157L466.596 280.74L456.955 290.378L462.517 280.369L489.586 202.157Z" opacity=".1"/><path fill="#FBBEBE" d="M36.9403 214.866L41.2751 245.681L59.5775 278.421C64.8756 283.236 60.0592 294.791 60.0592 294.791L55.2428 291.421L54.2795 285.643C54.2795 285.643 33.0872 261.569 27.7891 255.792C22.491 250.014 20.5645 218.237 20.5645 218.237L36.9403 214.866Z"/><path fill="#FBBEBE" d="M20.9883 423.834C20.9883 423.834 21.9516 434.908 21.47 437.797C20.9883 440.686 6.53906 437.316 6.53906 437.316C8.94728 432.501 10.3922 418.057 10.3922 418.057L20.9883 423.834Z"/><path fill="#FBBEBE" d="M92.7533 426.723C92.7533 426.723 94.1982 442.131 93.7166 445.019C93.2349 447.908 78.7856 444.538 78.7856 444.538C81.1939 439.723 82.6388 425.279 82.6388 425.279L92.7533 426.723Z"/><path fill="#FBBEBE" d="M63.238 179.726C72.9134 179.726 80.7569 171.885 80.7569 162.213C80.7569 152.541 72.9134 144.701 63.238 144.701C53.5627 144.701 45.7192 152.541 45.7192 162.213C45.7192 171.885 53.5627 179.726 63.238 179.726Z"/><path fill="#FBBEBE" d="M66.2628 178.763C63.3729 182.615 64.8179 189.356 64.8179 189.356C64.8179 189.356 35.4376 223.54 30.1396 223.54C24.8416 223.54 25.8048 199.467 25.8048 199.467C25.8048 199.467 33.5111 190.319 37.8459 188.393C42.1807 186.467 49.887 165.763 49.887 165.763C49.887 165.763 69.1526 174.911 66.2628 178.763Z"/><path fill="#2F2E41" d="M86.0103 244.244L104.864 275.903C108.305 281.562 101.905 310.206 101.905 310.206L99.0147 371.354L94.1983 432.967V439.708L78.3041 439.226L73.006 373.279L65.2997 323.687L52.777 361.724L32.0664 408.427C30.298 414.188 28.1249 419.817 25.5632 425.271L21.7101 432.012L7.26465 430.324L29.1765 356.428L33.5113 308.28C33.993 281.317 42.6625 266.392 42.6625 266.392V260.614L86.0103 244.244Z"/><path fill="#2F2E41" d="M20.0251 435.39C20.0251 435.39 22.4334 431.538 22.4334 432.982C22.4334 434.427 28.6947 438.279 28.6947 438.279C28.6947 438.279 34.9561 437.316 35.9193 444.538C36.8826 451.76 27.2498 453.204 24.8416 452.723C22.4333 452.242 16.172 453.204 16.172 453.204C16.172 453.204 11.3556 454.167 3.6493 453.204C-4.05698 452.242 2.68602 439.242 3.6493 436.834C4.61258 434.427 9.42901 436.353 9.42901 436.353C18.0986 438.76 20.0251 435.39 20.0251 435.39Z"/><path fill="#2F2E41" d="M92.2717 442.612C92.2717 442.612 94.6799 438.76 94.6799 440.205C94.6799 441.649 100.941 445.501 100.941 445.501C100.941 445.501 107.203 444.538 108.166 451.76C109.129 458.982 99.4964 460.427 97.0882 459.945C94.6799 459.464 88.4186 460.427 88.4186 460.427C88.4186 460.427 83.6022 461.39 75.8959 460.427C68.1896 459.464 74.9326 446.464 75.8959 444.056C76.8592 441.649 81.6756 443.575 81.6756 443.575C90.3452 445.982 92.2717 442.612 92.2717 442.612Z"/><path fill="#3F3D56" d="M59.0384 188.874C71.0794 176.356 84.0838 207.652 84.0838 207.652C84.0838 207.652 88.4186 219.207 85.0471 225.466C81.6755 231.726 88.4185 245.688 88.4185 245.688C71.9244 259.725 55.4877 272.702 40.2543 263.503C42.1809 251.948 35.9195 246.17 31.5847 235.096C27.2499 224.022 19.062 226.429 19.062 226.429C19.062 226.429 19.5437 213.911 20.9886 203.8C22.4335 193.689 35.4379 189.892 35.4379 189.892C37.7955 194.126 46.9973 201.393 59.0384 188.874Z"/><path fill="#FBBEBE" d="M80.2303 209.096L84.5652 239.911L102.868 272.651C108.166 277.466 103.349 289.021 103.349 289.021L98.5328 285.651L97.5695 279.873C97.5695 279.873 76.3772 255.799 71.0791 250.022C65.781 244.244 63.8545 212.467 63.8545 212.467L80.2303 209.096Z"/><path fill="#3F3D56" d="M83.1203 213.911L62.8913 216.318C62.8913 216.318 61.4464 192.726 64.501 186.834C67.5557 180.942 78.7855 187.43 78.7855 187.43C81.6753 187.911 83.1203 213.911 83.1203 213.911Z"/><path fill="#2F2E41" d="M82.8505 152.074C69.8956 158.546 77.3699 176.219 75.8409 183.635C73.3365 195.781 36.4052 189.608 36.4052 189.608C31.9119 188.8 29.1735 138.827 53.7808 139.269C66.1844 139.492 93.9473 146.529 82.8505 152.074Z"/><path fill="#FBBEBE" d="M74.9527 167.44C75.9489 167.44 76.7565 166.148 76.7565 164.555C76.7565 162.961 75.9489 161.67 74.9527 161.67C73.9565 161.67 73.1489 162.961 73.1489 164.555C73.1489 166.148 73.9565 167.44 74.9527 167.44Z"/><path fill="#E6E6E6" d="M145.873 102.828C164.913 106.34 184.336 102.828 203.297 100.448L260.924 93.235C263.254 92.9393 266.646 91.5472 268.016 94.3962C268.788 95.9902 268.269 99.445 268.327 101.277C268.478 106.326 268.464 111.375 268.327 116.423C268.067 126.074 267.36 135.703 266.458 145.31C264.705 164.113 262.223 182.815 260.982 201.69C260.347 211.297 260.029 220.933 260.311 230.541C260.376 232.834 260.469 235.128 260.606 237.414C260.758 239.975 261.905 243.776 259.113 245.485C257.518 246.466 254.38 246.415 252.555 246.704C249.668 247.158 246.782 247.519 243.839 247.815C224.437 249.755 204.784 248.947 185.31 248.832L126.507 248.529L112.164 248.449C110.865 248.449 106.183 249.228 105.382 247.685C105.043 247.028 105.945 243.956 106.103 243.134C106.324 241.778 106.565 240.424 106.825 239.073C108.499 229.589 110.476 220.162 112.467 210.742C116.745 190.547 121.125 170.251 122.885 149.623C123.758 139.273 123.181 128.829 124.249 118.501C124.747 113.704 125.339 103.001 131.724 102.575C137.135 102.215 142.705 102.575 148.131 102.575C148.418 102.575 148.693 102.461 148.896 102.258C149.099 102.055 149.213 101.78 149.213 101.493C149.213 101.206 149.099 100.931 148.896 100.728C148.693 100.525 148.418 100.411 148.131 100.411C143.008 100.411 137.878 100.274 132.756 100.375C129.35 100.44 126.984 101.248 125.36 104.378C121.212 112.413 121.637 123.131 121.507 131.902C121.197 152.897 117.972 173.446 113.773 193.98C111.659 204.316 109.379 214.615 107.279 224.958C106.291 229.899 105.346 234.854 104.48 239.823C104.076 242.189 102.034 247.404 103.83 249.575C105.627 251.745 111.154 250.577 113.629 250.591L130.844 250.692L163.831 250.88C185.144 251.003 206.53 251.601 227.836 250.974C238.009 250.671 248.759 250.253 258.666 247.822C261.617 247.101 263.038 245.745 263.153 242.6C263.327 237.724 262.533 232.697 262.432 227.8C261.71 185.895 271.559 144.574 270.549 102.655C270.484 99.8056 271.559 92.6219 268.442 90.8981C267.042 90.1191 265.224 90.5447 263.752 90.7178C260.938 91.0424 258.132 91.4391 255.318 91.7708L218.774 96.3292C207.092 97.7717 195.418 99.3296 183.716 100.657C171.327 102.099 158.816 102.957 146.471 100.657C145.108 100.404 144.523 102.489 145.894 102.741L145.873 102.828Z"/><path fill="#E6E6E6" d="M122.9 128.324L267.071 121.256C268.463 121.184 268.471 119.02 267.071 119.092L122.9 126.16C121.514 126.225 121.507 128.389 122.9 128.324Z"/><path fill="#E6E6E6" d="M167.316 110.487C166.913 110.915 166.62 111.434 166.463 112C166.306 112.566 166.29 113.161 166.416 113.735C166.542 114.309 166.806 114.843 167.185 115.291C167.565 115.74 168.048 116.089 168.593 116.308C170.534 117.195 172.814 116.452 174.74 115.969C177.626 115.248 180.512 114.606 183.477 114.079C189.932 112.937 196.469 112.329 203.023 112.262C206.01 112.226 208.975 112.363 211.962 112.493C214.127 112.579 216.457 112.752 218.29 111.411C220.382 109.882 221.061 106.896 219.012 105.035C216.126 102.402 209.906 103.931 206.573 104.205C194.477 105.21 182.46 107.002 170.599 109.571C169.242 109.86 169.812 111.952 171.176 111.656C179.002 109.968 186.888 108.612 194.834 107.588C198.74 107.107 202.653 106.701 206.573 106.369C208.42 106.218 210.267 106.081 212.114 105.972C212.836 105.929 213.6 105.85 214.336 105.871C216.623 105.922 216.89 105.511 215.519 108.273C214.3 110.718 214.69 110.437 212.576 110.358C211.681 110.358 210.786 110.257 209.892 110.213C208.059 110.136 206.227 110.096 204.394 110.091C200.493 110.091 196.602 110.278 192.72 110.653C189.43 110.971 186.147 111.418 182.893 111.995C180.858 112.355 178.838 112.774 176.825 113.235C175.938 113.445 175.043 113.661 174.156 113.885C173.73 114 173.297 114.101 172.871 114.209C171.294 114.757 169.949 114.036 168.838 112.045C169.805 111.043 168.283 109.507 167.309 110.516L167.316 110.487Z"/><path fill="#E6E6E6" d="M193.449 141.271C183.009 140.867 171.732 143.687 164.856 152.089C159.473 158.66 156.407 169.933 162.107 177.333C168.232 185.267 181.667 183.868 189.769 180.485C198.341 176.879 207.72 169.443 210.296 160.139C213.507 148.519 203.081 139.734 192.222 139.605C191.942 139.615 191.677 139.733 191.482 139.935C191.288 140.137 191.179 140.406 191.179 140.686C191.179 140.967 191.288 141.236 191.482 141.438C191.677 141.64 191.942 141.758 192.222 141.768C198.413 141.84 204.488 144.495 207.374 150.258C210.397 156.33 207.792 162.706 203.766 167.568C197.316 175.307 187.229 181.142 176.955 180.976C170.786 180.882 163.968 178.769 162.056 172.263C160.483 166.991 161.681 161.228 164.423 156.554C170.353 146.456 182.424 143.038 193.492 143.47C194.885 143.521 194.885 141.357 193.492 141.307L193.449 141.271Z"/><path fill="#E6E6E6" d="M183.081 157.297C182.636 157.132 182.156 157.082 181.686 157.153C181.217 157.223 180.773 157.411 180.396 157.699C180.018 157.987 179.72 158.365 179.528 158.799C179.337 159.234 179.258 159.709 179.3 160.182C179.516 162.995 182.619 163.788 184.949 163.622C186.962 163.449 189.314 162.706 188.607 160.189C188.477 159.744 188.253 159.331 187.949 158.98C187.645 158.629 187.269 158.348 186.847 158.155C186.201 157.899 185.501 157.812 184.812 157.903C184.545 157.903 182.099 158.797 183.138 157.723L181.436 157.499C181.625 157.685 181.769 157.912 181.859 158.161C181.949 158.411 181.982 158.677 181.955 158.941C181.958 159.13 182.011 159.314 182.107 159.477C182.202 159.639 182.339 159.774 182.503 159.867C182.666 159.961 182.851 160.011 183.04 160.012C183.229 160.012 183.414 159.964 183.579 159.872C183.826 159.768 184.098 159.736 184.363 159.778C184.628 159.82 184.876 159.935 185.079 160.111C185.282 160.286 185.432 160.514 185.512 160.77C185.593 161.026 185.6 161.3 185.534 161.56C185.476 161.809 185.508 162.072 185.624 162.3C185.741 162.529 185.934 162.709 186.17 162.809C186.407 162.909 186.671 162.923 186.916 162.847C187.161 162.771 187.372 162.612 187.511 162.396C188.232 161.098 189.105 158.516 188.023 157.16C187.301 156.244 185.909 156.518 185.043 157.052C184.509 157.43 184.011 157.857 183.557 158.328C182.684 159.1 182.114 159.461 182.439 157.982C182.98 155.292 185.548 153.15 187.893 152.075L186.306 150.856C185.474 153.982 183.986 156.896 181.941 159.403L183.788 160.168C183.735 159.177 183.99 158.195 184.517 157.354C185.044 156.514 185.817 155.857 186.732 155.472H185.671L186.234 156.395C186.024 157.759 188.11 158.343 188.319 156.965C188.593 155.184 187.467 152.868 185.382 153.741C182.893 154.78 181.602 157.629 181.652 160.168C181.652 161.033 182.879 161.704 183.506 160.939C185.801 158.153 187.476 154.91 188.42 151.426C188.47 151.219 188.459 151.002 188.388 150.802C188.317 150.601 188.189 150.426 188.02 150.297C187.851 150.167 187.648 150.09 187.436 150.074C187.224 150.058 187.012 150.104 186.825 150.207C184.664 151.184 182.837 152.774 181.573 154.78C180.692 156.222 179.589 158.473 180.483 160.131C180.629 160.395 180.825 160.628 181.061 160.815C181.296 161.003 181.566 161.143 181.856 161.226C182.145 161.31 182.448 161.335 182.748 161.302C183.047 161.268 183.337 161.176 183.601 161.03L183.622 161.019C184.289 160.623 184.898 160.138 185.433 159.576C185.7 159.338 185.996 158.927 186.349 158.855C186.667 158.639 186.652 158.761 186.299 159.237C186.294 159.985 186.076 160.715 185.671 161.343L187.648 162.173C187.826 161.499 187.805 160.789 187.588 160.127C187.371 159.465 186.966 158.88 186.424 158.443C185.881 158.006 185.224 157.735 184.531 157.664C183.837 157.592 183.138 157.723 182.518 158.04L184.148 158.977C184.183 158.06 183.894 157.159 183.333 156.431C183.248 156.291 183.132 156.172 182.995 156.082C182.858 155.992 182.702 155.935 182.539 155.913C182.376 155.892 182.211 155.907 182.055 155.958C181.899 156.009 181.756 156.094 181.638 156.208C180.541 157.355 180.332 159.338 181.71 160.398C182.742 161.185 183.247 160.398 184.379 160.218C188.225 159.72 185.981 161.451 184.625 161.509C184.018 161.574 183.405 161.53 182.814 161.379C181.308 160.87 181.214 160.213 182.532 159.41C183.824 159.937 184.379 157.845 183.11 157.326L183.081 157.297Z"/><path fill="#E6E6E6" d="M181.342 161.249C182.229 164.134 178.564 165.087 176.825 166.082C175.605 166.766 174.541 167.697 173.701 168.815C171.883 171.253 171.205 174.355 170.606 177.276C170.332 178.639 172.417 179.216 172.698 177.853C173.028 175.706 173.642 173.613 174.524 171.628C175.822 169.046 177.684 168.181 180.108 166.854C182.532 165.526 184.286 163.471 183.427 160.672C183.023 159.345 180.931 159.915 181.342 161.249V161.249Z"/><path fill="#E6E6E6" d="M184.949 159.8C184.433 159.871 183.962 160.132 183.628 160.533C183.295 160.933 183.122 161.443 183.145 161.963C183.145 162.822 183.715 163.37 184.105 164.055C185.03 165.457 185.735 166.992 186.197 168.606C186.544 170.157 186.883 172.934 186.075 174.376C184.581 177.052 181.883 176.54 179.581 176.54C177.417 176.54 175.743 177.261 175.815 174.247C175.858 172.552 177.041 170.835 177.979 169.501L176.002 169.241C176.419 171.443 176.639 173.678 176.659 175.92C176.659 176.922 178.196 177.478 178.672 176.461C179.832 174.022 180.753 171.476 181.421 168.859L179.292 168.57L179.668 174.052C179.674 174.286 179.755 174.511 179.9 174.695C180.045 174.879 180.245 175.012 180.47 175.074C180.696 175.135 180.936 175.122 181.154 175.037C181.372 174.952 181.557 174.798 181.681 174.6C181.933 174.321 182.119 173.988 182.222 173.626C182.294 173.287 181.63 171.001 181.363 171.816L183.484 172.104L183.636 166.897L181.471 167.185C181.929 168.654 182.067 170.203 181.875 171.729C181.738 172.934 183.766 173.208 184.04 172.018L185.396 165.022L183.419 165.274C183.889 166.242 184.019 167.339 183.787 168.39C183.629 169.775 185.793 169.76 185.952 168.39C186.136 166.954 185.906 165.495 185.288 164.185C185.179 164.004 185.019 163.86 184.828 163.768C184.638 163.677 184.425 163.643 184.215 163.67C184.006 163.698 183.809 163.786 183.648 163.923C183.488 164.061 183.371 164.242 183.311 164.445L181.948 171.441L184.076 171.729C184.293 170.01 184.127 168.264 183.593 166.616C183.52 166.367 183.361 166.153 183.145 166.012C182.928 165.87 182.668 165.811 182.411 165.845C182.155 165.879 181.919 166.004 181.746 166.197C181.574 166.39 181.476 166.638 181.471 166.897L181.32 172.104C181.326 172.363 181.424 172.611 181.596 172.804C181.769 172.997 182.004 173.122 182.261 173.157C182.517 173.192 182.778 173.134 182.996 172.994C183.213 172.854 183.374 172.641 183.448 172.393L183.564 172.039C183.614 171.855 183.615 171.661 183.567 171.477C183.519 171.292 183.423 171.123 183.29 170.986C181.046 168.549 180.591 172.429 179.812 173.504L181.832 174.052L181.457 168.57C181.378 167.402 179.646 167.041 179.329 168.282C178.719 170.721 177.873 173.096 176.803 175.372L178.824 175.92C178.8 173.485 178.559 171.056 178.102 168.664C177.914 167.669 176.608 167.712 176.125 168.404C174.682 170.482 172.186 175.018 174.112 177.507C175.793 179.67 181.082 178.834 183.34 178.697C186.904 178.495 188.196 176.237 188.585 172.876C188.771 171.267 188.681 169.637 188.319 168.058C188.124 167.207 186.154 161.812 185.562 161.92C186.933 161.668 186.349 159.576 184.985 159.829L184.949 159.8Z"/><path fill="#E6E6E6" d="M180.758 164.661L174.848 172.458L176.717 173.547L181.046 167.286L179.069 166.45L176.912 174.679C176.854 174.929 176.886 175.191 177.002 175.42C177.119 175.649 177.312 175.829 177.548 175.929C177.785 176.029 178.049 176.042 178.294 175.967C178.539 175.891 178.75 175.732 178.889 175.516C179.871 173.89 180.973 172.34 182.186 170.878L180.382 169.825C179.898 171.688 178.964 173.405 177.662 174.823L179.473 175.877C179.584 174.88 179.849 173.907 180.26 172.991C180.815 171.744 179.055 170.64 178.391 171.895C177.781 173.038 177.084 174.133 176.306 175.17L178.283 175.429L178.723 173.374L176.746 173.114L177.063 174.917C177.116 175.099 177.214 175.263 177.349 175.395C177.484 175.527 177.651 175.622 177.834 175.67C178.016 175.718 178.208 175.718 178.391 175.669C178.573 175.621 178.74 175.526 178.874 175.393C180.704 173.5 182.172 171.288 183.204 168.866H181.342C181.831 169.768 182.175 170.742 182.359 171.751C182.619 173.049 184.343 172.566 184.481 171.462C184.79 169.046 184.95 166.613 184.957 164.178H182.792V168.714C182.792 169.89 184.719 170.236 184.921 169.003C185.064 167.909 185.424 166.854 185.981 165.902H184.084C184.541 166.639 184.79 167.486 184.805 168.354C184.805 168.641 184.919 168.916 185.122 169.119C185.325 169.322 185.6 169.436 185.888 169.436C186.175 169.436 186.45 169.322 186.653 169.119C186.856 168.916 186.97 168.641 186.97 168.354L187.244 166.911H185.159C185.368 168.188 186.162 175.379 183.341 174.535C182.864 174.42 182.727 174.448 182.929 174.614L183.571 173.244L185.079 170.049L183.059 169.501C183.189 170.986 183.326 173.107 182.431 174.376C181.71 175.408 179.488 175.819 178.355 175.213C177.607 174.68 176.968 174.009 176.472 173.237L174.993 174.679C176.19 175.552 178.131 177.694 179.675 177.817C180.851 177.91 181.84 176.937 182.612 176.158C183.796 174.935 184.719 173.484 185.326 171.893C185.932 170.302 186.209 168.605 186.14 166.904C186.14 166.617 186.026 166.342 185.823 166.139C185.62 165.936 185.345 165.822 185.058 165.822C184.771 165.822 184.495 165.936 184.293 166.139C184.09 166.342 183.976 166.617 183.976 166.904V169.371C183.976 169.658 184.09 169.933 184.293 170.136C184.495 170.339 184.771 170.453 185.058 170.453C185.345 170.453 185.62 170.339 185.823 170.136C186.026 169.933 186.14 169.658 186.14 169.371V163.319C186.14 163.033 186.026 162.757 185.823 162.554C185.62 162.352 185.345 162.238 185.058 162.238C184.771 162.238 184.495 162.352 184.293 162.554C184.09 162.757 183.976 163.033 183.976 163.319C183.972 164.77 183.846 166.217 183.6 167.647L185.729 167.935C185.559 166.212 185.48 164.481 185.491 162.75C185.487 162.49 185.391 162.241 185.219 162.047C185.047 161.853 184.811 161.727 184.554 161.692C184.297 161.657 184.036 161.715 183.819 161.856C183.602 161.998 183.442 162.212 183.369 162.461C183.045 163.839 182.648 165.195 182.266 166.543L184.242 166.284L184.091 165.707C183.99 164.329 181.825 164.322 181.926 165.707C181.95 166.291 182.103 166.862 182.374 167.38C182.792 168.26 184.098 167.95 184.351 167.12C184.762 165.765 185.13 164.409 185.455 163.038L183.326 162.75C183.315 164.481 183.395 166.212 183.564 167.935C183.672 169.046 185.462 169.522 185.685 168.224C185.974 166.595 186.126 164.945 186.14 163.291H183.976V169.342H186.14V166.875H183.976C184.103 169.596 183.157 172.258 181.342 174.29C181.061 174.609 180.757 174.908 180.433 175.184C179.921 175.674 179.452 175.602 179.04 174.96C178.016 174.535 176.955 173.439 176.061 172.797C175.166 172.155 173.939 173.424 174.574 174.275C176.234 176.482 178.709 178.942 181.789 177.881C185.029 176.735 185.469 172.349 185.224 169.464C185.144 168.505 183.709 167.856 183.211 168.923C182.489 170.445 181.768 171.96 181.046 173.489C180.672 174.059 180.449 174.714 180.397 175.393C180.635 177.016 182.605 176.749 183.817 176.655C188.514 176.302 187.771 169.645 187.23 166.298C187.049 165.187 185.433 165.36 185.144 166.298C184.915 166.957 184.796 167.649 184.791 168.346H186.955C186.877 167.106 186.53 165.898 185.938 164.805C185.841 164.644 185.704 164.51 185.541 164.418C185.377 164.325 185.192 164.276 185.004 164.276C184.815 164.276 184.631 164.325 184.467 164.418C184.303 164.51 184.166 164.644 184.069 164.805C183.424 165.919 182.989 167.141 182.785 168.411L184.95 168.7V164.163C184.95 163.876 184.836 163.601 184.633 163.398C184.43 163.195 184.154 163.081 183.867 163.081C183.58 163.081 183.305 163.195 183.102 163.398C182.899 163.601 182.785 163.876 182.785 164.163C182.778 166.599 182.619 169.032 182.309 171.448L184.437 171.159C184.192 169.98 183.777 168.843 183.204 167.784C183.107 167.623 182.97 167.489 182.806 167.396C182.642 167.304 182.457 167.255 182.269 167.255C182.081 167.255 181.896 167.304 181.732 167.396C181.569 167.489 181.432 167.623 181.335 167.784C180.394 170.043 179.041 172.107 177.345 173.871L179.156 174.347L178.838 172.544C178.672 171.585 177.316 171.556 176.861 172.285C176.503 172.827 176.26 173.437 176.147 174.077C176.034 174.717 176.054 175.374 176.205 176.006C176.385 177.03 177.684 176.922 178.182 176.266C178.959 175.232 179.656 174.139 180.267 172.999L178.398 171.902C177.899 172.98 177.559 174.124 177.388 175.299C177.258 176.251 178.391 177.247 179.199 176.352C180.75 174.656 181.873 172.613 182.475 170.395C182.742 169.414 181.385 168.484 180.664 169.342C179.336 170.932 178.131 172.62 177.056 174.391L179.033 175.227L181.234 167.027C181.292 166.777 181.26 166.514 181.144 166.286C181.027 166.057 180.834 165.877 180.597 165.777C180.361 165.677 180.097 165.664 179.852 165.739C179.607 165.815 179.396 165.974 179.257 166.19L174.928 172.458C174.12 173.619 175.974 174.621 176.797 173.547L182.684 165.757C183.521 164.646 181.645 163.593 180.815 164.661L180.758 164.661Z"/><path fill="#E6E6E6" d="M272.807 190.691C281.465 185.397 288.348 177.499 295.996 170.893C304.294 163.731 313.002 157.059 321.97 150.741C339.388 138.479 357.678 127.509 375.953 116.568C376.19 116.418 376.36 116.182 376.426 115.91C376.493 115.638 376.451 115.35 376.31 115.108C376.169 114.866 375.939 114.689 375.669 114.612C375.4 114.536 375.111 114.567 374.864 114.7C356.588 125.641 338.291 136.59 320.874 148.873C312.656 154.643 304.633 160.759 296.941 167.25C288.572 174.319 281.119 183.118 271.689 188.823C270.498 189.544 271.588 191.42 272.778 190.691H272.807Z"/><path fill="#E6E6E6" d="M403.898 82.9715C394.518 83.9235 384.417 86.3109 378.645 94.5116C373.659 101.565 373.768 113.87 378.45 121.112C383.768 129.341 394.633 129.637 403.075 126.975C411.517 124.314 420.254 119.647 420.175 109.564C420.131 104.155 418.176 98.5218 416.019 93.6172C414.157 89.3835 410.86 85.6834 405.867 86.1522C404.489 86.2821 404.475 88.4458 405.867 88.316C412.556 87.6957 414.706 95.6368 416.293 100.649C417.736 105.33 419.071 110.87 416.805 115.522C414.54 120.174 409.078 122.547 404.41 124.249C399.359 126.081 393.811 127.199 388.537 125.692C378.089 122.77 375.203 109.535 378.212 100.145C381.675 89.3258 393.941 86.145 403.934 85.1353C405.305 84.9982 405.319 82.8344 403.934 82.9715H403.898Z"/><path fill="#E6E6E6" d="M418.328 166.637C408.948 167.589 398.847 169.977 393.075 178.177C388.089 185.231 388.198 197.536 392.88 204.777C398.198 213.007 409.064 213.303 417.505 210.641C425.947 207.98 434.684 203.313 434.605 193.23C434.562 187.821 432.606 182.188 430.449 177.283C428.588 173.049 425.29 169.349 420.298 169.818C418.919 169.948 418.905 172.112 420.298 171.982C426.986 171.361 429.136 179.302 430.723 184.315C432.166 188.996 433.501 194.535 431.236 199.188C428.97 203.84 423.508 206.213 418.84 207.915C413.79 209.747 408.241 210.865 402.967 209.357C392.52 206.436 389.634 193.201 392.642 183.81C396.105 172.991 408.371 169.811 418.364 168.801C419.735 168.664 419.749 166.5 418.364 166.637H418.328Z"/><path fill="#E6E6E6" d="M389.749 104.039L396.581 111.829C396.717 111.959 396.883 112.053 397.065 112.1C397.247 112.147 397.438 112.146 397.62 112.097C397.801 112.049 397.967 111.954 398.101 111.822C398.236 111.69 398.333 111.526 398.385 111.346C399.828 107.552 399.554 103.621 399.893 99.6325C400.267 95.5101 401.302 91.4747 402.959 87.6813C406.288 79.9872 411.932 73.5208 419.107 69.1811C420.297 68.4598 419.208 66.5845 418.017 67.313C410.943 71.5714 405.268 77.8037 401.69 85.2434C399.938 88.8638 398.723 92.7196 398.082 96.6898C397.361 101.371 398.017 106.275 396.286 110.769L398.096 110.285L391.3 102.51C390.376 101.465 388.854 103.001 389.77 104.039H389.749Z"/><path fill="#E6E6E6" d="M276.292 199.123C313.507 197.988 350.732 197.747 387.967 198.401C388.247 198.391 388.512 198.273 388.707 198.071C388.902 197.869 389.01 197.6 389.01 197.319C389.01 197.039 388.902 196.77 388.707 196.568C388.512 196.366 388.247 196.248 387.967 196.238C350.742 195.574 313.517 195.814 276.292 196.959C274.9 197.002 274.892 199.166 276.292 199.123Z"/><path fill="#E6E6E6" d="M395.744 177.788C408.466 182.779 420.704 188.926 432.303 196.151C433.486 196.872 434.576 195.019 433.393 194.283C421.64 186.969 409.241 180.749 396.35 175.703C395.059 175.191 394.496 177.283 395.78 177.788H395.744Z"/><path fill="#E6E6E6" d="M418.847 167.986C405.946 183.02 398.473 201.952 397.628 221.741C397.57 223.133 399.734 223.133 399.792 221.741C400.612 202.52 407.86 184.129 420.377 169.515C421.279 168.462 419.756 166.926 418.847 167.986V167.986Z"/><path fill="#E6E6E6" d="M130.281 191.268L210.923 190.215L220.195 190.093C221.862 190.093 223.528 190.035 225.195 190.028C227.54 190.028 229.12 191.975 229.077 194.355C228.968 199.404 225.794 199.224 221.638 199.404L211.616 199.858L170.808 201.654C163.499 201.979 156.183 202.376 148.874 202.628C142.279 202.83 129.74 200.681 132.669 191.088C133.073 189.754 130.988 189.184 130.577 190.511C129.134 195.228 131.688 200.017 135.8 202.491C141.637 205.996 149.329 204.806 155.772 204.518L205.873 202.246L218.038 201.705C221.154 201.56 225.491 202.195 228.355 200.745C231.717 199.051 232.309 192.321 230.188 189.487C229.098 188.044 227.569 187.914 225.859 187.849C221.371 187.676 216.804 187.972 212.309 188.03L187.33 188.361L130.252 189.083C129.972 189.093 129.706 189.211 129.512 189.413C129.317 189.615 129.208 189.884 129.208 190.165C129.208 190.445 129.317 190.714 129.512 190.916C129.706 191.118 129.972 191.236 130.252 191.247L130.281 191.268Z"/><path fill="#7F95D1" d="M367.201 247.451L343.777 233.344L350.618 259.813L354.741 250.169L361.619 259.388L363.659 257.868L356.781 248.649L367.201 247.451Z"/><path fill="#7F95D1" d="M402.156 262.645H362.473V276.349H402.156V262.645Z"/><path fill="#3F3D56" d="M228.595 135.656L252.019 121.549L245.178 148.018L241.055 138.375L234.178 147.594L232.138 146.073L239.015 136.854L228.595 135.656Z"/><path fill="#3F3D56" d="M233.323 151.572H193.641V165.276H233.323V151.572Z"/></svg>