<svg xmlns="http://www.w3.org/2000/svg" width="50" height="50" fill="none" viewBox="0 0 50 50"><g clip-path="url(#clip0)"><path fill="#35E298" d="M49.9999 27.866C49.9999 34.6569 45.6103 40.2142 40.2453 40.2142H34.5221C33.0356 40.2142 31.623 39.7873 30.3592 39.0251C26.71 36.8282 24.7676 32.2697 24.7676 27.866C24.7676 24.6403 25.9658 21.7522 27.8273 19.8803C28.8981 18.8026 29.74 17.4385 30.3126 15.9119C30.7254 14.8128 30.9989 13.631 31.1202 12.4084C31.1679 11.932 31.1919 11.4483 31.1919 10.9615C31.1919 6.65091 33.9789 3.1246 37.3839 3.1246C39.0868 3.1246 40.6348 4.0058 41.7571 5.42677C42.8794 6.84737 43.5756 8.80622 43.5756 10.9615C43.5756 14.4253 44.7989 17.725 46.9409 19.8803C47.8709 20.8164 48.6358 22.0062 49.1683 23.3654C49.7004 24.7253 49.9999 26.2531 49.9999 27.866V27.866Z"/><path fill="#1AB975" d="M36.8575 23.9513C36.7816 26.2867 36.109 28.5744 34.9604 30.6599L30.3595 39.0251C26.71 36.8282 24.7676 32.2697 24.7676 27.866C24.7676 24.6403 25.9658 21.7522 27.8277 19.8803C28.8981 18.8026 29.74 17.4385 30.313 15.9119C30.7257 14.8129 30.9989 13.6311 31.1202 12.4084C32.9436 13.3873 34.8895 15.2084 36.0533 18.589C36.6534 20.3339 36.9174 22.1458 36.8575 23.9513V23.9513Z"/><path fill="#AE583E" d="M44.9299 28.2909C44.9299 32.3501 41.6394 35.6411 37.5801 35.6411C33.5209 35.6411 30.23 32.3501 30.23 28.2909C30.23 24.2317 33.5209 20.9408 37.5801 20.9408C41.6394 20.9408 44.9299 24.2317 44.9299 28.2909V28.2909Z"/><path fill="#7C3F2C" d="M36.6632 20.9976C30.1755 21.8048 27.9195 30.0922 33.0709 34.0954L34.9603 30.6599C36.1085 28.5744 36.7815 26.2867 36.8574 23.9513C36.8898 22.9645 36.8261 21.9761 36.6632 20.9976V20.9976Z"/><path fill="#1ED688" d="M15.8605 8.51325C15.4763 6.76421 13.4954 0.430666 5.12553 1.87148C4.88177 1.91344 4.74559 2.17742 4.85202 2.40096C5.7191 4.22171 9.39647 10.9699 15.5179 9.0927C15.7655 9.01679 15.9158 8.76616 15.8605 8.51325Z"/><path fill="#1AB975" d="M15.5171 9.09232C9.39637 10.9703 5.719 4.22209 4.85192 2.40096C4.74587 2.17703 4.88129 1.91306 5.12505 1.87148C5.84145 1.74826 6.51246 1.6815 7.13883 1.6651C8.42286 3.93065 11.2976 7.88535 15.6044 7.58055C15.7265 7.95516 15.8085 8.27674 15.8604 8.51363C15.9161 8.76654 15.765 9.01641 15.5171 9.09232Z"/><path fill="#C0694E" d="M16.2719 14.0854C15.8527 14.0854 15.5132 13.7459 15.5132 13.3266V2.48869C15.5132 2.06946 15.8527 1.72995 16.2719 1.72995C16.6912 1.72995 17.0307 2.06946 17.0307 2.48869V13.3266C17.0307 13.7459 16.6912 14.0854 16.2719 14.0854Z"/><path fill="#C42D2D" d="M30.6366 30.6595L25.296 40.3698C23.9147 42.6327 20.7722 43.4547 18.2926 42.1615C17.022 41.4989 15.5224 41.4989 14.2502 42.1615C11.8279 43.425 8.66624 42.6903 7.24794 40.3698L1.90621 30.6595C-0.281516 26.6834 -0.501242 22.4174 0.813684 18.589C2.45477 13.8187 5.65644 12.1544 7.86821 11.5795C8.8833 11.3155 9.69087 11.2812 10.0441 11.2812C10.1692 11.2812 10.2371 11.285 10.2371 11.285C11.237 11.285 12.1952 11.4532 13.0787 11.7596C13.961 12.0663 14.7705 12.5126 15.4736 13.068C15.7032 13.2645 15.9878 13.3636 16.272 13.3636C16.5566 13.3636 16.8408 13.2645 17.0704 13.068C17.7738 12.5126 18.5822 12.0663 19.4657 11.7596C20.3488 11.4532 21.3062 11.285 22.3068 11.285C22.3068 11.285 29.0692 10.8539 31.7295 18.589C33.0547 22.4422 32.8125 26.709 30.6366 30.6595Z"/><path fill="#F44545" d="M30.6368 30.6595L25.2963 40.3698C23.915 42.6327 20.7724 43.4547 18.2929 42.1615C17.0222 41.4989 15.5226 41.4989 14.2504 42.1615C13.5687 42.5175 12.8394 42.7093 12.1268 42.7597C12.086 42.6784 7.84517 33.3519 6.7637 30.9742C3.52998 23.8651 4.78387 15.9431 7.86844 11.5795C8.88353 11.3155 9.6911 11.2812 10.0443 11.2812C10.1695 11.2812 10.2374 11.285 10.2374 11.285C11.2372 11.285 12.1955 11.4532 13.0789 11.7596C13.9613 12.0663 14.7708 12.5126 15.4738 13.068C15.7034 13.2645 15.988 13.3636 16.2722 13.3636C16.5568 13.3636 16.841 13.2645 17.0706 13.068C17.7741 12.5126 18.5824 12.0663 19.4659 11.7596C20.349 11.4532 21.3065 11.285 22.3071 11.285C22.3071 11.285 29.0694 10.8539 31.7298 18.589C33.055 22.4422 32.8127 26.709 30.6368 30.6595Z"/><path fill="#1AB975" d="M6.63822 33.0765C5.78639 33.5258 5.46024 34.5806 5.90961 35.4328C6.43718 36.4319 7.10361 37.2997 7.84099 38.0508L2.02319 37.4027C1.06609 37.2963 0.203584 37.9856 0.096772 38.9431C-0.00965815 39.9002 0.680039 40.7627 1.63715 40.8695L7.45456 41.5176C6.56993 42.0883 5.72879 42.7883 4.99446 43.6466C4.36847 44.3787 4.4543 45.4796 5.18634 46.1056C5.91838 46.7316 7.0193 46.6457 7.6453 45.9137C9.63809 43.5837 13.251 42.5842 16.3081 42.4843C17.5215 42.445 18.3276 41.2033 17.8633 40.0791C17.6535 39.5687 17.2015 39.1685 16.6316 39.0411C16.5763 39.0286 11.0488 37.6972 8.99455 33.8047C8.5448 32.9529 7.49004 32.6267 6.63822 33.0765V33.0765Z"/><path fill="#FFA90B" d="M49.8069 44.4912C49.5578 46.7255 47.6707 48.4173 45.4223 48.4215C32.5309 48.4467 41.5409 48.4295 20.792 48.4692C16.4814 48.4772 13.1229 44.7311 13.6005 40.448C13.7058 39.5069 13.9862 38.6314 14.4031 37.8483C15.6394 35.5289 18.0854 34.0233 20.7679 34.0233C21.3001 34.0233 21.8425 34.082 22.3857 34.2068C40.6673 38.3835 42.0856 38.7074 43.2731 38.9786L44.7647 39.3196L46.3977 39.6931C48.1796 40.099 49.4819 41.5405 49.7722 43.2659C49.8401 43.6615 49.8535 44.0735 49.8069 44.4912V44.4912Z"/><path fill="#FFB52D" d="M49.7724 43.2659C48.963 44.3245 47.6881 44.9993 46.2694 45.0012C33.3792 45.0268 42.3887 45.0096 21.6402 45.0489C17.6069 45.0561 14.4083 41.7786 14.4033 37.8483C15.6397 35.5289 18.0853 34.0233 20.7678 34.0233C21.0562 34.0233 21.3468 34.0405 21.639 34.0771C21.887 34.1064 22.1369 34.1499 22.386 34.2068L23.1317 34.3765C42.4417 38.7894 25.2271 34.8553 43.2733 38.9786L44.7645 39.3196L46.398 39.6931C48.1798 40.099 49.4821 41.5405 49.7724 43.2659V43.2659Z"/><path fill="#F29500" d="M44.7642 39.3196L44.1886 45.1855C44.1451 45.573 43.8174 45.8603 43.4359 45.8603C43.4073 45.8603 43.3791 45.8584 43.3509 45.8553C42.9339 45.8088 42.6344 45.4346 42.6798 45.0176L43.273 38.9786L44.7642 39.3196Z"/><path fill="#F29500" d="M24.04 43.6554L23.53 48.4638L22.0029 48.4669L22.5313 43.4876C22.5778 43.0706 22.952 42.77 23.369 42.8165C23.7859 42.8631 24.0865 43.2385 24.04 43.6554Z"/><path fill="#F29500" d="M37.9288 45.2026L37.592 48.4368L36.0649 48.4398L36.4201 45.0348C36.4666 44.6179 36.842 44.3184 37.2589 44.3649C37.6747 44.4115 37.9753 44.7857 37.9288 45.2026V45.2026Z"/><path fill="#F29500" d="M31.9205 36.3853L31.6931 38.9339C31.6497 39.3215 31.3216 39.6091 30.9401 39.6091C30.9119 39.6091 30.8837 39.6069 30.8551 39.6038C30.4381 39.5573 30.1379 39.183 30.1844 38.7661L30.4282 36.0443L31.9205 36.3853Z"/><path fill="#F29500" d="M28.9398 45.3686L28.6209 48.4539L27.0942 48.457L27.4311 45.2008C27.4776 44.7838 27.8541 44.4832 28.2699 44.5297C28.6857 44.5763 28.9863 44.9517 28.9398 45.3686V45.3686Z"/><path fill="#F29500" d="M23.1315 34.3765L22.6062 39.0881C22.5628 39.4757 22.2339 39.7629 21.8525 39.7629C21.8242 39.7629 21.796 39.761 21.7674 39.7579C21.3508 39.7114 21.051 39.3357 21.0975 38.9198L21.632 34.1225C21.6339 34.1076 21.6362 34.0923 21.6392 34.0771C21.8868 34.1065 22.137 34.1499 22.3858 34.2068L23.1315 34.3765Z"/></g><defs><clipPath id="clip0"><rect width="50" height="50" fill="#fff"/></clipPath></defs></svg>