<svg width="55" height="55" viewBox="0 0 55 55" fill="none" xmlns="http://www.w3.org/2000/svg">
<g clip-path="url(#clip0)">
<path d="M20.4035 15.5329V13.3065H15.0809V15.5329C11.976 16.6331 9.7583 19.5872 9.7583 23.0645V53.2258C9.7583 54.2017 10.5479 55 11.5325 55H23.9518C24.9277 55 25.726 54.2017 25.726 53.2258V23.0645C25.726 19.5872 23.4996 16.6331 20.4035 15.5329Z" fill="#656D78"/>
<path d="M38.1454 54.9991C37.6546 54.9991 37.2583 54.6024 37.2583 54.112V43.4747C37.2583 42.9844 37.6546 42.5876 38.1454 42.5876C38.6362 42.5876 39.0325 42.9844 39.0325 43.4747V54.112C39.0325 54.6024 38.6362 54.9991 38.1454 54.9991Z" fill="#CCD1D9"/>
<path d="M15.0806 0H20.4031V4.42682H15.0806V0Z" fill="#ED5565"/>
<path d="M15.0806 4.42682H20.4031V13.3064H15.0806V4.42682Z" fill="#DA4453"/>
<path d="M43.459 24.8474L45.2332 36.371H31.0483L32.8225 24.8474H43.459Z" fill="#E6E9ED"/>
<path d="M43.459 24.8474H41.6826L43.4568 36.371H45.2332L43.459 24.8474Z" fill="#CCD1D9"/>
<path d="M45.2332 36.371H45.2419C45.2419 40.2919 42.066 43.4677 38.1451 43.4677C34.2242 43.4677 31.057 40.301 31.0483 36.3796V36.371H45.2332Z" fill="#ED5565"/>
<path d="M45.2334 36.371H43.4661C43.4661 39.9904 40.7568 42.9692 37.2573 43.4067C37.5484 43.4431 37.8438 43.4677 38.1453 43.4677C42.0662 43.4677 45.2421 40.2919 45.2421 36.371H45.2334Z" fill="#DA4453"/>
<path d="M12.4194 46.1273V29.2759H23.0646V46.1273H12.4194Z" fill="#ED5565"/>
<path d="M20.4031 15.5329V13.3065H17.7393V16.4213C20.835 17.521 23.0618 20.4751 23.0618 23.9525V27.5H23.0644V47.9032H23.0618V53.2258C23.0618 54.2017 22.2635 55 21.2876 55H23.9515C24.9274 55 25.7257 54.2017 25.7257 53.2258V23.0645C25.7257 19.5872 23.4993 16.6331 20.4031 15.5329Z" fill="#434A54"/>
<path d="M17.7393 4.42682H20.4031V13.3064H17.7393V4.42682Z" fill="#D3374E"/>
<path d="M17.7393 0H20.4031V4.42682H17.7393V0Z" fill="#DA4453"/>
<path d="M17.7419 34.1445C17.7419 34.8805 17.1476 35.4752 16.4112 35.4752C15.6749 35.4752 15.0806 34.8805 15.0806 34.1445C15.0806 33.4169 15.6749 32.8139 16.4112 32.8139C17.1476 32.8139 17.7419 33.4169 17.7419 34.1445Z" fill="#DA4453"/>
<path d="M17.7418 35.1148C18.4781 35.1148 19.0724 35.7182 19.0724 36.4455C19.0724 37.1818 18.4781 37.7761 17.7418 37.7761C17.0054 37.7761 16.4111 37.1818 16.4111 36.4455C16.4111 35.7182 17.0054 35.1148 17.7418 35.1148Z" fill="#DA4453"/>
<path d="M17.7417 34.1445C17.7417 33.4169 18.336 32.8139 19.0723 32.8139C19.8087 32.8139 20.403 33.4169 20.403 34.1445C20.403 34.8805 19.8087 35.4752 19.0723 35.4752C18.336 35.4752 17.7417 34.8805 17.7417 34.1445Z" fill="#DA4453"/>
<path d="M20.4014 40.8021H15.077C14.5863 40.8021 14.1899 40.4053 14.1899 39.915C14.1899 39.4243 14.5863 39.0279 15.077 39.0279H20.4014C20.8917 39.0279 21.2884 39.4243 21.2884 39.915C21.2884 40.4053 20.8917 40.8021 20.4014 40.8021Z" fill="#DA4453"/>
<path d="M18.6254 43.4643H16.8529C16.3622 43.4643 15.9658 43.0675 15.9658 42.5772C15.9658 42.0864 16.3622 41.6901 16.8529 41.6901H18.6254C19.1157 41.6901 19.5125 42.0864 19.5125 42.5772C19.5125 43.0675 19.1157 43.4643 18.6254 43.4643Z" fill="#DA4453"/>
<path d="M43.4619 54.9991H32.8202C32.3294 54.9991 31.9331 54.6024 31.9331 54.112C31.9331 53.6213 32.3294 53.2249 32.8202 53.2249H43.4619C43.9522 53.2249 44.349 53.6213 44.349 54.112C44.349 54.6024 43.9522 54.9991 43.4619 54.9991Z" fill="#E6E9ED"/>
</g>
<defs>
<clipPath id="clip0">
<rect width="55" height="55" fill="white"/>
</clipPath>
</defs>
</svg>
